<svg xmlns="http://www.w3.org/2000/svg" fill="none" viewBox="0 0 800 340"><rect width="800" height="340" fill="#f7f6f2" rx="16"/><rect width="800" height="52" fill="#1a6363" rx="16"/><path fill="#1a6363" d="M0 28h800v24H0z"/><text x="400" y="35" fill="#fff" font-family="Georgia, serif" font-size="17" font-weight="600" text-anchor="middle">Dec 2026 - Jan 2027 — Your 10-Day Holiday Window</text><g fill="#78716c" font-family="system-ui, sans-serif" font-size="10" font-weight="600" text-anchor="middle"><text x="52" y="80">THU</text><text x="128" y="80">FRI</text><text x="216" y="80">SAT-SUN</text><text x="306" y="80">MON</text><text x="382" y="80">TUE</text><text x="458" y="80">WED</text><text x="534" y="80">THU</text><text x="610" y="80">FRI</text><text x="714" y="80">SAT-SUN</text></g><rect width="56" height="88" x="24" y="92" fill="#fef0ed" stroke="#d95740" stroke-width="1.5" rx="12"/><text x="52" y="124" fill="#d95740" font-family="Georgia, serif" font-size="22" font-weight="700" text-anchor="middle">24</text><text x="52" y="148" fill="#d95740" font-family="system-ui, sans-serif" font-size="10" font-weight="600" text-anchor="middle">Xmas Eve</text><rect width="80" height="88" x="88" y="92" fill="#fef0ed" stroke="#d95740" stroke-width="1.5" rx="12"/><text x="128" y="124" fill="#d95740" font-family="Georgia, serif" font-size="24" font-weight="700" text-anchor="middle">25</text><text x="128" y="148" fill="#d95740" font-family="system-ui, sans-serif" font-size="10" font-weight="600" text-anchor="middle">Christmas</text><rect width="80" height="88" x="176" y="92" fill="#eeecea" rx="12"/><text x="216" y="124" fill="#78716c" font-family="Georgia, serif" font-size="20" font-weight="700" text-anchor="middle">26-27</text><text x="216" y="148" fill="#78716c" font-family="system-ui, sans-serif" font-size="10" text-anchor="middle">Weekend</text><rect width="76" height="88" x="264" y="92" fill="#e8f3f3" stroke="#1a6363" stroke-width="1.5" rx="12"/><text x="302" y="124" fill="#1a6363" font-family="Georgia, serif" font-size="24" font-weight="700" text-anchor="middle">28</text><text x="302" y="148" fill="#1a6363" font-family="system-ui, sans-serif" font-size="11" font-weight="700" text-anchor="middle">PTO 1</text><rect width="76" height="88" x="344" y="92" fill="#e8f3f3" stroke="#1a6363" stroke-width="1.5" rx="12"/><text x="382" y="124" fill="#1a6363" font-family="Georgia, serif" font-size="24" font-weight="700" text-anchor="middle">29</text><text x="382" y="148" fill="#1a6363" font-family="system-ui, sans-serif" font-size="11" font-weight="700" text-anchor="middle">PTO 2</text><rect width="68" height="88" x="424" y="92" fill="#e8f3f3" stroke="#1a6363" stroke-width="1.5" rx="12"/><text x="458" y="124" fill="#1a6363" font-family="Georgia, serif" font-size="24" font-weight="700" text-anchor="middle">30</text><text x="458" y="148" fill="#1a6363" font-family="system-ui, sans-serif" font-size="11" font-weight="700" text-anchor="middle">PTO 3</text><rect width="68" height="88" x="500" y="92" fill="#fef0ed" stroke="#d95740" stroke-width="1.5" rx="12"/><text x="534" y="120" fill="#d95740" font-family="Georgia, serif" font-size="22" font-weight="700" text-anchor="middle">1</text><text x="534" y="140" fill="#d95740" font-family="system-ui, sans-serif" font-size="10" font-weight="600" text-anchor="middle">New Year</text><text x="534" y="152" fill="#d95740" font-family="system-ui, sans-serif" font-size="10" opacity=".7" text-anchor="middle">JAN</text><rect width="68" height="88" x="576" y="92" fill="#f7f6f2" stroke="#e5e2da" stroke-dasharray="5 3" stroke-width="1.5" rx="12"/><text x="610" y="124" fill="#a8a29e" font-family="Georgia, serif" font-size="22" font-weight="700" text-anchor="middle">2</text><text x="610" y="146" fill="#a8a29e" font-family="system-ui, sans-serif" font-size="10" text-anchor="middle">or PTO 4</text><rect width="124" height="88" x="652" y="92" fill="#eeecea" rx="12"/><text x="714" y="124" fill="#78716c" font-family="Georgia, serif" font-size="20" font-weight="700" text-anchor="middle">3-4</text><text x="714" y="148" fill="#78716c" font-family="system-ui, sans-serif" font-size="10" text-anchor="middle">Weekend</text><path fill="#e5e2da" d="M24 200h752v1H24z"/><g fill="#44403c" font-family="system-ui, sans-serif" font-size="12"><rect width="14" height="14" x="40" y="220" fill="#e8f3f3" stroke="#1a6363" rx="4"/><text x="62" y="232">PTO days (3)</text><rect width="14" height="14" x="200" y="220" fill="#fef0ed" stroke="#d95740" rx="4"/><text x="222" y="232">Holidays</text><rect width="14" height="14" x="330" y="220" fill="#eeecea" rx="4"/><text x="352" y="232">Weekends</text><rect width="14" height="14" x="460" y="220" fill="#f7f6f2" stroke="#e5e2da" stroke-dasharray="3 2" rx="4"/><text x="482" y="232">Optional PTO</text></g><rect width="752" height="56" x="24" y="256" fill="#1a6363" rx="12"/><text x="400" y="282" fill="#fff" font-family="system-ui, sans-serif" font-size="13" opacity=".75" text-anchor="middle">Use just</text><text x="400" y="300" fill="#fff" font-family="Georgia, serif" font-size="17" font-weight="600" text-anchor="middle">3 PTO days to get 10 days off (Dec 24 - Jan 4) — 3.3x return</text></svg>