<svg xmlns="http://www.w3.org/2000/svg" fill="none" viewBox="0 0 800 220"><rect width="800" height="220" fill="#f7f6f2" rx="16"/><rect width="176" height="172" x="24" y="24" fill="#fff" stroke="#e5e2da" rx="12"/><rect width="176" height="56" x="24" y="24" fill="#fdf4e7" rx="12"/><path fill="#fff" d="M24 68h176v12H24z"/><g transform="translate(112 34)"><circle r="10" fill="#c4872a" opacity=".4"/><path stroke="#c4872a" stroke-width="2" d="M-15 8h30" opacity=".35"/><path stroke="#c4872a" stroke-width="1.5" d="M-16 12c4-4 8 0 12-4S4 8 8 4s8 0 8 0M-16 18c4-4 8 0 12-4s8 0 12-4 8 0 8 0" opacity=".35"/></g><text x="112" y="100" fill="#1c1917" font-family="Georgia, serif" font-size="15" font-weight="700" text-anchor="middle">Caribbean</text><text x="112" y="118" fill="#78716c" font-family="system-ui, sans-serif" font-size="11" text-anchor="middle">Peak season, 80-85F</text><text x="112" y="134" fill="#78716c" font-family="system-ui, sans-serif" font-size="11" text-anchor="middle">Book early — +40% Nov</text><rect width="112" height="26" x="56" y="152" fill="#c4872a" opacity=".07" rx="6"/><text x="112" y="169" fill="#c4872a" font-family="system-ui, sans-serif" font-size="11" font-weight="600" text-anchor="middle">Warm escape</text><rect width="176" height="172" x="216" y="24" fill="#fff" stroke="#e5e2da" rx="12"/><rect width="176" height="56" x="216" y="24" fill="#e8f3f3" rx="12"/><path fill="#fff" d="M216 68h176v12H216z"/><g transform="translate(304 44)"><path stroke="#1a6363" stroke-width="1.5" d="M0-12v24M-12 0h24" opacity=".5"/><path stroke="#1a6363" stroke-width="1.5" d="M-8-8 8 8M8-8-8 8" opacity=".45"/><circle r="3" fill="#1a6363" opacity=".4"/></g><text x="304" y="100" fill="#1c1917" font-family="Georgia, serif" font-size="15" font-weight="700" text-anchor="middle">SE Asia</text><text x="304" y="118" fill="#78716c" font-family="system-ui, sans-serif" font-size="11" text-anchor="middle">Dry season, 80-90F</text><text x="304" y="134" fill="#78716c" font-family="system-ui, sans-serif" font-size="11" text-anchor="middle">$500-700 from West Coast</text><rect width="112" height="26" x="248" y="152" fill="#1a6363" opacity=".07" rx="6"/><text x="304" y="169" fill="#1a6363" font-family="system-ui, sans-serif" font-size="11" font-weight="600" text-anchor="middle">Best value</text><rect width="176" height="172" x="408" y="24" fill="#fff" stroke="#e5e2da" rx="12"/><rect width="176" height="56" x="408" y="24" fill="#fef0ed" rx="12"/><path fill="#fff" d="M408 68h176v12H408z"/><g fill="#d95740" transform="translate(496 32)"><rect width="20" height="22" x="-10" y="10" opacity=".35" rx="2"/><rect width="14" height="8" x="-7" y="6" opacity=".45" rx="1"/><rect width="6" height="10" x="-3" opacity=".4" rx="1"/><circle cy="-2" r="2" opacity=".5"/></g><text x="496" y="100" fill="#1c1917" font-family="Georgia, serif" font-size="14" font-weight="700" text-anchor="middle">Xmas Markets</text><text x="496" y="118" fill="#78716c" font-family="system-ui, sans-serif" font-size="11" text-anchor="middle">Canary Islands: 70F</text><text x="496" y="134" fill="#78716c" font-family="system-ui, sans-serif" font-size="11" text-anchor="middle">Cheaper than Caribbean</text><rect width="112" height="26" x="440" y="152" fill="#d95740" opacity=".07" rx="6"/><text x="496" y="169" fill="#d95740" font-family="system-ui, sans-serif" font-size="11" font-weight="600" text-anchor="middle">Festive season</text><rect width="176" height="172" x="600" y="24" fill="#fff" stroke="#e5e2da" rx="12"/><rect width="176" height="56" x="600" y="24" fill="#eef6f1" rx="12"/><path fill="#fff" d="M600 68h176v12H600z"/><path fill="#4a7c5e" d="m670 66 15-28 3 6 3-6 15 28Z" opacity=".4"/><path fill="#4a7c5e" d="m678 66 10-20 10 20Z" opacity=".3"/><path fill="#fff" d="m685 38 2 5 1-2 1 2 2-5-1.5 4-1.5-2-1.5 2Z" opacity=".6"/><text x="688" y="100" fill="#1c1917" font-family="Georgia, serif" font-size="15" font-weight="700" text-anchor="middle">Ski Resorts</text><text x="688" y="118" fill="#78716c" font-family="system-ui, sans-serif" font-size="11" text-anchor="middle">CO, UT, Japan fully open</text><text x="688" y="134" fill="#78716c" font-family="system-ui, sans-serif" font-size="11" text-anchor="middle">Niseko, Hakuba world-class</text><rect width="112" height="26" x="632" y="152" fill="#4a7c5e" opacity=".07" rx="6"/><text x="688" y="169" fill="#4a7c5e" font-family="system-ui, sans-serif" font-size="11" font-weight="600" text-anchor="middle">Peak powder</text></svg>