<svg xmlns="http://www.w3.org/2000/svg" viewBox="0 0 800 220" fill="none">
  <rect width="800" height="220" rx="16" fill="#F7F6F2"/>

  <!-- Warm Beach -->
  <rect x="24" y="24" width="176" height="172" rx="12" fill="#FFF" stroke="#E5E2DA" stroke-width="1"/>
  <rect x="24" y="24" width="176" height="56" rx="12" fill="#FDF4E7"/>
  <rect x="24" y="68" width="176" height="12" fill="#FFF"/>
  <g transform="translate(112,34)">
    <circle r="10" fill="#C4872A" opacity="0.4"/>
    <line x1="-15" y1="8" x2="15" y2="8" stroke="#C4872A" stroke-width="2" opacity="0.35"/>
    <path d="M-16 12C-12 8-8 12-4 8C0 4 4 8 8 4C12 0 16 4 16 4" stroke="#C4872A" stroke-width="1.5" opacity="0.35" fill="none"/>
    <path d="M-16 18C-12 14-8 18-4 14C0 10 4 14 8 10C12 6 16 10 16 10" stroke="#C4872A" stroke-width="1.5" opacity="0.35" fill="none"/>
  </g>
  <text x="112" y="100" text-anchor="middle" font-family="Georgia, serif" font-size="15" font-weight="700" fill="#1C1917">Caribbean</text>
  <text x="112" y="118" text-anchor="middle" font-family="system-ui, sans-serif" font-size="11" fill="#78716C">Peak season, 80-85F</text>
  <text x="112" y="134" text-anchor="middle" font-family="system-ui, sans-serif" font-size="11" fill="#78716C">Book early — +40% Nov</text>
  <rect x="56" y="152" width="112" height="26" rx="6" fill="#C4872A" opacity="0.07"/>
  <text x="112" y="169" text-anchor="middle" font-family="system-ui, sans-serif" font-size="11" font-weight="600" fill="#C4872A">Warm escape</text>

  <!-- Winter Wonderland -->
  <rect x="216" y="24" width="176" height="172" rx="12" fill="#FFF" stroke="#E5E2DA" stroke-width="1"/>
  <rect x="216" y="24" width="176" height="56" rx="12" fill="#E8F3F3"/>
  <rect x="216" y="68" width="176" height="12" fill="#FFF"/>
  <g transform="translate(304,44)">
    <line x1="0" y1="-12" x2="0" y2="12" stroke="#1A6363" stroke-width="1.5" opacity="0.5"/>
    <line x1="-12" y1="0" x2="12" y2="0" stroke="#1A6363" stroke-width="1.5" opacity="0.5"/>
    <line x1="-8" y1="-8" x2="8" y2="8" stroke="#1A6363" stroke-width="1.5" opacity="0.45"/>
    <line x1="8" y1="-8" x2="-8" y2="8" stroke="#1A6363" stroke-width="1.5" opacity="0.45"/>
    <circle r="3" fill="#1A6363" opacity="0.4"/>
  </g>
  <text x="304" y="100" text-anchor="middle" font-family="Georgia, serif" font-size="15" font-weight="700" fill="#1C1917">SE Asia</text>
  <text x="304" y="118" text-anchor="middle" font-family="system-ui, sans-serif" font-size="11" fill="#78716C">Dry season, 80-90F</text>
  <text x="304" y="134" text-anchor="middle" font-family="system-ui, sans-serif" font-size="11" fill="#78716C">$500-700 from West Coast</text>
  <rect x="248" y="152" width="112" height="26" rx="6" fill="#1A6363" opacity="0.07"/>
  <text x="304" y="169" text-anchor="middle" font-family="system-ui, sans-serif" font-size="11" font-weight="600" fill="#1A6363">Best value</text>

  <!-- European Christmas Markets -->
  <rect x="408" y="24" width="176" height="172" rx="12" fill="#FFF" stroke="#E5E2DA" stroke-width="1"/>
  <rect x="408" y="24" width="176" height="56" rx="12" fill="#FEF0ED"/>
  <rect x="408" y="68" width="176" height="12" fill="#FFF"/>
  <g transform="translate(496,32)">
    <rect x="-10" y="10" width="20" height="22" rx="2" fill="#D95740" opacity="0.35"/>
    <rect x="-7" y="6" width="14" height="8" rx="1" fill="#D95740" opacity="0.45"/>
    <rect x="-3" y="0" width="6" height="10" rx="1" fill="#D95740" opacity="0.4"/>
    <circle cx="0" cy="-2" r="2" fill="#D95740" opacity="0.5"/>
  </g>
  <text x="496" y="100" text-anchor="middle" font-family="Georgia, serif" font-size="14" font-weight="700" fill="#1C1917">Xmas Markets</text>
  <text x="496" y="118" text-anchor="middle" font-family="system-ui, sans-serif" font-size="11" fill="#78716C">Canary Islands: 70F</text>
  <text x="496" y="134" text-anchor="middle" font-family="system-ui, sans-serif" font-size="11" fill="#78716C">Cheaper than Caribbean</text>
  <rect x="440" y="152" width="112" height="26" rx="6" fill="#D95740" opacity="0.07"/>
  <text x="496" y="169" text-anchor="middle" font-family="system-ui, sans-serif" font-size="11" font-weight="600" fill="#D95740">Festive season</text>

  <!-- Skiing -->
  <rect x="600" y="24" width="176" height="172" rx="12" fill="#FFF" stroke="#E5E2DA" stroke-width="1"/>
  <rect x="600" y="24" width="176" height="56" rx="12" fill="#EEF6F1"/>
  <rect x="600" y="68" width="176" height="12" fill="#FFF"/>
  <g transform="translate(688,28)">
    <path d="M-18 38L-3 10L0 16L3 10L18 38Z" fill="#4A7C5E" opacity="0.4"/>
    <path d="M-10 38L0 18L10 38Z" fill="#4A7C5E" opacity="0.3"/>
    <path d="M-3 10L-1 15L0 13L1 15L3 10L1.5 14L0 12L-1.5 14Z" fill="#FFF" opacity="0.6"/>
  </g>
  <text x="688" y="100" text-anchor="middle" font-family="Georgia, serif" font-size="15" font-weight="700" fill="#1C1917">Ski Resorts</text>
  <text x="688" y="118" text-anchor="middle" font-family="system-ui, sans-serif" font-size="11" fill="#78716C">CO, UT, Japan fully open</text>
  <text x="688" y="134" text-anchor="middle" font-family="system-ui, sans-serif" font-size="11" fill="#78716C">Niseko, Hakuba world-class</text>
  <rect x="632" y="152" width="112" height="26" rx="6" fill="#4A7C5E" opacity="0.07"/>
  <text x="688" y="169" text-anchor="middle" font-family="system-ui, sans-serif" font-size="11" font-weight="600" fill="#4A7C5E">Peak powder</text>
</svg>