<svg xmlns="http://www.w3.org/2000/svg" fill="none" viewBox="0 0 800 220"><rect width="800" height="220" fill="#f7f6f2" rx="16"/><rect width="176" height="172" x="24" y="24" fill="#fff" stroke="#e5e2da" rx="12"/><rect width="176" height="56" x="24" y="24" fill="#eef6f1" rx="12"/><path fill="#fff" d="M24 68h176v12H24z"/><g transform="translate(112 30)"><path fill="#4a7c5e" d="m-8 42 2-20h-4l6-14h-3l7-8 7 8H4l6 14H6l2 20Z" opacity=".45"/><path fill="#c4872a" d="m-14 42 4-14 4 8 4-10 4 10 4-8 4 14Z" opacity=".35"/><rect width="30" height="3" x="-15" y="40" fill="#4a7c5e" opacity=".4" rx="1"/></g><text x="112" y="100" fill="#1c1917" font-family="Georgia, serif" font-size="15" font-weight="700" text-anchor="middle">Vermont Rt 100</text><text x="112" y="118" fill="#78716c" font-family="system-ui, sans-serif" font-size="11" text-anchor="middle">Most iconic fall drive in US</text><text x="112" y="134" fill="#78716c" font-family="system-ui, sans-serif" font-size="11" text-anchor="middle">Bennington to Stowe, 4 days</text><rect width="112" height="26" x="56" y="152" fill="#4a7c5e" opacity=".07" rx="6"/><text x="112" y="169" fill="#4a7c5e" font-family="system-ui, sans-serif" font-size="11" font-weight="600" text-anchor="middle">Peak foliage</text><rect width="176" height="172" x="216" y="24" fill="#fff" stroke="#e5e2da" rx="12"/><rect width="176" height="56" x="216" y="24" fill="#fdf4e7" rx="12"/><path fill="#fff" d="M216 68h176v12H216z"/><path fill="#c4872a" d="m286 68 15-28 3 6 3-6 15 28Z" opacity=".4"/><path fill="#c4872a" d="m294 68 10-20 10 20Z" opacity=".3"/><path stroke="#c4872a" stroke-width="1.5" d="M288 66c4-2 10-1 16-2 6 1 12 0 16 2" opacity=".3"/><text x="304" y="100" fill="#1c1917" font-family="Georgia, serif" font-size="15" font-weight="700" text-anchor="middle">Shenandoah</text><text x="304" y="118" fill="#78716c" font-family="system-ui, sans-serif" font-size="11" text-anchor="middle">105 mi ridge-top driving</text><text x="304" y="134" fill="#78716c" font-family="system-ui, sans-serif" font-size="11" text-anchor="middle">Easy drive from DC</text><rect width="112" height="26" x="248" y="152" fill="#c4872a" opacity=".07" rx="6"/><text x="304" y="169" fill="#c4872a" font-family="system-ui, sans-serif" font-size="11" font-weight="600" text-anchor="middle">Scenic drive</text><rect width="176" height="172" x="408" y="24" fill="#fff" stroke="#e5e2da" rx="12"/><rect width="176" height="56" x="408" y="24" fill="#e8f3f3" rx="12"/><path fill="#fff" d="M408 68h176v12H408z"/><g fill="#1a6363" transform="translate(496 28)"><path d="m-16 42 8-24 4 8 4-16 4 16 4-8 8 24Z" opacity=".4"/><rect width="36" height="3" x="-18" y="40" opacity=".4" rx="1"/></g><text x="496" y="100" fill="#1c1917" font-family="Georgia, serif" font-size="15" font-weight="700" text-anchor="middle">White Mtns NH</text><text x="496" y="118" fill="#78716c" font-family="system-ui, sans-serif" font-size="11" text-anchor="middle">Kancamagus Highway</text><text x="496" y="134" fill="#78716c" font-family="system-ui, sans-serif" font-size="11" text-anchor="middle">The classic October drive</text><rect width="112" height="26" x="440" y="152" fill="#1a6363" opacity=".07" rx="6"/><text x="496" y="169" fill="#1a6363" font-family="system-ui, sans-serif" font-size="11" font-weight="600" text-anchor="middle">From Boston</text><rect width="176" height="172" x="600" y="24" fill="#fff" stroke="#e5e2da" rx="12"/><rect width="176" height="56" x="600" y="24" fill="#fef0ed" rx="12"/><path fill="#fff" d="M600 68h176v12H600z"/><g fill="#d95740" transform="translate(688 30)"><path d="m-14 38 10-24 4 8 4-8 10 24Z" opacity=".35"/><circle cx="-6" cy="28" r="4" opacity=".3"/><circle cx="6" cy="30" r="3.5" opacity=".3"/><circle cy="26" r="4.5" opacity=".25"/></g><text x="688" y="100" fill="#1c1917" font-family="Georgia, serif" font-size="15" font-weight="700" text-anchor="middle">Asheville, NC</text><text x="688" y="118" fill="#78716c" font-family="system-ui, sans-serif" font-size="11" text-anchor="middle">Blue Ridge Pkwy foliage</text><text x="688" y="134" fill="#78716c" font-family="system-ui, sans-serif" font-size="11" text-anchor="middle">Food and brewery scene</text><rect width="112" height="26" x="632" y="152" fill="#d95740" opacity=".07" rx="6"/><text x="688" y="169" fill="#d95740" font-family="system-ui, sans-serif" font-size="11" font-weight="600" text-anchor="middle">Fly-to favorite</text></svg>