<svg xmlns="http://www.w3.org/2000/svg" fill="none" viewBox="0 0 800 340"><rect width="800" height="340" fill="#f7f6f2" rx="16"/><rect width="800" height="52" fill="#1a6363" rx="16"/><path fill="#1a6363" d="M0 28h800v24H0z"/><text x="400" y="35" fill="#fff" font-family="Georgia, serif" font-size="18" font-weight="600" text-anchor="middle">October 2026 — Your 4-Day Fall Foliage Window</text><g fill="#78716c" font-family="system-ui, sans-serif" font-size="11" font-weight="600" text-anchor="middle"><text x="116" y="80">FRI</text><text x="310" y="80">SAT-SUN</text><text x="504" y="80">MON</text><text x="688" y="80">TUE</text></g><rect width="184" height="88" x="24" y="92" fill="#e8f3f3" stroke="#1a6363" stroke-width="1.5" rx="12"/><text x="116" y="124" fill="#1a6363" font-family="Georgia, serif" font-size="26" font-weight="700" text-anchor="middle">9</text><text x="116" y="150" fill="#1a6363" font-family="system-ui, sans-serif" font-size="11" font-weight="700" text-anchor="middle">PTO 1</text><rect width="184" height="88" x="218" y="92" fill="#eeecea" rx="12"/><text x="310" y="124" fill="#78716c" font-family="Georgia, serif" font-size="24" font-weight="700" text-anchor="middle">10-11</text><text x="310" y="150" fill="#78716c" font-family="system-ui, sans-serif" font-size="10" text-anchor="middle">Weekend</text><rect width="184" height="88" x="412" y="92" fill="#fef0ed" stroke="#d95740" stroke-width="1.5" rx="12"/><text x="504" y="124" fill="#d95740" font-family="Georgia, serif" font-size="26" font-weight="700" text-anchor="middle">12</text><text x="504" y="146" fill="#d95740" font-family="system-ui, sans-serif" font-size="10" font-weight="600" text-anchor="middle">Columbus Day /</text><text x="504" y="158" fill="#d95740" font-family="system-ui, sans-serif" font-size="10" font-weight="600" text-anchor="middle">Indigenous Peoples&apos;</text><rect width="170" height="88" x="606" y="92" fill="#f7f6f2" stroke="#e5e2da" rx="12"/><text x="688" y="124" fill="#a8a29e" font-family="Georgia, serif" font-size="26" font-weight="700" text-anchor="middle">13</text><text x="688" y="150" fill="#a8a29e" font-family="system-ui, sans-serif" font-size="10" text-anchor="middle">Back to work</text><path fill="#e5e2da" d="M24 200h752v1H24z"/><g fill="#44403c" font-family="system-ui, sans-serif" font-size="12"><rect width="14" height="14" x="80" y="220" fill="#e8f3f3" stroke="#1a6363" rx="4"/><text x="102" y="232">PTO day (1 total)</text><rect width="14" height="14" x="300" y="220" fill="#fef0ed" stroke="#d95740" rx="4"/><text x="322" y="232">Holiday</text><rect width="14" height="14" x="440" y="220" fill="#eeecea" rx="4"/><text x="462" y="232">Weekend</text><rect width="14" height="14" x="580" y="220" fill="#f7f6f2" stroke="#e5e2da" rx="4"/><text x="602" y="232">Workday</text></g><rect width="752" height="56" x="24" y="256" fill="#1a6363" rx="12"/><text x="400" y="282" fill="#fff" font-family="system-ui, sans-serif" font-size="13" opacity=".75" text-anchor="middle">Use just</text><text x="400" y="300" fill="#fff" font-family="Georgia, serif" font-size="17" font-weight="600" text-anchor="middle">1 PTO day to get 4 consecutive days off — a 4.0x return</text></svg>