<svg xmlns="http://www.w3.org/2000/svg" fill="none" viewBox="0 0 800 160"><rect width="800" height="160" fill="#1a6363" rx="16"/><text x="400" y="30" fill="#fff" font-family="system-ui, sans-serif" font-size="11" font-weight="600" letter-spacing="1" opacity=".6" text-anchor="middle">PEAK FOLIAGE TIMING BY REGION</text><rect width="704" height="4" x="48" y="58" fill="#fff" opacity=".12" rx="2"/><text x="48" y="52" fill="#fff" font-family="system-ui, sans-serif" font-size="10" opacity=".5">Late Sep</text><text x="224" y="52" fill="#fff" font-family="system-ui, sans-serif" font-size="10" opacity=".5" text-anchor="middle">Early Oct</text><text x="400" y="52" fill="#fff" font-family="system-ui, sans-serif" font-size="10" opacity=".5" text-anchor="middle">Mid Oct</text><text x="576" y="52" fill="#fff" font-family="system-ui, sans-serif" font-size="10" opacity=".5" text-anchor="middle">Late Oct</text><text x="752" y="52" fill="#fff" font-family="system-ui, sans-serif" font-size="10" opacity=".5" text-anchor="end">Nov</text><path fill="#fff" d="M224 56h1v8h-1zM400 56h1v8h-1zM576 56h1v8h-1z" opacity=".2"/><circle cx="430" cy="60" r="5" fill="#fff" opacity=".4"/><text x="430" y="76" fill="#fff" font-family="system-ui, sans-serif" font-size="10" font-weight="600" opacity=".5" text-anchor="middle">Oct 12</text><rect width="190" height="44" x="160" y="86" fill="#d95740" stroke="#d95740" stroke-opacity=".4" stroke-width=".5" opacity=".25" rx="8"/><text x="255" y="105" fill="#fff" font-family="system-ui, sans-serif" font-size="12" font-weight="600" text-anchor="middle">New England</text><text x="255" y="121" fill="#fff" font-family="system-ui, sans-serif" font-size="11" opacity=".6" text-anchor="middle">Oct 1-18 -- VT, NH, MA</text><rect width="190" height="44" x="340" y="86" fill="#c4872a" stroke="#c4872a" stroke-opacity=".4" stroke-width=".5" opacity=".25" rx="8"/><text x="435" y="105" fill="#fff" font-family="system-ui, sans-serif" font-size="12" font-weight="600" text-anchor="middle">Mid-Atlantic</text><text x="435" y="121" fill="#fff" font-family="system-ui, sans-serif" font-size="11" opacity=".6" text-anchor="middle">Oct 10-25 -- NY, VA</text><rect width="210" height="44" x="500" y="86" fill="#4a7c5e" stroke="#4a7c5e" stroke-opacity=".4" stroke-width=".5" opacity=".25" rx="8"/><text x="605" y="105" fill="#fff" font-family="system-ui, sans-serif" font-size="12" font-weight="600" text-anchor="middle">Southeast</text><text x="605" y="121" fill="#fff" font-family="system-ui, sans-serif" font-size="11" opacity=".6" text-anchor="middle">Oct 15-30 -- TN, NC, GA</text></svg>