<svg xmlns="http://www.w3.org/2000/svg" fill="none" viewBox="0 0 800 340"><rect width="800" height="340" fill="#f7f6f2" rx="16"/><rect width="800" height="52" fill="#1a6363" rx="16"/><path fill="#1a6363" d="M0 28h800v24H0z"/><text x="400" y="35" fill="#fff" font-family="Georgia, serif" font-size="18" font-weight="600" text-anchor="middle">April 2026 — Your 10-Day Window</text><g fill="#78716c" font-family="system-ui, sans-serif" font-size="11" font-weight="600" text-anchor="middle"><text x="62" y="80">FRI</text><text x="144" y="80">SAT</text><text x="226" y="80">SUN</text><text x="308" y="80">MON</text><text x="390" y="80">TUE</text><text x="472" y="80">WED</text><text x="554" y="80">THU</text><text x="636" y="80">FRI</text><text x="730" y="80">SAT-SUN</text></g><rect width="76" height="88" x="24" y="92" fill="#fef0ed" stroke="#d95740" stroke-width="1.5" rx="12"/><text x="62" y="124" fill="#d95740" font-family="Georgia, serif" font-size="26" font-weight="700" text-anchor="middle">3</text><text x="62" y="146" fill="#d95740" font-family="system-ui, sans-serif" font-size="10" font-weight="600" text-anchor="middle">Good</text><text x="62" y="158" fill="#d95740" font-family="system-ui, sans-serif" font-size="10" font-weight="600" text-anchor="middle">Friday</text><rect width="76" height="88" x="106" y="92" fill="#eeecea" rx="12"/><text x="144" y="124" fill="#78716c" font-family="Georgia, serif" font-size="26" font-weight="700" text-anchor="middle">4</text><text x="144" y="150" fill="#78716c" font-family="system-ui, sans-serif" font-size="10" text-anchor="middle">Weekend</text><rect width="76" height="88" x="188" y="92" fill="#eeecea" stroke="#c6c1b9" rx="12"/><text x="226" y="124" fill="#78716c" font-family="Georgia, serif" font-size="26" font-weight="700" text-anchor="middle">5</text><text x="226" y="146" fill="#78716c" font-family="system-ui, sans-serif" font-size="10" text-anchor="middle">Easter</text><text x="226" y="158" fill="#78716c" font-family="system-ui, sans-serif" font-size="10" text-anchor="middle">Sunday</text><rect width="76" height="88" x="270" y="92" fill="#e8f3f3" stroke="#1a6363" stroke-width="1.5" rx="12"/><text x="308" y="124" fill="#1a6363" font-family="Georgia, serif" font-size="26" font-weight="700" text-anchor="middle">6</text><text x="308" y="150" fill="#1a6363" font-family="system-ui, sans-serif" font-size="11" font-weight="700" text-anchor="middle">PTO 1</text><rect width="76" height="88" x="352" y="92" fill="#e8f3f3" stroke="#1a6363" stroke-width="1.5" rx="12"/><text x="390" y="124" fill="#1a6363" font-family="Georgia, serif" font-size="26" font-weight="700" text-anchor="middle">7</text><text x="390" y="150" fill="#1a6363" font-family="system-ui, sans-serif" font-size="11" font-weight="700" text-anchor="middle">PTO 2</text><rect width="76" height="88" x="434" y="92" fill="#e8f3f3" stroke="#1a6363" stroke-width="1.5" rx="12"/><text x="472" y="124" fill="#1a6363" font-family="Georgia, serif" font-size="26" font-weight="700" text-anchor="middle">8</text><text x="472" y="150" fill="#1a6363" font-family="system-ui, sans-serif" font-size="11" font-weight="700" text-anchor="middle">PTO 3</text><rect width="76" height="88" x="516" y="92" fill="#e8f3f3" stroke="#1a6363" stroke-width="1.5" rx="12"/><text x="554" y="124" fill="#1a6363" font-family="Georgia, serif" font-size="26" font-weight="700" text-anchor="middle">9</text><text x="554" y="150" fill="#1a6363" font-family="system-ui, sans-serif" font-size="11" font-weight="700" text-anchor="middle">PTO 4</text><rect width="76" height="88" x="598" y="92" fill="#f7f6f2" stroke="#e5e2da" stroke-dasharray="5 3" stroke-width="1.5" rx="12"/><text x="636" y="124" fill="#a8a29e" font-family="Georgia, serif" font-size="26" font-weight="700" text-anchor="middle">10</text><text x="636" y="146" fill="#a8a29e" font-family="system-ui, sans-serif" font-size="10" text-anchor="middle">Workday</text><text x="636" y="158" fill="#a8a29e" font-family="system-ui, sans-serif" font-size="10" text-anchor="middle">(or PTO 5)</text><rect width="96" height="88" x="680" y="92" fill="#eeecea" rx="12"/><text x="728" y="124" fill="#78716c" font-family="Georgia, serif" font-size="24" font-weight="700" text-anchor="middle">11-12</text><text x="728" y="150" fill="#78716c" font-family="system-ui, sans-serif" font-size="10" text-anchor="middle">Weekend</text><path fill="#e5e2da" d="M24 200h752v1H24z"/><g fill="#44403c" font-family="system-ui, sans-serif" font-size="12"><rect width="14" height="14" x="40" y="220" fill="#e8f3f3" stroke="#1a6363" rx="4"/><text x="62" y="232">PTO days (4 total)</text><rect width="14" height="14" x="212" y="220" fill="#fef0ed" stroke="#d95740" rx="4"/><text x="234" y="232">Holiday</text><rect width="14" height="14" x="340" y="220" fill="#eeecea" rx="4"/><text x="362" y="232">Weekends</text><rect width="14" height="14" x="468" y="220" fill="#f7f6f2" stroke="#e5e2da" stroke-dasharray="3 2" rx="4"/><text x="490" y="232">Optional PTO</text></g><rect width="752" height="56" x="24" y="256" fill="#1a6363" rx="12"/><text x="400" y="282" fill="#fff" font-family="system-ui, sans-serif" font-size="13" opacity=".75" text-anchor="middle">Use just</text><text x="400" y="300" fill="#fff" font-family="Georgia, serif" font-size="17" font-weight="600" text-anchor="middle">4 PTO days to get 10 consecutive days off — a 2.5x return</text></svg>