<svg xmlns="http://www.w3.org/2000/svg" fill="none" viewBox="0 0 800 260"><rect width="800" height="260" fill="#f7f6f2" rx="16"/><text x="400" y="20" fill="#1c1917" font-family="Georgia, serif" font-size="13" font-weight="700" letter-spacing=".5" text-anchor="middle">2026 HOLIDAY BRIDGE CHEAT SHEET</text><rect width="180" height="202" x="24" y="34" fill="#fff" stroke="#e5e2da" rx="12"/><rect width="180" height="40" x="24" y="34" fill="#e8f3f3" rx="12"/><path fill="#fff" d="M24 62h180v12H24z"/><text x="114" y="60" fill="#1a6363" font-family="Georgia, serif" font-size="13" font-weight="700" text-anchor="middle">Easter Week</text><text x="114" y="80" fill="#78716c" font-family="system-ui, sans-serif" font-size="10" text-anchor="middle">Apr 3 – Apr 12</text><text x="114" y="106" fill="#78716c" font-family="system-ui, sans-serif" font-size="10" text-anchor="middle">PTO days</text><text x="114" y="122" fill="#1c1917" font-family="Georgia, serif" font-size="20" font-weight="700" text-anchor="middle">4</text><path stroke="#e5e2da" d="M54 132h120"/><text x="114" y="150" fill="#78716c" font-family="system-ui, sans-serif" font-size="10" text-anchor="middle">Total days off</text><text x="114" y="166" fill="#1c1917" font-family="Georgia, serif" font-size="20" font-weight="700" text-anchor="middle">10</text><path stroke="#e5e2da" d="M54 176h120"/><rect width="104" height="36" x="62" y="186" fill="#1a6363" opacity=".08" rx="8"/><text x="114" y="200" fill="#1a6363" font-family="system-ui, sans-serif" font-size="10" text-anchor="middle">Efficiency</text><text x="114" y="216" fill="#1a6363" font-family="Georgia, serif" font-size="15" font-weight="700" text-anchor="middle">2.5x</text><rect width="180" height="202" x="218" y="34" fill="#fff" stroke="#e5e2da" rx="12"/><rect width="180" height="40" x="218" y="34" fill="#eef6f1" rx="12"/><path fill="#fff" d="M218 62h180v12H218z"/><text x="308" y="60" fill="#4a7c5e" font-family="Georgia, serif" font-size="13" font-weight="700" text-anchor="middle">Memorial Day</text><text x="308" y="80" fill="#78716c" font-family="system-ui, sans-serif" font-size="10" text-anchor="middle">May 22 – May 25</text><text x="308" y="106" fill="#78716c" font-family="system-ui, sans-serif" font-size="10" text-anchor="middle">PTO days</text><text x="308" y="122" fill="#1c1917" font-family="Georgia, serif" font-size="20" font-weight="700" text-anchor="middle">4</text><path stroke="#e5e2da" d="M248 132h120"/><text x="308" y="150" fill="#78716c" font-family="system-ui, sans-serif" font-size="10" text-anchor="middle">Total days off</text><text x="308" y="166" fill="#1c1917" font-family="Georgia, serif" font-size="20" font-weight="700" text-anchor="middle">9</text><path stroke="#e5e2da" d="M248 176h120"/><rect width="104" height="36" x="256" y="186" fill="#4a7c5e" opacity=".08" rx="8"/><text x="308" y="200" fill="#4a7c5e" font-family="system-ui, sans-serif" font-size="10" text-anchor="middle">Efficiency</text><text x="308" y="216" fill="#4a7c5e" font-family="Georgia, serif" font-size="15" font-weight="700" text-anchor="middle">2.3x</text><rect width="180" height="202" x="412" y="34" fill="#fff" stroke="#e5e2da" rx="12"/><rect width="180" height="40" x="412" y="34" fill="#fef0ed" rx="12"/><path fill="#fff" d="M412 62h180v12H412z"/><text x="502" y="60" fill="#d95740" font-family="Georgia, serif" font-size="13" font-weight="700" text-anchor="middle">Thanksgiving</text><text x="502" y="80" fill="#78716c" font-family="system-ui, sans-serif" font-size="10" text-anchor="middle">Nov 26 – Nov 29</text><text x="502" y="106" fill="#78716c" font-family="system-ui, sans-serif" font-size="10" text-anchor="middle">PTO days</text><text x="502" y="122" fill="#1c1917" font-family="Georgia, serif" font-size="20" font-weight="700" text-anchor="middle">3</text><path stroke="#e5e2da" d="M442 132h120"/><text x="502" y="150" fill="#78716c" font-family="system-ui, sans-serif" font-size="10" text-anchor="middle">Total days off</text><text x="502" y="166" fill="#1c1917" font-family="Georgia, serif" font-size="20" font-weight="700" text-anchor="middle">9</text><path stroke="#e5e2da" d="M442 176h120"/><rect width="104" height="36" x="450" y="186" fill="#d95740" opacity=".08" rx="8"/><text x="502" y="200" fill="#d95740" font-family="system-ui, sans-serif" font-size="10" text-anchor="middle">Efficiency</text><text x="502" y="216" fill="#d95740" font-family="Georgia, serif" font-size="15" font-weight="700" text-anchor="middle">3.0x</text><rect width="170" height="202" x="606" y="34" fill="#fff" stroke="#e5e2da" rx="12"/><rect width="170" height="40" x="606" y="34" fill="#fdf4e7" rx="12"/><path fill="#fff" d="M606 62h170v12H606z"/><text x="691" y="60" fill="#c4872a" font-family="Georgia, serif" font-size="13" font-weight="700" text-anchor="middle">Christmas–NYE</text><text x="691" y="80" fill="#78716c" font-family="system-ui, sans-serif" font-size="10" text-anchor="middle">Dec 24 – Jan 1</text><text x="691" y="106" fill="#78716c" font-family="system-ui, sans-serif" font-size="10" text-anchor="middle">PTO days</text><text x="691" y="122" fill="#1c1917" font-family="Georgia, serif" font-size="20" font-weight="700" text-anchor="middle">3</text><path stroke="#e5e2da" d="M636 132h110"/><text x="691" y="150" fill="#78716c" font-family="system-ui, sans-serif" font-size="10" text-anchor="middle">Total days off</text><text x="691" y="166" fill="#1c1917" font-family="Georgia, serif" font-size="20" font-weight="700" text-anchor="middle">10</text><path stroke="#e5e2da" d="M636 176h110"/><rect width="104" height="36" x="639" y="186" fill="#c4872a" opacity=".08" rx="8"/><text x="691" y="200" fill="#c4872a" font-family="system-ui, sans-serif" font-size="10" text-anchor="middle">Efficiency</text><text x="691" y="216" fill="#c4872a" font-family="Georgia, serif" font-size="15" font-weight="700" text-anchor="middle">3.3x</text></svg>