<svg xmlns="http://www.w3.org/2000/svg" viewBox="0 0 800 220" fill="none">
  <rect width="800" height="220" rx="16" fill="#F7F6F2"/>

  <!-- National Parks -->
  <rect x="24" y="24" width="176" height="172" rx="12" fill="#FFF" stroke="#E5E2DA" stroke-width="1"/>
  <rect x="24" y="24" width="176" height="56" rx="12" fill="#EEF6F1"/>
  <rect x="24" y="68" width="176" height="12" fill="#FFF"/>
  <g transform="translate(112,28)">
    <path d="M-18 38L-3 10L0 16L3 10L18 38Z" fill="#4A7C5E" opacity="0.4"/>
    <path d="M-10 38L0 18L10 38Z" fill="#4A7C5E" opacity="0.3"/>
    <path d="M-3 10L-1 15L0 13L1 15L3 10L1.5 14L0 12L-1.5 14Z" fill="#FFF" opacity="0.6"/>
  </g>
  <text x="112" y="100" text-anchor="middle" font-family="Georgia, serif" font-size="14" font-weight="700" fill="#1C1917">National Parks</text>
  <text x="112" y="118" text-anchor="middle" font-family="system-ui, sans-serif" font-size="11" fill="#78716C">Yellowstone + Grand Teton</text>
  <text x="112" y="134" text-anchor="middle" font-family="system-ui, sans-serif" font-size="11" fill="#78716C">PCH road trip, 9 days</text>
  <rect x="56" y="152" width="112" height="26" rx="6" fill="#4A7C5E" opacity="0.07"/>
  <text x="112" y="169" text-anchor="middle" font-family="system-ui, sans-serif" font-size="11" font-weight="600" fill="#4A7C5E">Classic summer</text>

  <!-- Alaska -->
  <rect x="216" y="24" width="176" height="172" rx="12" fill="#FFF" stroke="#E5E2DA" stroke-width="1"/>
  <rect x="216" y="24" width="176" height="56" rx="12" fill="#E8F3F3"/>
  <rect x="216" y="68" width="176" height="12" fill="#FFF"/>
  <g transform="translate(304,34)">
    <path d="M-14 16L0-8L14 16Z" fill="#1A6363" opacity="0.35"/>
    <path d="M-8 16L0 0L8 16Z" fill="#1A6363" opacity="0.45"/>
    <rect x="-16" y="14" width="32" height="4" rx="2" fill="#1A6363" opacity="0.3"/>
  </g>
  <text x="304" y="100" text-anchor="middle" font-family="Georgia, serif" font-size="15" font-weight="700" fill="#1C1917">Alaska</text>
  <text x="304" y="118" text-anchor="middle" font-family="system-ui, sans-serif" font-size="11" fill="#78716C">18+ hrs daylight, wildlife</text>
  <text x="304" y="134" text-anchor="middle" font-family="system-ui, sans-serif" font-size="11" fill="#78716C">July is the ideal month</text>
  <rect x="248" y="152" width="112" height="26" rx="6" fill="#1A6363" opacity="0.07"/>
  <text x="304" y="169" text-anchor="middle" font-family="system-ui, sans-serif" font-size="11" font-weight="600" fill="#1A6363">Peak season</text>

  <!-- Iceland -->
  <rect x="408" y="24" width="176" height="172" rx="12" fill="#FFF" stroke="#E5E2DA" stroke-width="1"/>
  <rect x="408" y="24" width="176" height="56" rx="12" fill="#FDF4E7"/>
  <rect x="408" y="68" width="176" height="12" fill="#FFF"/>
  <g transform="translate(496,34)">
    <circle r="10" fill="#C4872A" opacity="0.4"/>
    <line x1="-14" y1="0" x2="-10" y2="0" stroke="#C4872A" stroke-width="1.5" opacity="0.4"/>
    <line x1="10" y1="0" x2="14" y2="0" stroke="#C4872A" stroke-width="1.5" opacity="0.4"/>
    <line x1="0" y1="-14" x2="0" y2="-10" stroke="#C4872A" stroke-width="1.5" opacity="0.4"/>
    <line x1="0" y1="10" x2="0" y2="14" stroke="#C4872A" stroke-width="1.5" opacity="0.4"/>
  </g>
  <text x="496" y="100" text-anchor="middle" font-family="Georgia, serif" font-size="15" font-weight="700" fill="#1C1917">Iceland</text>
  <text x="496" y="118" text-anchor="middle" font-family="system-ui, sans-serif" font-size="11" fill="#78716C">Midnight sun, 55-60F</text>
  <text x="496" y="134" text-anchor="middle" font-family="system-ui, sans-serif" font-size="11" fill="#78716C">Full Ring Road in 9 days</text>
  <rect x="440" y="152" width="112" height="26" rx="6" fill="#C4872A" opacity="0.07"/>
  <text x="496" y="169" text-anchor="middle" font-family="system-ui, sans-serif" font-size="11" font-weight="600" fill="#C4872A">24-hr daylight</text>

  <!-- Croatia -->
  <rect x="600" y="24" width="176" height="172" rx="12" fill="#FFF" stroke="#E5E2DA" stroke-width="1"/>
  <rect x="600" y="24" width="176" height="56" rx="12" fill="#FEF0ED"/>
  <rect x="600" y="68" width="176" height="12" fill="#FFF"/>
  <g transform="translate(688,34)">
    <path d="M-14 10C-14 2-8-4 0-4C8-4 14 2 14 10" fill="none" stroke="#D95740" stroke-width="2" opacity="0.45"/>
    <path d="M-16 12C-12 8-8 12-4 8C0 4 4 8 8 4C12 0 16 4 16 4" stroke="#D95740" stroke-width="1.5" opacity="0.35" fill="none"/>
    <path d="M-16 18C-12 14-8 18-4 14C0 10 4 14 8 10C12 6 16 10 16 10" stroke="#D95740" stroke-width="1.5" opacity="0.35" fill="none"/>
  </g>
  <text x="688" y="100" text-anchor="middle" font-family="Georgia, serif" font-size="15" font-weight="700" fill="#1C1917">Croatia</text>
  <text x="688" y="118" text-anchor="middle" font-family="system-ui, sans-serif" font-size="11" fill="#78716C">Dubrovnik, Split, islands</text>
  <text x="688" y="134" text-anchor="middle" font-family="system-ui, sans-serif" font-size="11" fill="#78716C">Less crowded than Aug</text>
  <rect x="632" y="152" width="112" height="26" rx="6" fill="#D95740" opacity="0.07"/>
  <text x="688" y="169" text-anchor="middle" font-family="system-ui, sans-serif" font-size="11" font-weight="600" fill="#D95740">Early summer</text>
</svg>