<svg xmlns="http://www.w3.org/2000/svg" fill="none" viewBox="0 0 800 220"><rect width="800" height="220" fill="#f7f6f2" rx="16"/><rect width="176" height="172" x="24" y="24" fill="#fff" stroke="#e5e2da" rx="12"/><rect width="176" height="56" x="24" y="24" fill="#eef6f1" rx="12"/><path fill="#fff" d="M24 68h176v12H24z"/><path fill="#4a7c5e" d="m94 66 15-28 3 6 3-6 15 28Z" opacity=".4"/><path fill="#4a7c5e" d="m102 66 10-20 10 20Z" opacity=".3"/><path fill="#fff" d="m109 38 2 5 1-2 1 2 2-5-1.5 4-1.5-2-1.5 2Z" opacity=".6"/><text x="112" y="100" fill="#1c1917" font-family="Georgia, serif" font-size="14" font-weight="700" text-anchor="middle">National Parks</text><text x="112" y="118" fill="#78716c" font-family="system-ui, sans-serif" font-size="11" text-anchor="middle">Yellowstone + Grand Teton</text><text x="112" y="134" fill="#78716c" font-family="system-ui, sans-serif" font-size="11" text-anchor="middle">PCH road trip, 9 days</text><rect width="112" height="26" x="56" y="152" fill="#4a7c5e" opacity=".07" rx="6"/><text x="112" y="169" fill="#4a7c5e" font-family="system-ui, sans-serif" font-size="11" font-weight="600" text-anchor="middle">Classic summer</text><rect width="176" height="172" x="216" y="24" fill="#fff" stroke="#e5e2da" rx="12"/><rect width="176" height="56" x="216" y="24" fill="#e8f3f3" rx="12"/><path fill="#fff" d="M216 68h176v12H216z"/><g fill="#1a6363" transform="translate(304 34)"><path d="M-14 16 0-8l14 24Z" opacity=".35"/><path d="M-8 16 0 0l8 16Z" opacity=".45"/><rect width="32" height="4" x="-16" y="14" opacity=".3" rx="2"/></g><text x="304" y="100" fill="#1c1917" font-family="Georgia, serif" font-size="15" font-weight="700" text-anchor="middle">Alaska</text><text x="304" y="118" fill="#78716c" font-family="system-ui, sans-serif" font-size="11" text-anchor="middle">18+ hrs daylight, wildlife</text><text x="304" y="134" fill="#78716c" font-family="system-ui, sans-serif" font-size="11" text-anchor="middle">July is the ideal month</text><rect width="112" height="26" x="248" y="152" fill="#1a6363" opacity=".07" rx="6"/><text x="304" y="169" fill="#1a6363" font-family="system-ui, sans-serif" font-size="11" font-weight="600" text-anchor="middle">Peak season</text><rect width="176" height="172" x="408" y="24" fill="#fff" stroke="#e5e2da" rx="12"/><rect width="176" height="56" x="408" y="24" fill="#fdf4e7" rx="12"/><path fill="#fff" d="M408 68h176v12H408z"/><g transform="translate(496 34)"><circle r="10" fill="#c4872a" opacity=".4"/><path stroke="#c4872a" stroke-width="1.5" d="M-14 0h4M10 0h4M0-14v4M0 10v4" opacity=".4"/></g><text x="496" y="100" fill="#1c1917" font-family="Georgia, serif" font-size="15" font-weight="700" text-anchor="middle">Iceland</text><text x="496" y="118" fill="#78716c" font-family="system-ui, sans-serif" font-size="11" text-anchor="middle">Midnight sun, 55-60F</text><text x="496" y="134" fill="#78716c" font-family="system-ui, sans-serif" font-size="11" text-anchor="middle">Full Ring Road in 9 days</text><rect width="112" height="26" x="440" y="152" fill="#c4872a" opacity=".07" rx="6"/><text x="496" y="169" fill="#c4872a" font-family="system-ui, sans-serif" font-size="11" font-weight="600" text-anchor="middle">24-hr daylight</text><rect width="176" height="172" x="600" y="24" fill="#fff" stroke="#e5e2da" rx="12"/><rect width="176" height="56" x="600" y="24" fill="#fef0ed" rx="12"/><path fill="#fff" d="M600 68h176v12H600z"/><g stroke="#d95740"><path stroke-width="2" d="M674 44c0-8 6-14 14-14s14 6 14 14" opacity=".45"/><path stroke-width="1.5" d="M672 46c4-4 8 0 12-4s8 0 12-4 8 0 8 0M672 52c4-4 8 0 12-4s8 0 12-4 8 0 8 0" opacity=".35"/></g><text x="688" y="100" fill="#1c1917" font-family="Georgia, serif" font-size="15" font-weight="700" text-anchor="middle">Croatia</text><text x="688" y="118" fill="#78716c" font-family="system-ui, sans-serif" font-size="11" text-anchor="middle">Dubrovnik, Split, islands</text><text x="688" y="134" fill="#78716c" font-family="system-ui, sans-serif" font-size="11" text-anchor="middle">Less crowded than Aug</text><rect width="112" height="26" x="632" y="152" fill="#d95740" opacity=".07" rx="6"/><text x="688" y="169" fill="#d95740" font-family="system-ui, sans-serif" font-size="11" font-weight="600" text-anchor="middle">Early summer</text></svg>