<svg xmlns="http://www.w3.org/2000/svg" fill="none" viewBox="0 0 800 160"><rect width="800" height="160" fill="#1a6363" rx="16"/><text x="400" y="30" fill="#fff" font-family="system-ui, sans-serif" font-size="11" font-weight="600" letter-spacing="1" opacity=".6" text-anchor="middle">FLIGHT PRICING CURVE</text><rect width="704" height="4" x="48" y="58" fill="#fff" opacity=".12" rx="2"/><rect width="300" height="10" x="48" y="55" fill="#4a7c5e" opacity=".35" rx="5"/><text x="48" y="50" fill="#fff" font-family="system-ui, sans-serif" font-size="10" opacity=".5">May</text><text x="224" y="50" fill="#fff" font-family="system-ui, sans-serif" font-size="10" opacity=".5" text-anchor="middle">Early Jun</text><text x="400" y="50" fill="#fff" font-family="system-ui, sans-serif" font-size="10" opacity=".5" text-anchor="middle">Mid Jun</text><text x="576" y="50" fill="#fff" font-family="system-ui, sans-serif" font-size="10" opacity=".5" text-anchor="middle">Late Jun</text><text x="752" y="50" fill="#fff" font-family="system-ui, sans-serif" font-size="10" opacity=".5" text-anchor="end">July</text><path fill="#fff" d="M224 56h1v8h-1zM400 56h1v8h-1zM576 56h1v8h-1z" opacity=".2"/><circle cx="310" cy="60" r="7" fill="#d95740"/><circle cx="310" cy="60" r="3" fill="#fff"/><text x="310" y="79" fill="#fff" font-family="system-ui, sans-serif" font-size="10" font-weight="700" text-anchor="middle">BOOK BY</text><g fill="#fff" font-family="system-ui, sans-serif"><rect width="140" height="44" x="56" y="90" fill="#4a7c5e" stroke="#4a7c5e" stroke-opacity=".4" stroke-width=".5" opacity=".2" rx="8"/><text x="126" y="110" font-size="12" font-weight="600" text-anchor="middle">May</text><text x="126" y="126" font-size="11" opacity=".6" text-anchor="middle">Baseline price</text><rect width="160" height="44" x="212" y="90" stroke="#fff" stroke-opacity=".2" stroke-width=".5" opacity=".08" rx="8"/><text x="292" y="110" font-size="12" font-weight="600" text-anchor="middle">June</text><text x="292" y="126" font-size="11" opacity=".6" text-anchor="middle">+15-25% above baseline</text><rect width="170" height="44" x="388" y="90" fill="#c4872a" stroke="#c4872a" stroke-opacity=".4" stroke-width=".5" opacity=".2" rx="8"/><text x="473" y="110" font-size="12" font-weight="600" text-anchor="middle">Late June</text><text x="473" y="126" font-size="11" opacity=".6" text-anchor="middle">+40-60% surge zone</text><rect width="178" height="44" x="574" y="90" fill="#d95740" stroke="#d95740" stroke-opacity=".4" stroke-width=".5" opacity=".2" rx="8"/><text x="663" y="110" font-size="12" font-weight="600" text-anchor="middle">July 4th week</text><text x="663" y="126" font-size="11" opacity=".6" text-anchor="middle">+50-80% peak pricing</text></g></svg>