<svg xmlns="http://www.w3.org/2000/svg" viewBox="0 0 800 220" fill="none">
  <rect width="800" height="220" rx="16" fill="#F7F6F2"/>

  <!-- 유럽 크리스마스 마켓 -->
  <rect x="24" y="24" width="176" height="172" rx="12" fill="#FFF" stroke="#E5E2DA" stroke-width="1"/>
  <rect x="24" y="24" width="176" height="56" rx="12" fill="#E8F3F3"/>
  <rect x="24" y="68" width="176" height="12" fill="#FFF"/>
  <g transform="translate(112,30)">
    <path d="M0 42L-10 42L-3 16L-7 16L0 0L7 16L3 16L10 42Z" fill="#1A6363" opacity="0.45"/>
    <rect x="-12" y="40" width="24" height="3" rx="1" fill="#1A6363" opacity="0.45"/>
  </g>
  <text x="112" y="100" text-anchor="middle" font-family="Georgia, serif" font-size="15" font-weight="700" fill="#1C1917">유럽</text>
  <text x="112" y="118" text-anchor="middle" font-family="system-ui, sans-serif" font-size="11" fill="#78716C">크리스마스 마켓 최고</text>
  <text x="112" y="134" text-anchor="middle" font-family="system-ui, sans-serif" font-size="11" fill="#78716C">독일·오스트리아·프라하</text>
  <rect x="56" y="152" width="112" height="26" rx="6" fill="#1A6363" opacity="0.07"/>
  <text x="112" y="169" text-anchor="middle" font-family="system-ui, sans-serif" font-size="11" font-weight="600" fill="#1A6363">마켓 시즌</text>

  <!-- 동남아 -->
  <rect x="216" y="24" width="176" height="172" rx="12" fill="#FFF" stroke="#E5E2DA" stroke-width="1"/>
  <rect x="216" y="24" width="176" height="56" rx="12" fill="#EEF6F1"/>
  <rect x="216" y="68" width="176" height="12" fill="#FFF"/>
  <g transform="translate(304,28)">
    <rect x="-1" y="18" width="3" height="28" rx="1" fill="#4A7C5E" opacity="0.5"/>
    <path d="M0 20C-7 11-19 13-15 18C-12 14-5 14 0 20Z" fill="#4A7C5E" opacity="0.4"/>
    <path d="M0 20C7 11 19 13 15 18C12 14 5 14 0 20Z" fill="#4A7C5E" opacity="0.4"/>
    <path d="M0 18C-3 8-14 6-12 12C-9 9-3 10 0 18Z" fill="#4A7C5E" opacity="0.35"/>
    <path d="M0 18C3 8 14 6 12 12C9 9 3 10 0 18Z" fill="#4A7C5E" opacity="0.35"/>
  </g>
  <text x="304" y="100" text-anchor="middle" font-family="Georgia, serif" font-size="15" font-weight="700" fill="#1C1917">동남아</text>
  <text x="304" y="118" text-anchor="middle" font-family="system-ui, sans-serif" font-size="11" fill="#78716C">건기 절정, 25~32°C</text>
  <text x="304" y="134" text-anchor="middle" font-family="system-ui, sans-serif" font-size="11" fill="#78716C">방콕·발리·크라비</text>
  <rect x="248" y="152" width="112" height="26" rx="6" fill="#4A7C5E" opacity="0.07"/>
  <text x="304" y="169" text-anchor="middle" font-family="system-ui, sans-serif" font-size="11" font-weight="600" fill="#4A7C5E">최적 날씨</text>

  <!-- 하와이·호주 -->
  <rect x="408" y="24" width="176" height="172" rx="12" fill="#FFF" stroke="#E5E2DA" stroke-width="1"/>
  <rect x="408" y="24" width="176" height="56" rx="12" fill="#FEF0ED"/>
  <rect x="408" y="68" width="176" height="12" fill="#FFF"/>
  <g transform="translate(496,49)">
    <circle cy="-9" r="4.5" fill="#F2A897" opacity="0.6"/>
    <circle cx="8.5" cy="-2.5" r="4.5" fill="#F2A897" opacity="0.5"/>
    <circle cx="5.3" cy="7" r="4.5" fill="#F2A897" opacity="0.6"/>
    <circle cx="-5.3" cy="7" r="4.5" fill="#F2A897" opacity="0.5"/>
    <circle cx="-8.5" cy="-2.5" r="4.5" fill="#F2A897" opacity="0.6"/>
    <circle r="3.5" fill="#D95740" opacity="0.35"/>
  </g>
  <text x="496" y="100" text-anchor="middle" font-family="Georgia, serif" font-size="15" font-weight="700" fill="#1C1917">하와이·호주</text>
  <text x="496" y="118" text-anchor="middle" font-family="system-ui, sans-serif" font-size="11" fill="#78716C">겨울 탈출 최적지</text>
  <text x="496" y="134" text-anchor="middle" font-family="system-ui, sans-serif" font-size="11" fill="#78716C">시드니 새해 불꽃놀이</text>
  <rect x="440" y="152" width="112" height="26" rx="6" fill="#D95740" opacity="0.07"/>
  <text x="496" y="169" text-anchor="middle" font-family="system-ui, sans-serif" font-size="11" font-weight="600" fill="#D95740">성수기</text>

  <!-- 국내 -->
  <rect x="600" y="24" width="176" height="172" rx="12" fill="#FFF" stroke="#E5E2DA" stroke-width="1"/>
  <rect x="600" y="24" width="176" height="56" rx="12" fill="#FDF4E7"/>
  <rect x="600" y="68" width="176" height="12" fill="#FFF"/>
  <g transform="translate(688,28)">
    <path d="M-18 38L-3 10L0 16L3 10L18 38Z" fill="#C4872A" opacity="0.4"/>
    <path d="M-10 38L0 18L10 38Z" fill="#C4872A" opacity="0.3"/>
    <path d="M-3 10L-1 15L0 13L1 15L3 10L1.5 14L0 12L-1.5 14Z" fill="#FFF" opacity="0.6"/>
  </g>
  <text x="688" y="100" text-anchor="middle" font-family="Georgia, serif" font-size="15" font-weight="700" fill="#1C1917">강원도·부산</text>
  <text x="688" y="118" text-anchor="middle" font-family="system-ui, sans-serif" font-size="11" fill="#78716C">스키 + 온천 로맨틱</text>
  <text x="688" y="134" text-anchor="middle" font-family="system-ui, sans-serif" font-size="11" fill="#78716C">겨울 해운대·용평</text>
  <rect x="632" y="152" width="112" height="26" rx="6" fill="#C4872A" opacity="0.07"/>
  <text x="688" y="169" text-anchor="middle" font-family="system-ui, sans-serif" font-size="11" font-weight="600" fill="#C4872A">가성비 좋음</text>
</svg>