<svg xmlns="http://www.w3.org/2000/svg" fill="none" viewBox="0 0 800 340"><rect width="800" height="340" fill="#f7f6f2" rx="16"/><rect width="800" height="52" fill="#1a6363" rx="16"/><path fill="#1a6363" d="M0 28h800v24H0z"/><text x="400" y="35" fill="#fff" font-family="Georgia, serif" font-size="18" font-weight="600" text-anchor="middle">2026년 연말 — 크리스마스·신정 연차 전략</text><g fill="#78716c" font-family="system-ui, sans-serif" font-size="11" font-weight="600" text-anchor="middle"><text x="44" y="80">목</text><text x="118" y="80">금</text><text x="192" y="80">토</text><text x="266" y="80">일</text><text x="340" y="80">월</text><text x="414" y="80">화</text><text x="488" y="80">수</text><text x="562" y="80">목</text><text x="636" y="80">금</text><text x="722" y="80">토-일</text></g><rect width="60" height="88" x="14" y="92" fill="#fff" stroke="#e5e2da" rx="12"/><text x="44" y="122" fill="#78716c" font-family="Georgia, serif" font-size="22" font-weight="700" text-anchor="middle">24</text><text x="44" y="142" fill="#78716c" font-family="system-ui, sans-serif" font-size="10" text-anchor="middle">12월</text><text x="44" y="154" fill="#78716c" font-family="system-ui, sans-serif" font-size="10" text-anchor="middle">이브</text><rect width="72" height="88" x="82" y="92" fill="#fef0ed" stroke="#d95740" stroke-width="1.5" rx="12"/><text x="118" y="122" fill="#d95740" font-family="Georgia, serif" font-size="22" font-weight="700" text-anchor="middle">25</text><text x="118" y="142" fill="#d95740" font-family="system-ui, sans-serif" font-size="10" font-weight="600" text-anchor="middle">크리스</text><text x="118" y="154" fill="#d95740" font-family="system-ui, sans-serif" font-size="10" font-weight="600" text-anchor="middle">마스</text><rect width="64" height="88" x="160" y="92" fill="#eeecea" rx="12"/><text x="192" y="124" fill="#78716c" font-family="Georgia, serif" font-size="22" font-weight="700" text-anchor="middle">26</text><text x="192" y="150" fill="#78716c" font-family="system-ui, sans-serif" font-size="10" text-anchor="middle">주말</text><rect width="64" height="88" x="230" y="92" fill="#eeecea" rx="12"/><text x="262" y="124" fill="#78716c" font-family="Georgia, serif" font-size="22" font-weight="700" text-anchor="middle">27</text><text x="262" y="150" fill="#78716c" font-family="system-ui, sans-serif" font-size="10" text-anchor="middle">주말</text><rect width="72" height="88" x="300" y="92" fill="#f7f6f2" stroke="#e5e2da" stroke-dasharray="5 3" stroke-width="1.5" rx="12"/><text x="336" y="124" fill="#a8a29e" font-family="Georgia, serif" font-size="22" font-weight="700" text-anchor="middle">28</text><text x="336" y="144" fill="#a8a29e" font-family="system-ui, sans-serif" font-size="10" text-anchor="middle">평일</text><text x="336" y="156" fill="#a8a29e" font-family="system-ui, sans-serif" font-size="10" text-anchor="middle">(연차 시 확장)</text><rect width="72" height="88" x="378" y="92" fill="#e8f3f3" stroke="#1a6363" stroke-width="1.5" rx="12"/><text x="414" y="124" fill="#1a6363" font-family="Georgia, serif" font-size="22" font-weight="700" text-anchor="middle">29</text><text x="414" y="150" fill="#1a6363" font-family="system-ui, sans-serif" font-size="11" font-weight="700" text-anchor="middle">연차 1</text><rect width="72" height="88" x="452" y="92" fill="#e8f3f3" stroke="#1a6363" stroke-width="1.5" rx="12"/><text x="488" y="124" fill="#1a6363" font-family="Georgia, serif" font-size="22" font-weight="700" text-anchor="middle">30</text><text x="488" y="150" fill="#1a6363" font-family="system-ui, sans-serif" font-size="11" font-weight="700" text-anchor="middle">연차 2</text><rect width="64" height="88" x="530" y="92" fill="#e8f3f3" stroke="#1a6363" stroke-width="1.5" rx="12"/><text x="562" y="124" fill="#1a6363" font-family="Georgia, serif" font-size="22" font-weight="700" text-anchor="middle">31</text><text x="562" y="150" fill="#1a6363" font-family="system-ui, sans-serif" font-size="11" font-weight="700" text-anchor="middle">연차 3</text><rect width="72" height="88" x="600" y="92" fill="#fef0ed" stroke="#d95740" stroke-width="1.5" rx="12"/><text x="636" y="122" fill="#d95740" font-family="Georgia, serif" font-size="22" font-weight="700" text-anchor="middle">1</text><text x="636" y="142" fill="#d95740" font-family="system-ui, sans-serif" font-size="10" font-weight="600" text-anchor="middle">1월</text><text x="636" y="154" fill="#d95740" font-family="system-ui, sans-serif" font-size="10" font-weight="600" text-anchor="middle">신정</text><rect width="96" height="88" x="680" y="92" fill="#eeecea" rx="12"/><text x="728" y="124" fill="#78716c" font-family="Georgia, serif" font-size="20" font-weight="700" text-anchor="middle">2-3</text><text x="728" y="150" fill="#78716c" font-family="system-ui, sans-serif" font-size="10" text-anchor="middle">주말</text><path fill="#e5e2da" d="M24 200h752v1H24z"/><g fill="#44403c" font-family="system-ui, sans-serif" font-size="12"><rect width="14" height="14" x="40" y="220" fill="#e8f3f3" stroke="#1a6363" rx="4"/><text x="62" y="232">연차 (3일)</text><rect width="14" height="14" x="170" y="220" fill="#fef0ed" stroke="#d95740" rx="4"/><text x="192" y="232">공휴일</text><rect width="14" height="14" x="280" y="220" fill="#eeecea" rx="4"/><text x="302" y="232">주말</text><rect width="14" height="14" x="370" y="220" fill="#f7f6f2" stroke="#e5e2da" stroke-dasharray="3 2" rx="4"/><text x="392" y="232">선택 연차</text></g><rect width="752" height="56" x="24" y="256" fill="#1a6363" rx="12"/><text x="400" y="282" fill="#fff" font-family="system-ui, sans-serif" font-size="13" opacity=".75" text-anchor="middle">연차 단 3일로</text><text x="400" y="300" fill="#fff" font-family="Georgia, serif" font-size="17" font-weight="600" text-anchor="middle">10일 연속 연말 휴가 — 3.3배 효율</text></svg>