<svg xmlns="http://www.w3.org/2000/svg" viewBox="0 0 800 340" fill="none">
  <rect width="800" height="340" rx="16" fill="#F7F6F2"/>
  <rect y="0" width="800" height="52" rx="16" fill="#1A6363"/>
  <rect y="28" width="800" height="24" fill="#1A6363"/>
  <text x="400" y="35" text-anchor="middle" font-family="Georgia, serif" font-size="18" font-weight="600" fill="#FFF">2026년 추석 황금연휴 — 연차 배치도</text>

  <!-- Day headers: 9/19 Sat through 9/28 Mon = 10 days -->
  <g font-family="system-ui, sans-serif" font-size="10" font-weight="600" fill="#78716C" text-anchor="middle">
    <text x="62" y="78">토 19</text>
    <text x="138" y="78">일 20</text>
    <text x="214" y="78">월 21</text>
    <text x="290" y="78">화 22</text>
    <text x="366" y="78">수 23</text>
    <text x="442" y="78">목 24</text>
    <text x="518" y="78">금 25</text>
    <text x="594" y="78">토 26</text>
    <text x="670" y="78">일 27</text>
    <text x="746" y="78">월 28</text>
  </g>

  <!-- 9/19 Sat — Weekend -->
  <rect x="24" y="88" width="68" height="78" rx="10" fill="#EEECEA"/>
  <text x="58" y="122" text-anchor="middle" font-family="Georgia, serif" font-size="20" font-weight="700" fill="#78716C">19</text>
  <text x="58" y="142" text-anchor="middle" font-family="system-ui, sans-serif" font-size="10" fill="#78716C">주말</text>

  <!-- 9/20 Sun — Weekend -->
  <rect x="100" y="88" width="68" height="78" rx="10" fill="#EEECEA"/>
  <text x="134" y="122" text-anchor="middle" font-family="Georgia, serif" font-size="20" font-weight="700" fill="#78716C">20</text>
  <text x="134" y="142" text-anchor="middle" font-family="system-ui, sans-serif" font-size="10" fill="#78716C">주말</text>

  <!-- 9/21 Mon — PTO -->
  <rect x="176" y="88" width="68" height="78" rx="10" fill="#E8F3F3" stroke="#1A6363" stroke-width="1.5"/>
  <text x="210" y="122" text-anchor="middle" font-family="Georgia, serif" font-size="20" font-weight="700" fill="#1A6363">21</text>
  <text x="210" y="142" text-anchor="middle" font-family="system-ui, sans-serif" font-size="10" font-weight="700" fill="#1A6363">연차</text>

  <!-- 9/22 Tue — PTO -->
  <rect x="252" y="88" width="68" height="78" rx="10" fill="#E8F3F3" stroke="#1A6363" stroke-width="1.5"/>
  <text x="286" y="122" text-anchor="middle" font-family="Georgia, serif" font-size="20" font-weight="700" fill="#1A6363">22</text>
  <text x="286" y="142" text-anchor="middle" font-family="system-ui, sans-serif" font-size="10" font-weight="700" fill="#1A6363">연차</text>

  <!-- 9/23 Wed — PTO -->
  <rect x="328" y="88" width="68" height="78" rx="10" fill="#E8F3F3" stroke="#1A6363" stroke-width="1.5"/>
  <text x="362" y="122" text-anchor="middle" font-family="Georgia, serif" font-size="20" font-weight="700" fill="#1A6363">23</text>
  <text x="362" y="142" text-anchor="middle" font-family="system-ui, sans-serif" font-size="10" font-weight="700" fill="#1A6363">연차</text>

  <!-- 9/24 Thu — Chuseok Holiday -->
  <rect x="404" y="88" width="68" height="78" rx="10" fill="#FEF0ED" stroke="#D95740" stroke-width="1.5"/>
  <text x="438" y="118" text-anchor="middle" font-family="Georgia, serif" font-size="20" font-weight="700" fill="#D95740">24</text>
  <text x="438" y="136" text-anchor="middle" font-family="system-ui, sans-serif" font-size="10" font-weight="600" fill="#D95740">추석</text>
  <text x="438" y="148" text-anchor="middle" font-family="system-ui, sans-serif" font-size="10" font-weight="600" fill="#D95740">연휴</text>

  <!-- 9/25 Fri — Chuseok -->
  <rect x="480" y="88" width="68" height="78" rx="10" fill="#FEF0ED" stroke="#D95740" stroke-width="1.5"/>
  <text x="514" y="118" text-anchor="middle" font-family="Georgia, serif" font-size="20" font-weight="700" fill="#D95740">25</text>
  <text x="514" y="140" text-anchor="middle" font-family="system-ui, sans-serif" font-size="10" font-weight="600" fill="#D95740">추석</text>

  <!-- 9/26 Sat — Chuseok Holiday -->
  <rect x="556" y="88" width="68" height="78" rx="10" fill="#FEF0ED" stroke="#D95740" stroke-width="1.5"/>
  <text x="590" y="118" text-anchor="middle" font-family="Georgia, serif" font-size="20" font-weight="700" fill="#D95740">26</text>
  <text x="590" y="136" text-anchor="middle" font-family="system-ui, sans-serif" font-size="10" font-weight="600" fill="#D95740">추석</text>
  <text x="590" y="148" text-anchor="middle" font-family="system-ui, sans-serif" font-size="10" font-weight="600" fill="#D95740">연휴</text>

  <!-- 9/27 Sun — Weekend -->
  <rect x="632" y="88" width="68" height="78" rx="10" fill="#EEECEA"/>
  <text x="666" y="122" text-anchor="middle" font-family="Georgia, serif" font-size="20" font-weight="700" fill="#78716C">27</text>
  <text x="666" y="142" text-anchor="middle" font-family="system-ui, sans-serif" font-size="10" fill="#78716C">주말</text>

  <!-- 9/28 Mon — Substitute Holiday -->
  <rect x="708" y="88" width="68" height="78" rx="10" fill="#EEF6F1" stroke="#4A7C5E" stroke-width="1.5"/>
  <text x="742" y="118" text-anchor="middle" font-family="Georgia, serif" font-size="20" font-weight="700" fill="#4A7C5E">28</text>
  <text x="742" y="140" text-anchor="middle" font-family="system-ui, sans-serif" font-size="10" font-weight="600" fill="#4A7C5E">대체휴일</text>

  <!-- Connecting bracket -->
  <line x1="24" y1="176" x2="776" y2="176" stroke="#1A6363" stroke-width="2" stroke-dasharray="4 3" opacity="0.4"/>
  <text x="400" y="196" text-anchor="middle" font-family="system-ui, sans-serif" font-size="12" font-weight="700" fill="#1A6363">연차 3일 → 10일 연속</text>

  <!-- Divider -->
  <rect x="24" y="210" width="752" height="1" fill="#E5E2DA"/>

  <!-- Legend -->
  <g font-family="system-ui, sans-serif" font-size="11" fill="#44403C">
    <rect x="40" y="226" width="14" height="14" rx="4" fill="#E8F3F3" stroke="#1A6363" stroke-width="1"/>
    <text x="62" y="238">연차 (3일)</text>
    <rect x="170" y="226" width="14" height="14" rx="4" fill="#FEF0ED" stroke="#D95740" stroke-width="1"/>
    <text x="192" y="238">추석 연휴</text>
    <rect x="290" y="226" width="14" height="14" rx="4" fill="#EEF6F1" stroke="#4A7C5E" stroke-width="1"/>
    <text x="312" y="238">대체공휴일</text>
    <rect x="420" y="226" width="14" height="14" rx="4" fill="#EEECEA"/>
    <text x="442" y="238">주말</text>
  </g>

  <!-- Result callout -->
  <rect x="24" y="260" width="752" height="56" rx="12" fill="#1A6363"/>
  <text x="400" y="284" text-anchor="middle" font-family="system-ui, sans-serif" font-size="13" fill="white" opacity="0.75">연차 단 3일로</text>
  <text x="400" y="304" text-anchor="middle" font-family="Georgia, serif" font-size="17" font-weight="600" fill="#FFF">9월 19일~28일, 10일 연속 황금연휴</text>
</svg>