<svg xmlns="http://www.w3.org/2000/svg" fill="none" viewBox="0 0 800 340"><rect width="800" height="340" fill="#f7f6f2" rx="16"/><rect width="800" height="52" fill="#1a6363" rx="16"/><path fill="#1a6363" d="M0 28h800v24H0z"/><text x="400" y="35" fill="#fff" font-family="Georgia, serif" font-size="18" font-weight="600" text-anchor="middle">2026년 추석 황금연휴 — 연차 배치도</text><g fill="#78716c" font-family="system-ui, sans-serif" font-size="10" font-weight="600" text-anchor="middle"><text x="62" y="78">토 19</text><text x="138" y="78">일 20</text><text x="214" y="78">월 21</text><text x="290" y="78">화 22</text><text x="366" y="78">수 23</text><text x="442" y="78">목 24</text><text x="518" y="78">금 25</text><text x="594" y="78">토 26</text><text x="670" y="78">일 27</text><text x="746" y="78">월 28</text></g><rect width="68" height="78" x="24" y="88" fill="#eeecea" rx="10"/><text x="58" y="122" fill="#78716c" font-family="Georgia, serif" font-size="20" font-weight="700" text-anchor="middle">19</text><text x="58" y="142" fill="#78716c" font-family="system-ui, sans-serif" font-size="10" text-anchor="middle">주말</text><rect width="68" height="78" x="100" y="88" fill="#eeecea" rx="10"/><text x="134" y="122" fill="#78716c" font-family="Georgia, serif" font-size="20" font-weight="700" text-anchor="middle">20</text><text x="134" y="142" fill="#78716c" font-family="system-ui, sans-serif" font-size="10" text-anchor="middle">주말</text><rect width="68" height="78" x="176" y="88" fill="#e8f3f3" stroke="#1a6363" stroke-width="1.5" rx="10"/><text x="210" y="122" fill="#1a6363" font-family="Georgia, serif" font-size="20" font-weight="700" text-anchor="middle">21</text><text x="210" y="142" fill="#1a6363" font-family="system-ui, sans-serif" font-size="10" font-weight="700" text-anchor="middle">연차</text><rect width="68" height="78" x="252" y="88" fill="#e8f3f3" stroke="#1a6363" stroke-width="1.5" rx="10"/><text x="286" y="122" fill="#1a6363" font-family="Georgia, serif" font-size="20" font-weight="700" text-anchor="middle">22</text><text x="286" y="142" fill="#1a6363" font-family="system-ui, sans-serif" font-size="10" font-weight="700" text-anchor="middle">연차</text><rect width="68" height="78" x="328" y="88" fill="#e8f3f3" stroke="#1a6363" stroke-width="1.5" rx="10"/><text x="362" y="122" fill="#1a6363" font-family="Georgia, serif" font-size="20" font-weight="700" text-anchor="middle">23</text><text x="362" y="142" fill="#1a6363" font-family="system-ui, sans-serif" font-size="10" font-weight="700" text-anchor="middle">연차</text><rect width="68" height="78" x="404" y="88" fill="#fef0ed" stroke="#d95740" stroke-width="1.5" rx="10"/><text x="438" y="118" fill="#d95740" font-family="Georgia, serif" font-size="20" font-weight="700" text-anchor="middle">24</text><text x="438" y="136" fill="#d95740" font-family="system-ui, sans-serif" font-size="10" font-weight="600" text-anchor="middle">추석</text><text x="438" y="148" fill="#d95740" font-family="system-ui, sans-serif" font-size="10" font-weight="600" text-anchor="middle">연휴</text><rect width="68" height="78" x="480" y="88" fill="#fef0ed" stroke="#d95740" stroke-width="1.5" rx="10"/><text x="514" y="118" fill="#d95740" font-family="Georgia, serif" font-size="20" font-weight="700" text-anchor="middle">25</text><text x="514" y="140" fill="#d95740" font-family="system-ui, sans-serif" font-size="10" font-weight="600" text-anchor="middle">추석</text><rect width="68" height="78" x="556" y="88" fill="#fef0ed" stroke="#d95740" stroke-width="1.5" rx="10"/><text x="590" y="118" fill="#d95740" font-family="Georgia, serif" font-size="20" font-weight="700" text-anchor="middle">26</text><text x="590" y="136" fill="#d95740" font-family="system-ui, sans-serif" font-size="10" font-weight="600" text-anchor="middle">추석</text><text x="590" y="148" fill="#d95740" font-family="system-ui, sans-serif" font-size="10" font-weight="600" text-anchor="middle">연휴</text><rect width="68" height="78" x="632" y="88" fill="#eeecea" rx="10"/><text x="666" y="122" fill="#78716c" font-family="Georgia, serif" font-size="20" font-weight="700" text-anchor="middle">27</text><text x="666" y="142" fill="#78716c" font-family="system-ui, sans-serif" font-size="10" text-anchor="middle">주말</text><rect width="68" height="78" x="708" y="88" fill="#eef6f1" stroke="#4a7c5e" stroke-width="1.5" rx="10"/><text x="742" y="118" fill="#4a7c5e" font-family="Georgia, serif" font-size="20" font-weight="700" text-anchor="middle">28</text><text x="742" y="140" fill="#4a7c5e" font-family="system-ui, sans-serif" font-size="10" font-weight="600" text-anchor="middle">대체휴일</text><path stroke="#1a6363" stroke-dasharray="4 3" stroke-width="2" d="M24 176h752" opacity=".4"/><text x="400" y="196" fill="#1a6363" font-family="system-ui, sans-serif" font-size="12" font-weight="700" text-anchor="middle">연차 3일 → 10일 연속</text><path fill="#e5e2da" d="M24 210h752v1H24z"/><g fill="#44403c" font-family="system-ui, sans-serif" font-size="11"><rect width="14" height="14" x="40" y="226" fill="#e8f3f3" stroke="#1a6363" rx="4"/><text x="62" y="238">연차 (3일)</text><rect width="14" height="14" x="170" y="226" fill="#fef0ed" stroke="#d95740" rx="4"/><text x="192" y="238">추석 연휴</text><rect width="14" height="14" x="290" y="226" fill="#eef6f1" stroke="#4a7c5e" rx="4"/><text x="312" y="238">대체공휴일</text><rect width="14" height="14" x="420" y="226" fill="#eeecea" rx="4"/><text x="442" y="238">주말</text></g><rect width="752" height="56" x="24" y="260" fill="#1a6363" rx="12"/><text x="400" y="284" fill="#fff" font-family="system-ui, sans-serif" font-size="13" opacity=".75" text-anchor="middle">연차 단 3일로</text><text x="400" y="304" fill="#fff" font-family="Georgia, serif" font-size="17" font-weight="600" text-anchor="middle">9월 19일~28일, 10일 연속 황금연휴</text></svg>