<svg xmlns="http://www.w3.org/2000/svg" fill="none" viewBox="0 0 800 160"><rect width="800" height="160" fill="#1a6363" rx="16"/><text x="400" y="32" fill="#fff" font-family="system-ui, sans-serif" font-size="11" font-weight="600" letter-spacing="1" opacity=".6" text-anchor="middle">추석 항공권 예매 타임라인</text><rect width="704" height="4" x="48" y="62" fill="#fff" opacity=".12" rx="2"/><circle cx="120" cy="64" r="7" fill="#d95740"/><circle cx="120" cy="64" r="3" fill="#fff"/><text x="120" y="52" fill="#fff" font-family="system-ui, sans-serif" font-size="11" font-weight="700" text-anchor="middle">지금</text><rect width="200" height="10" x="100" y="59" fill="#fff" opacity=".18" rx="5"/><circle cx="700" cy="64" r="5" fill="#fff" opacity=".4"/><text x="700" y="52" fill="#fff" font-family="system-ui, sans-serif" font-size="10" font-weight="600" opacity=".6" text-anchor="middle">9/25</text><text x="120" y="80" fill="#fff" font-family="system-ui, sans-serif" font-size="10" opacity=".4" text-anchor="middle">6월</text><text x="310" y="80" fill="#fff" font-family="system-ui, sans-serif" font-size="10" opacity=".4" text-anchor="middle">7월</text><text x="510" y="80" fill="#fff" font-family="system-ui, sans-serif" font-size="10" opacity=".4" text-anchor="middle">8월</text><text x="700" y="80" fill="#fff" font-family="system-ui, sans-serif" font-size="10" opacity=".4" text-anchor="middle">9월</text><g fill="#fff" font-family="system-ui, sans-serif"><rect width="180" height="44" x="60" y="88" stroke="#fff" stroke-opacity=".2" stroke-width=".5" opacity=".08" rx="8"/><text x="150" y="108" font-size="12" font-weight="600" text-anchor="middle">6월 — 최적 시기</text><text x="150" y="124" font-size="11" opacity=".6" text-anchor="middle">동남아 왕복 30~50만원대</text><rect width="210" height="44" x="260" y="88" stroke="#fff" stroke-opacity=".2" stroke-width=".5" opacity=".08" rx="8"/><text x="365" y="108" font-size="12" font-weight="600" text-anchor="middle">7월 — 마지노선</text><text x="365" y="124" font-size="11" opacity=".6" text-anchor="middle">인기 노선 10~20% 상승</text><rect width="184" height="44" x="490" y="88" stroke="#fff" stroke-opacity=".2" stroke-width=".5" opacity=".08" rx="8"/><text x="582" y="108" font-size="12" font-weight="600" text-anchor="middle">8~9월</text><text x="582" y="124" font-size="11" opacity=".6" text-anchor="middle">+50~100%, 좌석 부족</text></g></svg>