<svg xmlns="http://www.w3.org/2000/svg" fill="none" viewBox="0 0 800 220"><rect width="800" height="220" fill="#f7f6f2" rx="16"/><rect width="236" height="172" x="24" y="24" fill="#fff" stroke="#e5e2da" rx="12"/><rect width="236" height="52" x="24" y="24" fill="#fef0ed" rx="12"/><path fill="#fff" d="M24 64h236v12H24z"/><g transform="translate(142 42)"><circle r="12" fill="#d95740" opacity=".15"/><path stroke="#d95740" stroke-linecap="round" stroke-width="2" d="M-5-5 5 5M5-5-5 5"/></g><text x="142" y="94" fill="#1c1917" font-family="Georgia, serif" font-size="14" font-weight="700" text-anchor="middle">눈치 보여서 안 씀</text><text x="142" y="114" fill="#44403c" font-family="system-ui, sans-serif" font-size="11" text-anchor="middle">연차는 법적 권리입니다</text><text x="142" y="130" fill="#44403c" font-family="system-ui, sans-serif" font-size="11" text-anchor="middle">안 쓰면 회사도 곤란해집니다</text><rect width="140" height="26" x="72" y="148" fill="#d95740" opacity=".07" rx="6"/><text x="142" y="165" fill="#d95740" font-family="system-ui, sans-serif" font-size="11" font-weight="600" text-anchor="middle">당당하게 사용하세요</text><rect width="236" height="172" x="282" y="24" fill="#fff" stroke="#e5e2da" rx="12"/><rect width="236" height="52" x="282" y="24" fill="#fdf4e7" rx="12"/><path fill="#fff" d="M282 64h236v12H282z"/><g transform="translate(400 42)"><path stroke="#c4872a" stroke-linejoin="round" stroke-width="1.5" d="M0-11 11 8h-22Z"/><path stroke="#c4872a" stroke-linecap="round" stroke-width="2" d="M0-4v5"/><circle cy="4.5" r="1.2" fill="#c4872a"/></g><text x="400" y="94" fill="#1c1917" font-family="Georgia, serif" font-size="14" font-weight="700" text-anchor="middle">발생 전 연차 계획</text><text x="400" y="114" fill="#44403c" font-family="system-ui, sans-serif" font-size="11" text-anchor="middle">1년차는 매월 1일씩 발생</text><text x="400" y="130" fill="#44403c" font-family="system-ui, sans-serif" font-size="11" text-anchor="middle">발생 시기 먼저 확인하세요</text><rect width="140" height="26" x="330" y="148" fill="#c4872a" opacity=".07" rx="6"/><text x="400" y="165" fill="#c4872a" font-family="system-ui, sans-serif" font-size="11" font-weight="600" text-anchor="middle">누적일수 꼭 확인</text><rect width="236" height="172" x="540" y="24" fill="#fff" stroke="#e5e2da" rx="12"/><rect width="236" height="52" x="540" y="24" fill="#fef0ed" rx="12"/><path fill="#fff" d="M540 64h236v12H540z"/><g transform="translate(658 42)"><circle r="12" fill="#d95740" opacity=".15"/><path stroke="#d95740" stroke-linecap="round" stroke-width="2" d="M-5-5 5 5M5-5-5 5"/></g><text x="658" y="94" fill="#1c1917" font-family="Georgia, serif" font-size="14" font-weight="700" text-anchor="middle">하반기에 몰아쓰기</text><text x="658" y="114" fill="#44403c" font-family="system-ui, sans-serif" font-size="11" text-anchor="middle">연말 업무 폭주 + 비싼 항공권</text><text x="658" y="130" fill="#44403c" font-family="system-ui, sans-serif" font-size="11" text-anchor="middle">상·하반기 분산이 정답</text><rect width="140" height="26" x="588" y="148" fill="#d95740" opacity=".07" rx="6"/><text x="658" y="165" fill="#d95740" font-family="system-ui, sans-serif" font-size="11" font-weight="600" text-anchor="middle">분산 사용 추천</text></svg>