<svg xmlns="http://www.w3.org/2000/svg" viewBox="0 0 800 340" fill="none">
  <rect width="800" height="340" rx="16" fill="#F7F6F2"/>
  <rect y="0" width="800" height="52" rx="16" fill="#1A6363"/>
  <rect y="28" width="800" height="24" fill="#1A6363"/>
  <text x="400" y="35" text-anchor="middle" font-family="Georgia, serif" font-size="18" font-weight="600" fill="#FFF">2026년 10월 — 개천절·한글날 연차 전략</text>

  <!-- Day headers row -->
  <g font-family="system-ui, sans-serif" font-size="11" font-weight="600" fill="#78716C" text-anchor="middle">
    <text x="62" y="80">토</text>
    <text x="144" y="80">일</text>
    <text x="226" y="80">월</text>
    <text x="308" y="80">화</text>
    <text x="390" y="80">수</text>
    <text x="472" y="80">목</text>
    <text x="554" y="80">금</text>
    <text x="648" y="80">토</text>
    <text x="742" y="80">일</text>
  </g>

  <!-- Oct 3 — 개천절 (토) -->
  <rect x="24" y="92" width="76" height="88" rx="12" fill="#FEF0ED" stroke="#D95740" stroke-width="1.5"/>
  <text x="62" y="124" text-anchor="middle" font-family="Georgia, serif" font-size="26" font-weight="700" fill="#D95740">3</text>
  <text x="62" y="150" text-anchor="middle" font-family="system-ui, sans-serif" font-size="10" font-weight="600" fill="#D95740">개천절</text>

  <!-- Oct 4 — 주말 (일) -->
  <rect x="106" y="92" width="76" height="88" rx="12" fill="#EEECEA"/>
  <text x="144" y="124" text-anchor="middle" font-family="Georgia, serif" font-size="26" font-weight="700" fill="#78716C">4</text>
  <text x="144" y="150" text-anchor="middle" font-family="system-ui, sans-serif" font-size="10" fill="#78716C">주말</text>

  <!-- Oct 5 — 대체공휴일 (월) -->
  <rect x="188" y="92" width="76" height="88" rx="12" fill="#EEF6F1" stroke="#4A7C5E" stroke-width="1.5"/>
  <text x="226" y="124" text-anchor="middle" font-family="Georgia, serif" font-size="26" font-weight="700" fill="#4A7C5E">5</text>
  <text x="226" y="146" text-anchor="middle" font-family="system-ui, sans-serif" font-size="10" font-weight="600" fill="#4A7C5E">대체</text>
  <text x="226" y="158" text-anchor="middle" font-family="system-ui, sans-serif" font-size="10" font-weight="600" fill="#4A7C5E">공휴일</text>

  <!-- Oct 6 — 연차 1 (화) -->
  <rect x="270" y="92" width="76" height="88" rx="12" fill="#E8F3F3" stroke="#1A6363" stroke-width="1.5"/>
  <text x="308" y="124" text-anchor="middle" font-family="Georgia, serif" font-size="26" font-weight="700" fill="#1A6363">6</text>
  <text x="308" y="150" text-anchor="middle" font-family="system-ui, sans-serif" font-size="11" font-weight="700" fill="#1A6363">연차 1</text>

  <!-- Oct 7 — 연차 2 (수) -->
  <rect x="352" y="92" width="76" height="88" rx="12" fill="#E8F3F3" stroke="#1A6363" stroke-width="1.5"/>
  <text x="390" y="124" text-anchor="middle" font-family="Georgia, serif" font-size="26" font-weight="700" fill="#1A6363">7</text>
  <text x="390" y="150" text-anchor="middle" font-family="system-ui, sans-serif" font-size="11" font-weight="700" fill="#1A6363">연차 2</text>

  <!-- Oct 8 — 연차 3 (목) -->
  <rect x="434" y="92" width="76" height="88" rx="12" fill="#E8F3F3" stroke="#1A6363" stroke-width="1.5"/>
  <text x="472" y="124" text-anchor="middle" font-family="Georgia, serif" font-size="26" font-weight="700" fill="#1A6363">8</text>
  <text x="472" y="150" text-anchor="middle" font-family="system-ui, sans-serif" font-size="11" font-weight="700" fill="#1A6363">연차 3</text>

  <!-- Oct 9 — 한글날 (금) -->
  <rect x="516" y="92" width="76" height="88" rx="12" fill="#FEF0ED" stroke="#D95740" stroke-width="1.5"/>
  <text x="554" y="124" text-anchor="middle" font-family="Georgia, serif" font-size="26" font-weight="700" fill="#D95740">9</text>
  <text x="554" y="150" text-anchor="middle" font-family="system-ui, sans-serif" font-size="10" font-weight="600" fill="#D95740">한글날</text>

  <!-- Oct 10 — 주말 (토) -->
  <rect x="610" y="92" width="76" height="88" rx="12" fill="#EEECEA"/>
  <text x="648" y="124" text-anchor="middle" font-family="Georgia, serif" font-size="26" font-weight="700" fill="#78716C">10</text>
  <text x="648" y="150" text-anchor="middle" font-family="system-ui, sans-serif" font-size="10" fill="#78716C">주말</text>

  <!-- Oct 11 — 주말 (일) -->
  <rect x="704" y="92" width="72" height="88" rx="12" fill="#EEECEA"/>
  <text x="740" y="124" text-anchor="middle" font-family="Georgia, serif" font-size="26" font-weight="700" fill="#78716C">11</text>
  <text x="740" y="150" text-anchor="middle" font-family="system-ui, sans-serif" font-size="10" fill="#78716C">주말</text>

  <!-- Divider -->
  <rect x="24" y="200" width="752" height="1" fill="#E5E2DA"/>

  <!-- Legend -->
  <g font-family="system-ui, sans-serif" font-size="12" fill="#44403C">
    <rect x="40" y="220" width="14" height="14" rx="4" fill="#E8F3F3" stroke="#1A6363" stroke-width="1"/>
    <text x="62" y="232">연차 (3일)</text>
    <rect x="170" y="220" width="14" height="14" rx="4" fill="#FEF0ED" stroke="#D95740" stroke-width="1"/>
    <text x="192" y="232">공휴일</text>
    <rect x="280" y="220" width="14" height="14" rx="4" fill="#EEF6F1" stroke="#4A7C5E" stroke-width="1"/>
    <text x="302" y="232">대체공휴일</text>
    <rect x="420" y="220" width="14" height="14" rx="4" fill="#EEECEA"/>
    <text x="442" y="232">주말</text>
  </g>

  <!-- Result callout -->
  <rect x="24" y="256" width="752" height="56" rx="12" fill="#1A6363"/>
  <text x="400" y="282" text-anchor="middle" font-family="system-ui, sans-serif" font-size="13" fill="white" opacity="0.75">연차 단 3일로</text>
  <text x="400" y="300" text-anchor="middle" font-family="Georgia, serif" font-size="17" font-weight="600" fill="#FFF">9일 연속 휴가 — 3.0배 효율</text>
</svg>