<svg xmlns="http://www.w3.org/2000/svg" fill="none" viewBox="0 0 800 340"><rect width="800" height="340" fill="#f7f6f2" rx="16"/><rect width="800" height="52" fill="#1a6363" rx="16"/><path fill="#1a6363" d="M0 28h800v24H0z"/><text x="400" y="35" fill="#fff" font-family="Georgia, serif" font-size="18" font-weight="600" text-anchor="middle">2026년 10월 — 개천절·한글날 연차 전략</text><g fill="#78716c" font-family="system-ui, sans-serif" font-size="11" font-weight="600" text-anchor="middle"><text x="62" y="80">토</text><text x="144" y="80">일</text><text x="226" y="80">월</text><text x="308" y="80">화</text><text x="390" y="80">수</text><text x="472" y="80">목</text><text x="554" y="80">금</text><text x="648" y="80">토</text><text x="742" y="80">일</text></g><rect width="76" height="88" x="24" y="92" fill="#fef0ed" stroke="#d95740" stroke-width="1.5" rx="12"/><text x="62" y="124" fill="#d95740" font-family="Georgia, serif" font-size="26" font-weight="700" text-anchor="middle">3</text><text x="62" y="150" fill="#d95740" font-family="system-ui, sans-serif" font-size="10" font-weight="600" text-anchor="middle">개천절</text><rect width="76" height="88" x="106" y="92" fill="#eeecea" rx="12"/><text x="144" y="124" fill="#78716c" font-family="Georgia, serif" font-size="26" font-weight="700" text-anchor="middle">4</text><text x="144" y="150" fill="#78716c" font-family="system-ui, sans-serif" font-size="10" text-anchor="middle">주말</text><rect width="76" height="88" x="188" y="92" fill="#eef6f1" stroke="#4a7c5e" stroke-width="1.5" rx="12"/><text x="226" y="124" fill="#4a7c5e" font-family="Georgia, serif" font-size="26" font-weight="700" text-anchor="middle">5</text><text x="226" y="146" fill="#4a7c5e" font-family="system-ui, sans-serif" font-size="10" font-weight="600" text-anchor="middle">대체</text><text x="226" y="158" fill="#4a7c5e" font-family="system-ui, sans-serif" font-size="10" font-weight="600" text-anchor="middle">공휴일</text><rect width="76" height="88" x="270" y="92" fill="#e8f3f3" stroke="#1a6363" stroke-width="1.5" rx="12"/><text x="308" y="124" fill="#1a6363" font-family="Georgia, serif" font-size="26" font-weight="700" text-anchor="middle">6</text><text x="308" y="150" fill="#1a6363" font-family="system-ui, sans-serif" font-size="11" font-weight="700" text-anchor="middle">연차 1</text><rect width="76" height="88" x="352" y="92" fill="#e8f3f3" stroke="#1a6363" stroke-width="1.5" rx="12"/><text x="390" y="124" fill="#1a6363" font-family="Georgia, serif" font-size="26" font-weight="700" text-anchor="middle">7</text><text x="390" y="150" fill="#1a6363" font-family="system-ui, sans-serif" font-size="11" font-weight="700" text-anchor="middle">연차 2</text><rect width="76" height="88" x="434" y="92" fill="#e8f3f3" stroke="#1a6363" stroke-width="1.5" rx="12"/><text x="472" y="124" fill="#1a6363" font-family="Georgia, serif" font-size="26" font-weight="700" text-anchor="middle">8</text><text x="472" y="150" fill="#1a6363" font-family="system-ui, sans-serif" font-size="11" font-weight="700" text-anchor="middle">연차 3</text><rect width="76" height="88" x="516" y="92" fill="#fef0ed" stroke="#d95740" stroke-width="1.5" rx="12"/><text x="554" y="124" fill="#d95740" font-family="Georgia, serif" font-size="26" font-weight="700" text-anchor="middle">9</text><text x="554" y="150" fill="#d95740" font-family="system-ui, sans-serif" font-size="10" font-weight="600" text-anchor="middle">한글날</text><rect width="76" height="88" x="610" y="92" fill="#eeecea" rx="12"/><text x="648" y="124" fill="#78716c" font-family="Georgia, serif" font-size="26" font-weight="700" text-anchor="middle">10</text><text x="648" y="150" fill="#78716c" font-family="system-ui, sans-serif" font-size="10" text-anchor="middle">주말</text><rect width="72" height="88" x="704" y="92" fill="#eeecea" rx="12"/><text x="740" y="124" fill="#78716c" font-family="Georgia, serif" font-size="26" font-weight="700" text-anchor="middle">11</text><text x="740" y="150" fill="#78716c" font-family="system-ui, sans-serif" font-size="10" text-anchor="middle">주말</text><path fill="#e5e2da" d="M24 200h752v1H24z"/><g fill="#44403c" font-family="system-ui, sans-serif" font-size="12"><rect width="14" height="14" x="40" y="220" fill="#e8f3f3" stroke="#1a6363" rx="4"/><text x="62" y="232">연차 (3일)</text><rect width="14" height="14" x="170" y="220" fill="#fef0ed" stroke="#d95740" rx="4"/><text x="192" y="232">공휴일</text><rect width="14" height="14" x="280" y="220" fill="#eef6f1" stroke="#4a7c5e" rx="4"/><text x="302" y="232">대체공휴일</text><rect width="14" height="14" x="420" y="220" fill="#eeecea" rx="4"/><text x="442" y="232">주말</text></g><rect width="752" height="56" x="24" y="256" fill="#1a6363" rx="12"/><text x="400" y="282" fill="#fff" font-family="system-ui, sans-serif" font-size="13" opacity=".75" text-anchor="middle">연차 단 3일로</text><text x="400" y="300" fill="#fff" font-family="Georgia, serif" font-size="17" font-weight="600" text-anchor="middle">9일 연속 휴가 — 3.0배 효율</text></svg>