<svg xmlns="http://www.w3.org/2000/svg" fill="none" viewBox="0 0 800 200"><rect width="800" height="200" fill="#f7f6f2" rx="16"/><rect width="364" height="152" x="24" y="24" fill="#fff" stroke="#e5e2da" rx="12"/><rect width="364" height="40" x="24" y="24" fill="#fef0ed" rx="12"/><path fill="#fff" d="M24 52h364v12H24z"/><text x="206" y="50" fill="#d95740" font-family="Georgia, serif" font-size="15" font-weight="700" text-anchor="middle">비효율</text><text x="48" y="92" fill="#44403c" font-family="system-ui, sans-serif" font-size="12">수요일에 연차 1일 사용</text><rect width="48" height="28" x="48" y="104" fill="#eeecea" rx="6"/><text x="72" y="122" fill="#78716c" font-family="system-ui, sans-serif" font-size="10" text-anchor="middle">월</text><rect width="48" height="28" x="100" y="104" fill="#eeecea" rx="6"/><text x="124" y="122" fill="#78716c" font-family="system-ui, sans-serif" font-size="10" text-anchor="middle">화</text><rect width="48" height="28" x="152" y="104" fill="#d95740" stroke="#d95740" opacity=".15" rx="6"/><text x="176" y="122" fill="#d95740" font-family="system-ui, sans-serif" font-size="10" font-weight="600" text-anchor="middle">수</text><rect width="48" height="28" x="204" y="104" fill="#eeecea" rx="6"/><text x="228" y="122" fill="#78716c" font-family="system-ui, sans-serif" font-size="10" text-anchor="middle">목</text><rect width="48" height="28" x="256" y="104" fill="#eeecea" rx="6"/><text x="280" y="122" fill="#78716c" font-family="system-ui, sans-serif" font-size="10" text-anchor="middle">금</text><rect width="112" height="24" x="48" y="144" fill="#d95740" opacity=".07" rx="6"/><text x="104" y="160" fill="#d95740" font-family="system-ui, sans-serif" font-size="11" font-weight="600" text-anchor="middle">1일 = 1일 (1.0배)</text><rect width="364" height="152" x="412" y="24" fill="#fff" stroke="#e5e2da" rx="12"/><rect width="364" height="40" x="412" y="24" fill="#e8f3f3" rx="12"/><path fill="#fff" d="M412 52h364v12H412z"/><text x="594" y="50" fill="#1a6363" font-family="Georgia, serif" font-size="15" font-weight="700" text-anchor="middle">고효율</text><text x="436" y="92" fill="#44403c" font-family="system-ui, sans-serif" font-size="12">금요일에 연차 1일 사용</text><rect width="48" height="28" x="436" y="104" fill="#eeecea" rx="6"/><text x="460" y="122" fill="#78716c" font-family="system-ui, sans-serif" font-size="10" text-anchor="middle">목</text><rect width="48" height="28" x="488" y="104" fill="#1a6363" stroke="#1a6363" opacity=".15" rx="6"/><text x="512" y="122" fill="#1a6363" font-family="system-ui, sans-serif" font-size="10" font-weight="600" text-anchor="middle">금</text><rect width="48" height="28" x="540" y="104" fill="#1a6363" opacity=".1" rx="6"/><text x="564" y="122" fill="#1a6363" font-family="system-ui, sans-serif" font-size="10" font-weight="600" text-anchor="middle">토</text><rect width="48" height="28" x="592" y="104" fill="#1a6363" opacity=".1" rx="6"/><text x="616" y="122" fill="#1a6363" font-family="system-ui, sans-serif" font-size="10" font-weight="600" text-anchor="middle">일</text><rect width="48" height="28" x="644" y="104" fill="#eeecea" rx="6"/><text x="668" y="122" fill="#78716c" font-family="system-ui, sans-serif" font-size="10" text-anchor="middle">월</text><rect width="112" height="24" x="436" y="144" fill="#1a6363" opacity=".07" rx="6"/><text x="492" y="160" fill="#1a6363" font-family="system-ui, sans-serif" font-size="11" font-weight="600" text-anchor="middle">1일 = 3일 (3.0배)</text></svg>