<svg xmlns="http://www.w3.org/2000/svg" fill="none" viewBox="0 0 800 160"><rect width="800" height="160" fill="#1a6363" rx="16"/><text x="400" y="32" fill="#fff" font-family="system-ui, sans-serif" font-size="11" font-weight="600" letter-spacing="1" opacity=".6" text-anchor="middle">항공권 예약 타임라인</text><rect width="704" height="4" x="48" y="62" fill="#fff" opacity=".12" rx="2"/><g fill="#fff" font-family="system-ui, sans-serif" font-size="10" opacity=".5" text-anchor="middle"><text x="48" y="52">3월</text><text x="283" y="52">4월</text><text x="518" y="52">5월</text></g><g fill="#fff" opacity=".3"><rect width="2" height="12" x="47" y="58" rx="1"/><rect width="2" height="12" x="282" y="58" rx="1"/><rect width="2" height="12" x="517" y="58" rx="1"/></g><circle cx="220" cy="64" r="7" fill="#d95740"/><circle cx="220" cy="64" r="3" fill="#fff"/><text x="220" y="44" fill="#fff" font-family="system-ui, sans-serif" font-size="11" font-weight="700" text-anchor="middle">지금</text><rect width="140" height="10" x="200" y="59" fill="#fff" opacity=".18" rx="5"/><circle cx="553" cy="64" r="5" fill="#fff" opacity=".4"/><text x="553" y="44" fill="#fff" font-family="system-ui, sans-serif" font-size="10" font-weight="600" opacity=".6" text-anchor="middle">5/5 어린이날</text><g fill="#fff" font-family="system-ui, sans-serif" font-size="10" opacity=".45"><text x="400" y="56">+10~20%</text><text x="620" y="56">+25~40%</text></g><g fill="#fff" font-family="system-ui, sans-serif"><rect width="260" height="44" x="48" y="88" stroke="#fff" stroke-opacity=".2" stroke-width=".5" opacity=".08" rx="8"/><text x="178" y="108" font-size="12" font-weight="600" text-anchor="middle">최적 예약 구간</text><text x="178" y="124" font-size="11" opacity=".6" text-anchor="middle">3월 말~4월 초 — 지금이 최저가</text><rect width="210" height="44" x="328" y="88" stroke="#fff" stroke-opacity=".2" stroke-width=".5" opacity=".08" rx="8"/><text x="433" y="108" font-size="12" font-weight="600" text-anchor="middle">4월 중순 이후</text><text x="433" y="124" font-size="11" opacity=".6" text-anchor="middle">일본행 +10~20% 상승</text><rect width="194" height="44" x="558" y="88" stroke="#fff" stroke-opacity=".2" stroke-width=".5" opacity=".08" rx="8"/><text x="655" y="108" font-size="12" font-weight="600" text-anchor="middle">5월 직전</text><text x="655" y="124" font-size="11" opacity=".6" text-anchor="middle">제주 급등, 인기 노선 매진</text></g></svg>