<svg xmlns="http://www.w3.org/2000/svg" fill="none" viewBox="0 0 800 420"><rect width="800" height="420" fill="#f7f6f2" rx="16"/><rect width="800" height="52" fill="#1a6363" rx="16"/><path fill="#1a6363" d="M0 28h800v24H0z"/><text x="400" y="35" fill="#fff" font-family="Georgia, serif" font-size="17" font-weight="600" text-anchor="middle">2026년 5월 — 어린이날 + 부처님오신날 연차 전략</text><text x="40" y="82" fill="#1c1917" font-family="Georgia, serif" font-size="14" font-weight="600">어린이날 주간</text><g fill="#78716c" font-family="system-ui, sans-serif" font-size="11" font-weight="600" text-anchor="middle"><text x="108" y="102">토</text><text x="218" y="102">일</text><text x="328" y="102">월</text><text x="438" y="102">화</text></g><rect width="104" height="80" x="56" y="112" fill="#eeecea" rx="12"/><text x="108" y="146" fill="#78716c" font-family="Georgia, serif" font-size="24" font-weight="700" text-anchor="middle">2</text><text x="108" y="168" fill="#78716c" font-family="system-ui, sans-serif" font-size="10" text-anchor="middle">주말</text><rect width="104" height="80" x="166" y="112" fill="#eeecea" rx="12"/><text x="218" y="146" fill="#78716c" font-family="Georgia, serif" font-size="24" font-weight="700" text-anchor="middle">3</text><text x="218" y="168" fill="#78716c" font-family="system-ui, sans-serif" font-size="10" text-anchor="middle">주말</text><rect width="104" height="80" x="276" y="112" fill="#e8f3f3" stroke="#1a6363" stroke-width="1.5" rx="12"/><text x="328" y="146" fill="#1a6363" font-family="Georgia, serif" font-size="24" font-weight="700" text-anchor="middle">4</text><text x="328" y="168" fill="#1a6363" font-family="system-ui, sans-serif" font-size="11" font-weight="700" text-anchor="middle">연차</text><rect width="104" height="80" x="386" y="112" fill="#fef0ed" stroke="#d95740" stroke-width="1.5" rx="12"/><text x="438" y="142" fill="#d95740" font-family="Georgia, serif" font-size="24" font-weight="700" text-anchor="middle">5</text><text x="438" y="164" fill="#d95740" font-family="system-ui, sans-serif" font-size="10" font-weight="600" text-anchor="middle">어린이날</text><rect width="240" height="44" x="530" y="128" fill="#1a6363" rx="10"/><text x="650" y="148" fill="#fff" font-family="system-ui, sans-serif" font-size="11" opacity=".75" text-anchor="middle">연차 1일로</text><text x="650" y="164" fill="#fff" font-family="Georgia, serif" font-size="14" font-weight="600" text-anchor="middle">4일 연속 = 4.0배</text><path fill="#e5e2da" d="M24 210h752v1H24z"/><text x="40" y="240" fill="#1c1917" font-family="Georgia, serif" font-size="14" font-weight="600">부처님오신날 주간</text><g fill="#78716c" font-family="system-ui, sans-serif" font-size="11" font-weight="600" text-anchor="middle"><text x="108" y="260">금</text><text x="218" y="260">토</text><text x="328" y="260">일</text><text x="438" y="260">월</text></g><rect width="104" height="80" x="56" y="270" fill="#e8f3f3" stroke="#1a6363" stroke-width="1.5" rx="12"/><text x="108" y="304" fill="#1a6363" font-family="Georgia, serif" font-size="24" font-weight="700" text-anchor="middle">22</text><text x="108" y="326" fill="#1a6363" font-family="system-ui, sans-serif" font-size="11" font-weight="700" text-anchor="middle">연차</text><rect width="104" height="80" x="166" y="270" fill="#eeecea" rx="12"/><text x="218" y="304" fill="#78716c" font-family="Georgia, serif" font-size="24" font-weight="700" text-anchor="middle">23</text><text x="218" y="326" fill="#78716c" font-family="system-ui, sans-serif" font-size="10" text-anchor="middle">주말</text><rect width="104" height="80" x="276" y="270" fill="#fef0ed" stroke="#d95740" stroke-width="1.5" rx="12"/><text x="328" y="298" fill="#d95740" font-family="Georgia, serif" font-size="24" font-weight="700" text-anchor="middle">24</text><text x="328" y="316" fill="#d95740" font-family="system-ui, sans-serif" font-size="10" font-weight="600" text-anchor="middle">부처님</text><text x="328" y="328" fill="#d95740" font-family="system-ui, sans-serif" font-size="10" font-weight="600" text-anchor="middle">오신날</text><rect width="104" height="80" x="386" y="270" fill="#eef6f1" stroke="#4a7c5e" stroke-width="1.5" rx="12"/><text x="438" y="298" fill="#4a7c5e" font-family="Georgia, serif" font-size="24" font-weight="700" text-anchor="middle">25</text><text x="438" y="318" fill="#4a7c5e" font-family="system-ui, sans-serif" font-size="10" font-weight="600" text-anchor="middle">대체공휴일</text><rect width="240" height="44" x="530" y="286" fill="#1a6363" rx="10"/><text x="650" y="306" fill="#fff" font-family="system-ui, sans-serif" font-size="11" opacity=".75" text-anchor="middle">연차 1일로</text><text x="650" y="322" fill="#fff" font-family="Georgia, serif" font-size="14" font-weight="600" text-anchor="middle">4일 연속 = 4.0배</text><path fill="#e5e2da" d="M24 366h752v1H24z"/><g fill="#44403c" font-family="system-ui, sans-serif" font-size="11"><rect width="14" height="14" x="40" y="380" fill="#e8f3f3" stroke="#1a6363" rx="4"/><text x="62" y="392">연차</text><rect width="14" height="14" x="130" y="380" fill="#fef0ed" stroke="#d95740" rx="4"/><text x="152" y="392">공휴일</text><rect width="14" height="14" x="230" y="380" fill="#eef6f1" stroke="#4a7c5e" rx="4"/><text x="252" y="392">대체공휴일</text><rect width="14" height="14" x="360" y="380" fill="#eeecea" rx="4"/><text x="382" y="392">주말</text></g></svg>