<svg xmlns="http://www.w3.org/2000/svg" fill="none" viewBox="0 0 800 220"><rect width="800" height="220" fill="#f7f6f2" rx="16"/><rect width="176" height="172" x="24" y="24" fill="#fff" stroke="#e5e2da" rx="12"/><rect width="176" height="56" x="24" y="24" fill="#e8f3f3" rx="12"/><path fill="#fff" d="M24 68h176v12H24z"/><g fill="#1a6363" transform="translate(112 30)"><path d="M0 42h-10l7-26h-4L0 0l7 16H3l7 26Z" opacity=".45"/><rect width="24" height="3" x="-12" y="40" opacity=".45" rx="1"/></g><text x="112" y="100" fill="#1c1917" font-family="Georgia, serif" font-size="15" font-weight="700" text-anchor="middle">국내 단풍</text><text x="112" y="118" fill="#78716c" font-family="system-ui, sans-serif" font-size="11" text-anchor="middle">설악산·내장산·지리산</text><text x="112" y="134" fill="#78716c" font-family="system-ui, sans-serif" font-size="11" text-anchor="middle">10월 초~중순 절정</text><rect width="112" height="26" x="56" y="152" fill="#1a6363" opacity=".07" rx="6"/><text x="112" y="169" fill="#1a6363" font-family="system-ui, sans-serif" font-size="11" font-weight="600" text-anchor="middle">단풍 절정</text><rect width="176" height="172" x="216" y="24" fill="#fff" stroke="#e5e2da" rx="12"/><rect width="176" height="56" x="216" y="24" fill="#eef6f1" rx="12"/><path fill="#fff" d="M216 68h176v12H216z"/><g fill="#4a7c5e" transform="translate(304 28)"><rect width="3" height="28" x="-1" y="18" opacity=".5" rx="1"/><path d="M0 20c-7-9-19-7-15-2 3-4 10-4 15 2M0 20c7-9 19-7 15-2-3-4-10-4-15 2" opacity=".4"/><path d="M0 18C-3 8-14 6-12 12c3-3 9-2 12 6M0 18C3 8 14 6 12 12c-3-3-9-2-12 6" opacity=".35"/></g><text x="304" y="100" fill="#1c1917" font-family="Georgia, serif" font-size="15" font-weight="700" text-anchor="middle">일본</text><text x="304" y="118" fill="#78716c" font-family="system-ui, sans-serif" font-size="11" text-anchor="middle">홋카이도·닛코 단풍</text><text x="304" y="134" fill="#78716c" font-family="system-ui, sans-serif" font-size="11" text-anchor="middle">10월 초~중순 절정기</text><rect width="112" height="26" x="248" y="152" fill="#4a7c5e" opacity=".07" rx="6"/><text x="304" y="169" fill="#4a7c5e" font-family="system-ui, sans-serif" font-size="11" font-weight="600" text-anchor="middle">가을 최적기</text><rect width="176" height="172" x="408" y="24" fill="#fff" stroke="#e5e2da" rx="12"/><rect width="176" height="56" x="408" y="24" fill="#fef0ed" rx="12"/><path fill="#fff" d="M408 68h176v12H408z"/><g transform="translate(496 49)"><circle cy="-9" r="4.5" fill="#f2a897" opacity=".6"/><circle cx="8.5" cy="-2.5" r="4.5" fill="#f2a897" opacity=".5"/><circle cx="5.3" cy="7" r="4.5" fill="#f2a897" opacity=".6"/><circle cx="-5.3" cy="7" r="4.5" fill="#f2a897" opacity=".5"/><circle cx="-8.5" cy="-2.5" r="4.5" fill="#f2a897" opacity=".6"/><circle r="3.5" fill="#d95740" opacity=".35"/></g><text x="496" y="100" fill="#1c1917" font-family="Georgia, serif" font-size="15" font-weight="700" text-anchor="middle">유럽</text><text x="496" y="118" fill="#78716c" font-family="system-ui, sans-serif" font-size="11" text-anchor="middle">항공료 여름 대비 40%↓</text><text x="496" y="134" fill="#78716c" font-family="system-ui, sans-serif" font-size="11" text-anchor="middle">스페인·이탈리아 20~25°C</text><rect width="112" height="26" x="440" y="152" fill="#d95740" opacity=".07" rx="6"/><text x="496" y="169" fill="#d95740" font-family="system-ui, sans-serif" font-size="11" font-weight="600" text-anchor="middle">가을 성수기 끝</text><rect width="176" height="172" x="600" y="24" fill="#fff" stroke="#e5e2da" rx="12"/><rect width="176" height="56" x="600" y="24" fill="#fdf4e7" rx="12"/><path fill="#fff" d="M600 68h176v12H600z"/><path fill="#c4872a" d="m670 66 15-28 3 6 3-6 15 28Z" opacity=".4"/><path fill="#c4872a" d="m678 66 10-20 10 20Z" opacity=".3"/><path fill="#fff" d="m685 38 2 5 1-2 1 2 2-5-1.5 4-1.5-2-1.5 2Z" opacity=".6"/><text x="688" y="100" fill="#1c1917" font-family="Georgia, serif" font-size="15" font-weight="700" text-anchor="middle">터키</text><text x="688" y="118" fill="#78716c" font-family="system-ui, sans-serif" font-size="11" text-anchor="middle">여행 최적기, 쾌적한 기온</text><text x="688" y="134" fill="#78716c" font-family="system-ui, sans-serif" font-size="11" text-anchor="middle">카파도키아 열기구</text><rect width="112" height="26" x="632" y="152" fill="#c4872a" opacity=".07" rx="6"/><text x="688" y="169" fill="#c4872a" font-family="system-ui, sans-serif" font-size="11" font-weight="600" text-anchor="middle">골든 타이밍</text></svg>