<svg xmlns="http://www.w3.org/2000/svg" fill="none" viewBox="0 0 800 420"><rect width="800" height="420" fill="#f7f6f2" rx="16"/><text x="400" y="28" fill="#1c1917" font-family="Georgia, serif" font-size="17" font-weight="700" text-anchor="middle">여행지별 최적 방문 시기 히트맵</text><text x="400" y="48" fill="#78716c" font-family="system-ui, sans-serif" font-size="12" text-anchor="middle">한국 연휴 + 현지 성수기를 모두 피한 스위트스팟</text><g fill="#57534e" font-family="system-ui, sans-serif" font-size="11" text-anchor="middle"><text x="120" y="72">1월</text><text x="173" y="72">2월</text><text x="226" y="72">3월</text><text x="279" y="72">4월</text><text x="332" y="72">5월</text><text x="385" y="72">6월</text><text x="438" y="72">7월</text><text x="491" y="72">8월</text><text x="544" y="72">9월</text><text x="597" y="72">10월</text><text x="650" y="72">11월</text><text x="703" y="72">12월</text></g><g fill="#1c1917" font-family="system-ui, sans-serif" font-size="13" font-weight="600" text-anchor="end"><text x="88" y="106">일본</text><text x="88" y="151">태국</text><text x="88" y="196">베트남</text><text x="88" y="241">발리</text><text x="88" y="286">대만</text><text x="88" y="331">유럽</text></g><g><rect x="96" y="80" width="48" height="40" fill="#8ec4a6" rx="4"/><rect x="149" y="80" width="48" height="40" fill="#8ec4a6" rx="4"/><rect x="202" y="80" width="48" height="40" fill="#8ec4a6" rx="4"/><rect x="255" y="80" width="48" height="40" fill="#e5e2da" rx="4"/><rect x="308" y="80" width="48" height="40" fill="#e5e2da" rx="4"/><rect x="361" y="80" width="48" height="40" fill="#2a9d8f" rx="4"/><rect x="414" y="80" width="48" height="40" fill="#e5e2da" rx="4"/><rect x="467" y="80" width="48" height="40" fill="#e76f51" rx="4"/><rect x="520" y="80" width="48" height="40" fill="#e5e2da" rx="4"/><rect x="573" y="80" width="48" height="40" fill="#8ec4a6" rx="4"/><rect x="626" y="80" width="48" height="40" fill="#2a9d8f" rx="4"/><rect x="679" y="80" width="48" height="40" fill="#e76f51" rx="4"/></g><g><rect x="96" y="125" width="48" height="40" fill="#8ec4a6" rx="4"/><rect x="149" y="125" width="48" height="40" fill="#e5e2da" rx="4"/><rect x="202" y="125" width="48" height="40" fill="#2a9d8f" rx="4"/><rect x="255" y="125" width="48" height="40" fill="#e76f51" rx="4"/><rect x="308" y="125" width="48" height="40" fill="#e5e2da" rx="4"/><rect x="361" y="125" width="48" height="40" fill="#8ec4a6" rx="4"/><rect x="414" y="125" width="48" height="40" fill="#e76f51" rx="4"/><rect x="467" y="125" width="48" height="40" fill="#e76f51" rx="4"/><rect x="520" y="125" width="48" height="40" fill="#8ec4a6" rx="4"/><rect x="573" y="125" width="48" height="40" fill="#8ec4a6" rx="4"/><rect x="626" y="125" width="48" height="40" fill="#2a9d8f" rx="4"/><rect x="679" y="125" width="48" height="40" fill="#8ec4a6" rx="4"/></g><g><rect x="96" y="170" width="48" height="40" fill="#e5e2da" rx="4"/><rect x="149" y="170" width="48" height="40" fill="#e76f51" rx="4"/><rect x="202" y="170" width="48" height="40" fill="#2a9d8f" rx="4"/><rect x="255" y="170" width="48" height="40" fill="#8ec4a6" rx="4"/><rect x="308" y="170" width="48" height="40" fill="#e5e2da" rx="4"/><rect x="361" y="170" width="48" height="40" fill="#8ec4a6" rx="4"/><rect x="414" y="170" width="48" height="40" fill="#e5e2da" rx="4"/><rect x="467" y="170" width="48" height="40" fill="#e76f51" rx="4"/><rect x="520" y="170" width="48" height="40" fill="#8ec4a6" rx="4"/><rect x="573" y="170" width="48" height="40" fill="#8ec4a6" rx="4"/><rect x="626" y="170" width="48" height="40" fill="#2a9d8f" rx="4"/><rect x="679" y="170" width="48" height="40" fill="#8ec4a6" rx="4"/></g><g><rect x="96" y="215" width="48" height="40" fill="#e5e2da" rx="4"/><rect x="149" y="215" width="48" height="40" fill="#e5e2da" rx="4"/><rect x="202" y="215" width="48" height="40" fill="#e5e2da" rx="4"/><rect x="255" y="215" width="48" height="40" fill="#2a9d8f" rx="4"/><rect x="308" y="215" width="48" height="40" fill="#2a9d8f" rx="4"/><rect x="361" y="215" width="48" height="40" fill="#2a9d8f" rx="4"/><rect x="414" y="215" width="48" height="40" fill="#e76f51" rx="4"/><rect x="467" y="215" width="48" height="40" fill="#e76f51" rx="4"/><rect x="520" y="215" width="48" height="40" fill="#2a9d8f" rx="4"/><rect x="573" y="215" width="48" height="40" fill="#8ec4a6" rx="4"/><rect x="626" y="215" width="48" height="40" fill="#8ec4a6" rx="4"/><rect x="679" y="215" width="48" height="40" fill="#e76f51" rx="4"/></g><g><rect x="96" y="260" width="48" height="40" fill="#e76f51" rx="4"/><rect x="149" y="260" width="48" height="40" fill="#e76f51" rx="4"/><rect x="202" y="260" width="48" height="40" fill="#2a9d8f" rx="4"/><rect x="255" y="260" width="48" height="40" fill="#8ec4a6" rx="4"/><rect x="308" y="260" width="48" height="40" fill="#e5e2da" rx="4"/><rect x="361" y="260" width="48" height="40" fill="#e5e2da" rx="4"/><rect x="414" y="260" width="48" height="40" fill="#e76f51" rx="4"/><rect x="467" y="260" width="48" height="40" fill="#e76f51" rx="4"/><rect x="520" y="260" width="48" height="40" fill="#e5e2da" rx="4"/><rect x="573" y="260" width="48" height="40" fill="#2a9d8f" rx="4"/><rect x="626" y="260" width="48" height="40" fill="#2a9d8f" rx="4"/><rect x="679" y="260" width="48" height="40" fill="#e5e2da" rx="4"/></g><g><rect x="96" y="305" width="48" height="40" fill="#e5e2da" rx="4"/><rect x="149" y="305" width="48" height="40" fill="#e5e2da" rx="4"/><rect x="202" y="305" width="48" height="40" fill="#8ec4a6" rx="4"/><rect x="255" y="305" width="48" height="40" fill="#8ec4a6" rx="4"/><rect x="308" y="305" width="48" height="40" fill="#2a9d8f" rx="4"/><rect x="361" y="305" width="48" height="40" fill="#8ec4a6" rx="4"/><rect x="414" y="305" width="48" height="40" fill="#e76f51" rx="4"/><rect x="467" y="305" width="48" height="40" fill="#e76f51" rx="4"/><rect x="520" y="305" width="48" height="40" fill="#2a9d8f" rx="4"/><rect x="573" y="305" width="48" height="40" fill="#2a9d8f" rx="4"/><rect x="626" y="305" width="48" height="40" fill="#8ec4a6" rx="4"/><rect x="679" y="305" width="48" height="40" fill="#e76f51" rx="4"/></g><g transform="translate(160 370)"><rect width="16" height="16" fill="#2a9d8f" rx="3"/><text x="22" y="13" fill="#1c1917" font-family="system-ui, sans-serif" font-size="11">스위트스팟</text></g><g transform="translate(300 370)"><rect width="16" height="16" fill="#8ec4a6" rx="3"/><text x="22" y="13" fill="#1c1917" font-family="system-ui, sans-serif" font-size="11">괜찮음</text></g><g transform="translate(420 370)"><rect width="16" height="16" fill="#e5e2da" rx="3"/><text x="22" y="13" fill="#1c1917" font-family="system-ui, sans-serif" font-size="11">보통</text></g><g transform="translate(530 370)"><rect width="16" height="16" fill="#e76f51" rx="3"/><text x="22" y="13" fill="#1c1917" font-family="system-ui, sans-serif" font-size="11">피하세요</text></g><text x="400" y="405" fill="#a8a29e" font-family="system-ui, sans-serif" font-size="10" text-anchor="middle">날씨 + 한국인 여행 피크 + 현지 공휴일을 종합한 점수</text></svg>