<svg xmlns="http://www.w3.org/2000/svg" fill="none" viewBox="0 0 800 220"><rect width="800" height="220" fill="#f7f6f2" rx="16"/><rect width="240" height="172" x="24" y="24" fill="#fff" stroke="#e5e2da" rx="12"/><rect width="240" height="44" x="24" y="24" fill="#fef0ed" rx="12"/><path fill="#fff" d="M24 56h240v12H24z"/><text x="144" y="50" fill="#d95740" font-family="Georgia, serif" font-size="16" font-weight="700" text-anchor="middle">2일 남음</text><text x="144" y="86" fill="#1c1917" font-family="system-ui, sans-serif" font-size="13" font-weight="600" text-anchor="middle">크리스마스 연휴 확장</text><text x="144" y="108" fill="#44403c" font-family="system-ui, sans-serif" font-size="11" text-anchor="middle">12/23(수) + 12/24(목) 연차</text><text x="144" y="126" fill="#78716c" font-family="system-ui, sans-serif" font-size="11" text-anchor="middle">수~일 5일 연속 휴가</text><rect width="152" height="28" x="68" y="144" fill="#d95740" opacity=".07" rx="6"/><text x="144" y="162" fill="#d95740" font-family="system-ui, sans-serif" font-size="12" font-weight="700" text-anchor="middle">효율 2.5배</text><text x="144" y="188" fill="#78716c" font-family="system-ui, sans-serif" font-size="10" text-anchor="middle">2일 → 5일</text><rect width="240" height="172" x="280" y="24" fill="#fff" stroke="#e5e2da" rx="12"/><rect width="240" height="44" x="280" y="24" fill="#e8f3f3" rx="12"/><path fill="#fff" d="M280 56h240v12H280z"/><text x="400" y="50" fill="#1a6363" font-family="Georgia, serif" font-size="16" font-weight="700" text-anchor="middle">3일 남음</text><text x="400" y="86" fill="#1c1917" font-family="system-ui, sans-serif" font-size="13" font-weight="600" text-anchor="middle">연말 대연휴</text><text x="400" y="108" fill="#44403c" font-family="system-ui, sans-serif" font-size="11" text-anchor="middle">12/29(월)~12/31(수) 연차</text><text x="400" y="126" fill="#78716c" font-family="system-ui, sans-serif" font-size="11" text-anchor="middle">크리스마스~신정 연결</text><rect width="152" height="28" x="324" y="144" fill="#1a6363" opacity=".07" rx="6"/><text x="400" y="162" fill="#1a6363" font-family="system-ui, sans-serif" font-size="12" font-weight="700" text-anchor="middle">효율 3.3배</text><text x="400" y="188" fill="#78716c" font-family="system-ui, sans-serif" font-size="10" text-anchor="middle">3일 → 10일</text><rect width="240" height="172" x="536" y="24" fill="#fff" stroke="#e5e2da" rx="12"/><rect width="240" height="44" x="536" y="24" fill="#eef6f1" rx="12"/><path fill="#fff" d="M536 56h240v12H536z"/><text x="656" y="50" fill="#4a7c5e" font-family="Georgia, serif" font-size="16" font-weight="700" text-anchor="middle">5일+ 남음</text><text x="656" y="86" fill="#1c1917" font-family="system-ui, sans-serif" font-size="13" font-weight="600" text-anchor="middle">11월 + 12월 분산</text><text x="656" y="108" fill="#44403c" font-family="system-ui, sans-serif" font-size="11" text-anchor="middle">11월 비수기 여행 2~3일</text><text x="656" y="126" fill="#78716c" font-family="system-ui, sans-serif" font-size="11" text-anchor="middle">+ 크리스마스~연말 2~3일</text><rect width="152" height="28" x="580" y="144" fill="#4a7c5e" opacity=".07" rx="6"/><text x="656" y="162" fill="#4a7c5e" font-family="system-ui, sans-serif" font-size="12" font-weight="700" text-anchor="middle">가성비 최고</text><text x="656" y="188" fill="#78716c" font-family="system-ui, sans-serif" font-size="10" text-anchor="middle">비수기 = 항공료 절약</text></svg>