<svg xmlns="http://www.w3.org/2000/svg" fill="none" viewBox="0 0 800 200"><rect width="800" height="200" fill="#f7f6f2" rx="16"/><rect width="240" height="152" x="24" y="24" fill="#fff" stroke="#e5e2da" rx="12"/><rect width="240" height="44" x="24" y="24" fill="#e8f3f3" rx="12"/><path fill="#fff" d="M24 56h240v12H24z"/><g transform="translate(144 46)"><path stroke="#1a6363" stroke-linecap="round" stroke-width="1.5" d="m-12 0 8-6 8 6 8-6" opacity=".5"/><circle cy="-2" r="3" fill="#1a6363" opacity=".3"/></g><text x="144" y="88" fill="#1c1917" font-family="Georgia, serif" font-size="15" font-weight="700" text-anchor="middle">슬로우 트래블</text><text x="144" y="108" fill="#78716c" font-family="system-ui, sans-serif" font-size="11" text-anchor="middle">평일 재택 + 주말·연차 관광</text><text x="144" y="124" fill="#78716c" font-family="system-ui, sans-serif" font-size="11" text-anchor="middle">연차 2일 → 7박 체류</text><rect width="152" height="26" x="68" y="140" fill="#1a6363" opacity=".07" rx="6"/><text x="144" y="157" fill="#1a6363" font-family="system-ui, sans-serif" font-size="11" font-weight="600" text-anchor="middle">재택근무자만 가능</text><rect width="240" height="152" x="280" y="24" fill="#fff" stroke="#e5e2da" rx="12"/><rect width="240" height="44" x="280" y="24" fill="#fef0ed" rx="12"/><path fill="#fff" d="M280 56h240v12H280z"/><g transform="translate(400 46)"><rect width="16" height="14" x="-8" y="-8" stroke="#d95740" stroke-width="1.2" opacity=".5" rx="2"/><path stroke="#d95740" stroke-width="1.2" d="M-8-4H8" opacity=".5"/><circle cy="1" r="1.5" fill="#d95740" opacity=".4"/></g><text x="400" y="88" fill="#1c1917" font-family="Georgia, serif" font-size="15" font-weight="700" text-anchor="middle">리셋 먼데이</text><text x="400" y="108" fill="#78716c" font-family="system-ui, sans-serif" font-size="11" text-anchor="middle">매달 첫째 월요일 연차</text><text x="400" y="124" fill="#78716c" font-family="system-ui, sans-serif" font-size="11" text-anchor="middle">연차 12일 → 매달 4일 연휴</text><rect width="152" height="26" x="324" y="140" fill="#d95740" opacity=".07" rx="6"/><text x="400" y="157" fill="#d95740" font-family="system-ui, sans-serif" font-size="11" font-weight="600" text-anchor="middle">번아웃 예방 최적</text><rect width="240" height="152" x="536" y="24" fill="#fff" stroke="#e5e2da" rx="12"/><rect width="240" height="44" x="536" y="24" fill="#eef6f1" rx="12"/><path fill="#fff" d="M536 56h240v12H536z"/><g stroke="#4a7c5e" stroke-linecap="round" stroke-width="1.3"><path d="m650 43 3-3a4.243 4.243 0 0 1 6 6l-3 3" opacity=".5"/><path d="m662 49-3 3a4.243 4.243 0 0 1-6-6l3-3" opacity=".5"/></g><text x="656" y="88" fill="#1c1917" font-family="Georgia, serif" font-size="15" font-weight="700" text-anchor="middle">연휴 연결</text><text x="656" y="108" fill="#78716c" font-family="system-ui, sans-serif" font-size="11" text-anchor="middle">공휴일 사이 평일에 연차</text><text x="656" y="124" fill="#78716c" font-family="system-ui, sans-serif" font-size="11" text-anchor="middle">연차 4일 → 16일 연속</text><rect width="152" height="26" x="580" y="140" fill="#4a7c5e" opacity=".07" rx="6"/><text x="656" y="157" fill="#4a7c5e" font-family="system-ui, sans-serif" font-size="11" font-weight="600" text-anchor="middle">9~10월 황금기</text></svg>