<svg xmlns="http://www.w3.org/2000/svg" fill="none" viewBox="0 0 800 340"><rect width="800" height="340" fill="#f7f6f2" rx="16"/><rect width="800" height="52" fill="#1a6363" rx="16"/><path fill="#1a6363" d="M0 28h800v24H0z"/><text x="400" y="35" fill="#fff" font-family="Georgia, serif" font-size="18" font-weight="600" text-anchor="middle">2027년 설날 — 연차 배치 미리보기</text><g fill="#78716c" font-family="system-ui, sans-serif" font-size="11" font-weight="600" text-anchor="middle"><text x="56" y="80">금</text><text x="140" y="80">토</text><text x="224" y="80">일</text><text x="308" y="80">월</text><text x="392" y="80">화</text><text x="476" y="80">수</text><text x="560" y="80">목</text><text x="644" y="80">금</text><text x="740" y="80">토-일</text></g><rect width="64" height="88" x="24" y="92" fill="#fff" stroke="#e5e2da" rx="12"/><text x="56" y="124" fill="#78716c" font-family="Georgia, serif" font-size="26" font-weight="700" text-anchor="middle">5</text><text x="56" y="150" fill="#78716c" font-family="system-ui, sans-serif" font-size="10" text-anchor="middle">평일</text><rect width="72" height="88" x="104" y="92" fill="#fef0ed" stroke="#d95740" stroke-width="1.5" rx="12"/><text x="140" y="122" fill="#d95740" font-family="Georgia, serif" font-size="26" font-weight="700" text-anchor="middle">6</text><text x="140" y="144" fill="#d95740" font-family="system-ui, sans-serif" font-size="10" font-weight="600" text-anchor="middle">설날</text><text x="140" y="156" fill="#d95740" font-family="system-ui, sans-serif" font-size="10" font-weight="600" text-anchor="middle">연휴</text><rect width="72" height="88" x="188" y="92" fill="#fef0ed" stroke="#d95740" stroke-width="1.5" rx="12"/><text x="224" y="124" fill="#d95740" font-family="Georgia, serif" font-size="26" font-weight="700" text-anchor="middle">7</text><text x="224" y="150" fill="#d95740" font-family="system-ui, sans-serif" font-size="10" font-weight="600" text-anchor="middle">설날</text><rect width="72" height="88" x="272" y="92" fill="#fef0ed" stroke="#d95740" stroke-width="1.5" rx="12"/><text x="308" y="122" fill="#d95740" font-family="Georgia, serif" font-size="26" font-weight="700" text-anchor="middle">8</text><text x="308" y="144" fill="#d95740" font-family="system-ui, sans-serif" font-size="10" font-weight="600" text-anchor="middle">설날</text><text x="308" y="156" fill="#d95740" font-family="system-ui, sans-serif" font-size="10" font-weight="600" text-anchor="middle">연휴</text><rect width="72" height="88" x="356" y="92" fill="#eef6f1" stroke="#4a7c5e" stroke-width="1.5" rx="12"/><text x="392" y="124" fill="#4a7c5e" font-family="Georgia, serif" font-size="26" font-weight="700" text-anchor="middle">9</text><text x="392" y="146" fill="#4a7c5e" font-family="system-ui, sans-serif" font-size="10" font-weight="600" text-anchor="middle">대체</text><text x="392" y="158" fill="#4a7c5e" font-family="system-ui, sans-serif" font-size="10" font-weight="600" text-anchor="middle">공휴일</text><rect width="72" height="88" x="440" y="92" fill="#e8f3f3" stroke="#1a6363" stroke-width="1.5" rx="12"/><text x="476" y="124" fill="#1a6363" font-family="Georgia, serif" font-size="26" font-weight="700" text-anchor="middle">10</text><text x="476" y="150" fill="#1a6363" font-family="system-ui, sans-serif" font-size="11" font-weight="700" text-anchor="middle">연차 1</text><rect width="72" height="88" x="524" y="92" fill="#e8f3f3" stroke="#1a6363" stroke-width="1.5" rx="12"/><text x="560" y="124" fill="#1a6363" font-family="Georgia, serif" font-size="26" font-weight="700" text-anchor="middle">11</text><text x="560" y="150" fill="#1a6363" font-family="system-ui, sans-serif" font-size="11" font-weight="700" text-anchor="middle">연차 2</text><rect width="72" height="88" x="608" y="92" fill="#e8f3f3" stroke="#1a6363" stroke-width="1.5" rx="12"/><text x="644" y="124" fill="#1a6363" font-family="Georgia, serif" font-size="26" font-weight="700" text-anchor="middle">12</text><text x="644" y="150" fill="#1a6363" font-family="system-ui, sans-serif" font-size="11" font-weight="700" text-anchor="middle">연차 3</text><rect width="84" height="88" x="692" y="92" fill="#eeecea" rx="12"/><text x="734" y="124" fill="#78716c" font-family="Georgia, serif" font-size="22" font-weight="700" text-anchor="middle">13-14</text><text x="734" y="150" fill="#78716c" font-family="system-ui, sans-serif" font-size="10" text-anchor="middle">주말</text><path fill="#e5e2da" d="M24 200h752v1H24z"/><g fill="#44403c" font-family="system-ui, sans-serif" font-size="12"><rect width="14" height="14" x="40" y="220" fill="#e8f3f3" stroke="#1a6363" rx="4"/><text x="62" y="232">연차 (3일)</text><rect width="14" height="14" x="170" y="220" fill="#fef0ed" stroke="#d95740" rx="4"/><text x="192" y="232">공휴일</text><rect width="14" height="14" x="280" y="220" fill="#eef6f1" stroke="#4a7c5e" rx="4"/><text x="302" y="232">대체공휴일</text><rect width="14" height="14" x="420" y="220" fill="#eeecea" rx="4"/><text x="442" y="232">주말</text></g><rect width="752" height="56" x="24" y="256" fill="#1a6363" rx="12"/><text x="400" y="282" fill="#fff" font-family="system-ui, sans-serif" font-size="13" opacity=".75" text-anchor="middle">연차 단 3일로</text><text x="400" y="300" fill="#fff" font-family="Georgia, serif" font-size="17" font-weight="600" text-anchor="middle">9일 연속 휴가 (2/6~14) — 3.0배 효율</text></svg>