<svg xmlns="http://www.w3.org/2000/svg" viewBox="0 0 800 160" fill="none">
  <rect width="800" height="160" rx="16" fill="#F7F6F2"/>

  <!-- Header bar -->
  <rect x="24" y="16" width="752" height="32" rx="8" fill="#1A6363"/>
  <text x="400" y="37" text-anchor="middle" font-family="Georgia, serif" font-size="14" font-weight="700" fill="#FFF">2026년 대체공휴일 한눈에 보기</text>

  <!-- Month cells: 12 months in a row -->
  <!-- Each cell: width=58, gap=4, total = 12*58 + 11*4 = 740, start x = 30 -->

  <!-- 1월 — neutral -->
  <rect x="30" y="58" width="58" height="82" rx="8" fill="#FFF" stroke="#E5E2DA" stroke-width="1"/>
  <text x="59" y="76" text-anchor="middle" font-family="system-ui, sans-serif" font-size="12" font-weight="600" fill="#78716C">1월</text>
  <text x="59" y="95" text-anchor="middle" font-family="system-ui, sans-serif" font-size="10" fill="#78716C">-</text>

  <!-- 2월 — neutral -->
  <rect x="92" y="58" width="58" height="82" rx="8" fill="#FFF" stroke="#E5E2DA" stroke-width="1"/>
  <text x="121" y="76" text-anchor="middle" font-family="system-ui, sans-serif" font-size="12" font-weight="600" fill="#78716C">2월</text>
  <text x="121" y="95" text-anchor="middle" font-family="system-ui, sans-serif" font-size="10" fill="#78716C">-</text>

  <!-- 3월 — highlighted (삼일절) -->
  <rect x="154" y="58" width="58" height="82" rx="8" fill="#E8F3F3" stroke="#1A6363" stroke-width="1.5"/>
  <rect x="162" y="62" width="42" height="16" rx="4" fill="#1A6363"/>
  <text x="183" y="74" text-anchor="middle" font-family="system-ui, sans-serif" font-size="10" font-weight="700" fill="#FFF">3월</text>
  <text x="183" y="96" text-anchor="middle" font-family="system-ui, sans-serif" font-size="10" font-weight="600" fill="#1A6363">삼일절</text>
  <text x="183" y="110" text-anchor="middle" font-family="system-ui, sans-serif" font-size="10" fill="#1A6363">3/2 (월)</text>
  <circle cx="183" cy="130" r="3" fill="#1A6363" opacity="0.3"/>

  <!-- 4월 — neutral -->
  <rect x="216" y="58" width="58" height="82" rx="8" fill="#FFF" stroke="#E5E2DA" stroke-width="1"/>
  <text x="245" y="76" text-anchor="middle" font-family="system-ui, sans-serif" font-size="12" font-weight="600" fill="#78716C">4월</text>
  <text x="245" y="95" text-anchor="middle" font-family="system-ui, sans-serif" font-size="10" fill="#78716C">-</text>

  <!-- 5월 — highlighted (부처님오신날) -->
  <rect x="278" y="58" width="58" height="82" rx="8" fill="#EEF6F1" stroke="#4A7C5E" stroke-width="1.5"/>
  <rect x="286" y="62" width="42" height="16" rx="4" fill="#4A7C5E"/>
  <text x="307" y="74" text-anchor="middle" font-family="system-ui, sans-serif" font-size="10" font-weight="700" fill="#FFF">5월</text>
  <text x="307" y="96" text-anchor="middle" font-family="system-ui, sans-serif" font-size="10" font-weight="600" fill="#4A7C5E">석가탄신</text>
  <text x="307" y="110" text-anchor="middle" font-family="system-ui, sans-serif" font-size="10" fill="#4A7C5E">5/25 (월)</text>
  <circle cx="307" cy="130" r="3" fill="#4A7C5E" opacity="0.3"/>

  <!-- 6월 — neutral -->
  <rect x="340" y="58" width="58" height="82" rx="8" fill="#FFF" stroke="#E5E2DA" stroke-width="1"/>
  <text x="369" y="76" text-anchor="middle" font-family="system-ui, sans-serif" font-size="12" font-weight="600" fill="#78716C">6월</text>
  <text x="369" y="95" text-anchor="middle" font-family="system-ui, sans-serif" font-size="10" fill="#78716C">-</text>

  <!-- 7월 — neutral -->
  <rect x="402" y="58" width="58" height="82" rx="8" fill="#FFF" stroke="#E5E2DA" stroke-width="1"/>
  <text x="431" y="76" text-anchor="middle" font-family="system-ui, sans-serif" font-size="12" font-weight="600" fill="#78716C">7월</text>
  <text x="431" y="95" text-anchor="middle" font-family="system-ui, sans-serif" font-size="10" fill="#78716C">-</text>

  <!-- 8월 — highlighted (광복절) -->
  <rect x="464" y="58" width="58" height="82" rx="8" fill="#FEF0ED" stroke="#D95740" stroke-width="1.5"/>
  <rect x="472" y="62" width="42" height="16" rx="4" fill="#D95740"/>
  <text x="493" y="74" text-anchor="middle" font-family="system-ui, sans-serif" font-size="10" font-weight="700" fill="#FFF">8월</text>
  <text x="493" y="96" text-anchor="middle" font-family="system-ui, sans-serif" font-size="10" font-weight="600" fill="#D95740">광복절</text>
  <text x="493" y="110" text-anchor="middle" font-family="system-ui, sans-serif" font-size="10" fill="#D95740">8/17 (월)</text>
  <circle cx="493" cy="130" r="3" fill="#D95740" opacity="0.3"/>

  <!-- 9월 — highlighted (추석) -->
  <rect x="526" y="58" width="58" height="82" rx="8" fill="#FDF4E7" stroke="#C4872A" stroke-width="1.5"/>
  <rect x="534" y="62" width="42" height="16" rx="4" fill="#C4872A"/>
  <text x="555" y="74" text-anchor="middle" font-family="system-ui, sans-serif" font-size="10" font-weight="700" fill="#FFF">9월</text>
  <text x="555" y="96" text-anchor="middle" font-family="system-ui, sans-serif" font-size="10" font-weight="600" fill="#C4872A">추석</text>
  <text x="555" y="110" text-anchor="middle" font-family="system-ui, sans-serif" font-size="10" fill="#C4872A">9/28 (월)</text>
  <circle cx="555" cy="130" r="3" fill="#C4872A" opacity="0.3"/>

  <!-- 10월 — highlighted (개천절) -->
  <rect x="588" y="58" width="58" height="82" rx="8" fill="#E8F3F3" stroke="#1A6363" stroke-width="1.5"/>
  <rect x="596" y="62" width="42" height="16" rx="4" fill="#1A6363"/>
  <text x="617" y="74" text-anchor="middle" font-family="system-ui, sans-serif" font-size="10" font-weight="700" fill="#FFF">10월</text>
  <text x="617" y="96" text-anchor="middle" font-family="system-ui, sans-serif" font-size="10" font-weight="600" fill="#1A6363">개천절</text>
  <text x="617" y="110" text-anchor="middle" font-family="system-ui, sans-serif" font-size="10" fill="#1A6363">10/5 (월)</text>
  <circle cx="617" cy="130" r="3" fill="#1A6363" opacity="0.3"/>

  <!-- 11월 — neutral -->
  <rect x="650" y="58" width="58" height="82" rx="8" fill="#FFF" stroke="#E5E2DA" stroke-width="1"/>
  <text x="679" y="76" text-anchor="middle" font-family="system-ui, sans-serif" font-size="12" font-weight="600" fill="#78716C">11월</text>
  <text x="679" y="95" text-anchor="middle" font-family="system-ui, sans-serif" font-size="10" fill="#78716C">-</text>

  <!-- 12월 — neutral -->
  <rect x="712" y="58" width="58" height="82" rx="8" fill="#FFF" stroke="#E5E2DA" stroke-width="1"/>
  <text x="741" y="76" text-anchor="middle" font-family="system-ui, sans-serif" font-size="12" font-weight="600" fill="#78716C">12월</text>
  <text x="741" y="95" text-anchor="middle" font-family="system-ui, sans-serif" font-size="10" fill="#78716C">-</text>
</svg>