<svg xmlns="http://www.w3.org/2000/svg" fill="none" viewBox="0 0 800 160"><rect width="800" height="160" fill="#1a6363" rx="16"/><text x="400" y="32" fill="#fff" font-family="system-ui, sans-serif" font-size="11" font-weight="600" letter-spacing="1" opacity=".6" text-anchor="middle">항공권 예약 타임라인</text><rect width="704" height="4" x="48" y="62" fill="#fff" opacity=".12" rx="2"/><g fill="#fff" font-family="system-ui, sans-serif" font-size="10" opacity=".5" text-anchor="middle"><text x="48" y="52">4월</text><text x="189" y="52">5월</text><text x="330" y="52">6월</text><text x="471" y="52">7월</text><text x="612" y="52">8월</text></g><g fill="#fff" opacity=".3"><rect width="2" height="12" x="47" y="58" rx="1"/><rect width="2" height="12" x="188" y="58" rx="1"/><rect width="2" height="12" x="329" y="58" rx="1"/><rect width="2" height="12" x="470" y="58" rx="1"/><rect width="2" height="12" x="611" y="58" rx="1"/></g><circle cx="48" cy="64" r="7" fill="#d95740"/><circle cx="48" cy="64" r="3" fill="#fff"/><text x="68" y="44" fill="#fff" font-family="system-ui, sans-serif" font-size="11" font-weight="700">지금</text><rect width="190" height="10" x="40" y="59" fill="#fff" opacity=".18" rx="5"/><circle cx="495" cy="64" r="5" fill="#fff" opacity=".4"/><text x="495" y="44" fill="#fff" font-family="system-ui, sans-serif" font-size="10" font-weight="600" opacity=".6" text-anchor="middle">7/17 제헌절</text><circle cx="650" cy="64" r="5" fill="#fff" opacity=".4"/><text x="650" y="44" fill="#fff" font-family="system-ui, sans-serif" font-size="10" font-weight="600" opacity=".6" text-anchor="middle">8/15 광복절</text><g fill="#fff" font-family="system-ui, sans-serif" font-size="10" opacity=".45"><text x="340" y="56">+10%</text><text x="440" y="56">+25%</text><text x="580" y="56">+30%</text></g><g fill="#fff" font-family="system-ui, sans-serif"><rect width="220" height="44" x="48" y="88" stroke="#fff" stroke-opacity=".2" stroke-width=".5" opacity=".08" rx="8"/><text x="158" y="108" font-size="12" font-weight="600" text-anchor="middle">최적 예약 구간</text><text x="158" y="124" font-size="11" opacity=".6" text-anchor="middle">5월까지 — 기준가 최저</text><rect width="220" height="44" x="288" y="88" stroke="#fff" stroke-opacity=".2" stroke-width=".5" opacity=".08" rx="8"/><text x="398" y="108" font-size="12" font-weight="600" text-anchor="middle">7월 제헌절 여행</text><text x="398" y="124" font-size="11" opacity=".6" text-anchor="middle">6월 이후 +10~25% 상승</text><rect width="224" height="44" x="528" y="88" stroke="#fff" stroke-opacity=".2" stroke-width=".5" opacity=".08" rx="8"/><text x="640" y="108" font-size="12" font-weight="600" text-anchor="middle">8월 광복절 여행</text><text x="640" y="124" font-size="11" opacity=".6" text-anchor="middle">7월 직전 +25~40% 급등</text></g></svg>