<svg xmlns="http://www.w3.org/2000/svg" viewBox="0 0 800 220" fill="none">
  <rect width="800" height="220" rx="16" fill="#F7F6F2"/>

  <!-- Card 1: 삼일절 -->
  <rect x="24" y="24" width="140" height="172" rx="12" fill="#FFF" stroke="#E5E2DA" stroke-width="1"/>
  <rect x="24" y="24" width="140" height="44" rx="12" fill="#E8F3F3"/>
  <rect x="24" y="56" width="140" height="12" fill="#FFF"/>
  <text x="94" y="52" text-anchor="middle" font-family="system-ui, sans-serif" font-size="12" font-weight="700" fill="#1A6363">3/2 (월)</text>
  <text x="94" y="88" text-anchor="middle" font-family="Georgia, serif" font-size="14" font-weight="700" fill="#1C1917">삼일절</text>
  <text x="94" y="108" text-anchor="middle" font-family="system-ui, sans-serif" font-size="11" fill="#78716C">원래: 3/1 (일)</text>
  <rect x="36" y="124" width="116" height="26" rx="6" fill="#1A6363" opacity="0.07"/>
  <text x="94" y="141" text-anchor="middle" font-family="system-ui, sans-serif" font-size="11" font-weight="600" fill="#1A6363">3일 연휴</text>
  <text x="94" y="178" text-anchor="middle" font-family="system-ui, sans-serif" font-size="10" fill="#78716C">토·일·월</text>

  <!-- Card 2: 부처님오신날 -->
  <rect x="176" y="24" width="140" height="172" rx="12" fill="#FFF" stroke="#E5E2DA" stroke-width="1"/>
  <rect x="176" y="24" width="140" height="44" rx="12" fill="#EEF6F1"/>
  <rect x="176" y="56" width="140" height="12" fill="#FFF"/>
  <text x="246" y="52" text-anchor="middle" font-family="system-ui, sans-serif" font-size="12" font-weight="700" fill="#4A7C5E">5/25 (월)</text>
  <text x="246" y="88" text-anchor="middle" font-family="Georgia, serif" font-size="12" font-weight="700" fill="#1C1917">부처님오신날</text>
  <text x="246" y="108" text-anchor="middle" font-family="system-ui, sans-serif" font-size="11" fill="#78716C">원래: 5/24 (일)</text>
  <rect x="188" y="124" width="116" height="26" rx="6" fill="#4A7C5E" opacity="0.07"/>
  <text x="246" y="141" text-anchor="middle" font-family="system-ui, sans-serif" font-size="11" font-weight="600" fill="#4A7C5E">3일 연휴</text>
  <text x="246" y="178" text-anchor="middle" font-family="system-ui, sans-serif" font-size="10" fill="#78716C">토·일·월</text>

  <!-- Card 3: 광복절 -->
  <rect x="328" y="24" width="140" height="172" rx="12" fill="#FFF" stroke="#E5E2DA" stroke-width="1"/>
  <rect x="328" y="24" width="140" height="44" rx="12" fill="#FEF0ED"/>
  <rect x="328" y="56" width="140" height="12" fill="#FFF"/>
  <text x="398" y="52" text-anchor="middle" font-family="system-ui, sans-serif" font-size="12" font-weight="700" fill="#D95740">8/17 (월)</text>
  <text x="398" y="88" text-anchor="middle" font-family="Georgia, serif" font-size="14" font-weight="700" fill="#1C1917">광복절</text>
  <text x="398" y="108" text-anchor="middle" font-family="system-ui, sans-serif" font-size="11" fill="#78716C">원래: 8/15 (토)</text>
  <rect x="340" y="124" width="116" height="26" rx="6" fill="#D95740" opacity="0.07"/>
  <text x="398" y="141" text-anchor="middle" font-family="system-ui, sans-serif" font-size="11" font-weight="600" fill="#D95740">3일 연휴</text>
  <text x="398" y="178" text-anchor="middle" font-family="system-ui, sans-serif" font-size="10" fill="#78716C">토·일·월</text>

  <!-- Card 4: 추석 -->
  <rect x="480" y="24" width="140" height="172" rx="12" fill="#FFF" stroke="#E5E2DA" stroke-width="1"/>
  <rect x="480" y="24" width="140" height="44" rx="12" fill="#FDF4E7"/>
  <rect x="480" y="56" width="140" height="12" fill="#FFF"/>
  <text x="550" y="52" text-anchor="middle" font-family="system-ui, sans-serif" font-size="12" font-weight="700" fill="#C4872A">9/28 (월)</text>
  <text x="550" y="88" text-anchor="middle" font-family="Georgia, serif" font-size="14" font-weight="700" fill="#1C1917">추석</text>
  <text x="550" y="108" text-anchor="middle" font-family="system-ui, sans-serif" font-size="11" fill="#78716C">원래: 9/26 (토)</text>
  <rect x="492" y="124" width="116" height="26" rx="6" fill="#C4872A" opacity="0.07"/>
  <text x="550" y="141" text-anchor="middle" font-family="system-ui, sans-serif" font-size="11" font-weight="600" fill="#C4872A">5일 연휴</text>
  <text x="550" y="178" text-anchor="middle" font-family="system-ui, sans-serif" font-size="10" fill="#78716C">목·금·토·일·월</text>

  <!-- Card 5: 개천절 -->
  <rect x="632" y="24" width="140" height="172" rx="12" fill="#FFF" stroke="#E5E2DA" stroke-width="1"/>
  <rect x="632" y="24" width="140" height="44" rx="12" fill="#E8F3F3"/>
  <rect x="632" y="56" width="140" height="12" fill="#FFF"/>
  <text x="702" y="52" text-anchor="middle" font-family="system-ui, sans-serif" font-size="12" font-weight="700" fill="#1A6363">10/5 (월)</text>
  <text x="702" y="88" text-anchor="middle" font-family="Georgia, serif" font-size="14" font-weight="700" fill="#1C1917">개천절</text>
  <text x="702" y="108" text-anchor="middle" font-family="system-ui, sans-serif" font-size="11" fill="#78716C">원래: 10/3 (토)</text>
  <rect x="644" y="124" width="116" height="26" rx="6" fill="#1A6363" opacity="0.07"/>
  <text x="702" y="141" text-anchor="middle" font-family="system-ui, sans-serif" font-size="11" font-weight="600" fill="#1A6363">3일 연휴</text>
  <text x="702" y="178" text-anchor="middle" font-family="system-ui, sans-serif" font-size="10" fill="#78716C">토·일·월</text>
</svg>