<svg xmlns="http://www.w3.org/2000/svg" fill="none" viewBox="0 0 800 220"><rect width="800" height="220" fill="#f7f6f2" rx="16"/><rect width="176" height="172" x="24" y="24" fill="#fff" stroke="#e5e2da" rx="12"/><rect width="176" height="56" x="24" y="24" fill="#e8f3f3" rx="12"/><path fill="#fff" d="M24 68h176v12H24z"/><g fill="#1a6363" transform="translate(112 28)"><rect width="3" height="28" x="-1" y="18" opacity=".5" rx="1"/><path d="M0 20c-7-9-19-7-15-2 3-4 10-4 15 2M0 20c7-9 19-7 15-2-3-4-10-4-15 2" opacity=".4"/><path d="M0 18C-3 8-14 6-12 12c3-3 9-2 12 6M0 18C3 8 14 6 12 12c-3-3-9-2-12 6" opacity=".35"/></g><text x="112" y="100" fill="#1c1917" font-family="Georgia, serif" font-size="15" font-weight="700" text-anchor="middle">태국</text><text x="112" y="118" fill="#78716c" font-family="system-ui, sans-serif" font-size="11" text-anchor="middle">건기, 30°C 내외</text><text x="112" y="134" fill="#78716c" font-family="system-ui, sans-serif" font-size="11" text-anchor="middle">직항 5~6시간</text><rect width="112" height="26" x="56" y="152" fill="#1a6363" opacity=".07" rx="6"/><text x="112" y="169" fill="#1a6363" font-family="system-ui, sans-serif" font-size="11" font-weight="600" text-anchor="middle">30~50만원대</text><rect width="176" height="172" x="216" y="24" fill="#fff" stroke="#e5e2da" rx="12"/><rect width="176" height="56" x="216" y="24" fill="#eef6f1" rx="12"/><path fill="#fff" d="M216 68h176v12H216z"/><g fill="#4a7c5e" transform="translate(304 30)"><circle cy="12" r="14" opacity=".15"/><path d="M-8 18 0 6l8 12Z" opacity=".45"/><path d="m-4 18 4-8 4 8Z" opacity=".35"/><rect width="20" height="2" x="-10" y="18" opacity=".4" rx="1"/></g><text x="304" y="100" fill="#1c1917" font-family="Georgia, serif" font-size="15" font-weight="700" text-anchor="middle">베트남</text><text x="304" y="118" fill="#78716c" font-family="system-ui, sans-serif" font-size="11" text-anchor="middle">중남부 건기</text><text x="304" y="134" fill="#78716c" font-family="system-ui, sans-serif" font-size="11" text-anchor="middle">다낭 직항 4.5시간</text><rect width="112" height="26" x="248" y="152" fill="#4a7c5e" opacity=".07" rx="6"/><text x="304" y="169" fill="#4a7c5e" font-family="system-ui, sans-serif" font-size="11" font-weight="600" text-anchor="middle">가격 합리적</text><rect width="176" height="172" x="408" y="24" fill="#fff" stroke="#e5e2da" rx="12"/><rect width="176" height="56" x="408" y="24" fill="#fef0ed" rx="12"/><path fill="#fff" d="M408 68h176v12H408z"/><g fill="#d95740" transform="translate(496 30)"><circle cy="8" r="10" opacity=".2"/><path d="M-6 20c0-8 12-8 12 0Z" opacity=".4"/><rect width="16" height="3" x="-8" y="19" opacity=".35" rx="1.5"/></g><text x="496" y="100" fill="#1c1917" font-family="Georgia, serif" font-size="15" font-weight="700" text-anchor="middle">필리핀</text><text x="496" y="118" fill="#78716c" font-family="system-ui, sans-serif" font-size="11" text-anchor="middle">건기 절정, 세부 직항</text><text x="496" y="134" fill="#78716c" font-family="system-ui, sans-serif" font-size="11" text-anchor="middle">리조트 가성비 좋음</text><rect width="112" height="26" x="440" y="152" fill="#d95740" opacity=".07" rx="6"/><text x="496" y="169" fill="#d95740" font-family="system-ui, sans-serif" font-size="11" font-weight="600" text-anchor="middle">직항 4시간</text><rect width="176" height="172" x="600" y="24" fill="#fff" stroke="#e5e2da" rx="12"/><rect width="176" height="56" x="600" y="24" fill="#fdf4e7" rx="12"/><path fill="#fff" d="M600 68h176v12H600z"/><g fill="#c4872a" transform="translate(688 28)"><circle cy="6" r="10" opacity=".25"/><path d="m0 0 2-6-2 2-2-2ZM0 0l6-2-2 2 2 2ZM0 0l-6-2 2 2-2 2ZM0 0l2 6-2-2-2 2Z" opacity=".5"/><rect width="24" height="3" x="-12" y="20" opacity=".35" rx="1.5"/><path d="M-12 20c0-6 8-8 12-4 4-4 12-2 12 4Z" opacity=".25"/></g><text x="688" y="100" fill="#1c1917" font-family="Georgia, serif" font-size="15" font-weight="700" text-anchor="middle">괌</text><text x="688" y="118" fill="#78716c" font-family="system-ui, sans-serif" font-size="11" text-anchor="middle">건기, 비자 면제</text><text x="688" y="134" fill="#78716c" font-family="system-ui, sans-serif" font-size="11" text-anchor="middle">가족 여행 인기 구간</text><rect width="112" height="26" x="632" y="152" fill="#c4872a" opacity=".07" rx="6"/><text x="688" y="169" fill="#c4872a" font-family="system-ui, sans-serif" font-size="11" font-weight="600" text-anchor="middle">직항 4시간</text></svg>