<svg xmlns="http://www.w3.org/2000/svg" fill="none" viewBox="0 0 800 160"><rect width="800" height="160" fill="#1a6363" rx="16"/><text x="400" y="32" fill="#fff" font-family="system-ui, sans-serif" font-size="11" font-weight="600" letter-spacing="1" opacity=".6" text-anchor="middle">설날 항공권 예매 타임라인</text><rect width="704" height="4" x="48" y="62" fill="#fff" opacity=".12" rx="2"/><circle cx="120" cy="64" r="7" fill="#d95740"/><circle cx="120" cy="64" r="3" fill="#fff"/><text x="120" y="52" fill="#fff" font-family="system-ui, sans-serif" font-size="11" font-weight="700" text-anchor="middle">지금</text><rect width="200" height="10" x="100" y="59" fill="#fff" opacity=".18" rx="5"/><circle cx="700" cy="64" r="5" fill="#fff" opacity=".4"/><text x="700" y="52" fill="#fff" font-family="system-ui, sans-serif" font-size="10" font-weight="600" opacity=".6" text-anchor="middle">2/17</text><text x="120" y="80" fill="#fff" font-family="system-ui, sans-serif" font-size="10" opacity=".4" text-anchor="middle">12월</text><text x="310" y="80" fill="#fff" font-family="system-ui, sans-serif" font-size="10" opacity=".4" text-anchor="middle">1월 초</text><text x="500" y="80" fill="#fff" font-family="system-ui, sans-serif" font-size="10" opacity=".4" text-anchor="middle">1월 말</text><text x="700" y="80" fill="#fff" font-family="system-ui, sans-serif" font-size="10" opacity=".4" text-anchor="middle">2월</text><g fill="#fff" font-family="system-ui, sans-serif"><rect width="180" height="44" x="60" y="88" stroke="#fff" stroke-opacity=".2" stroke-width=".5" opacity=".08" rx="8"/><text x="150" y="108" font-size="12" font-weight="600" text-anchor="middle">12월 예매 최적</text><text x="150" y="124" font-size="11" opacity=".6" text-anchor="middle">기준가 — 가장 저렴</text><rect width="210" height="44" x="260" y="88" stroke="#fff" stroke-opacity=".2" stroke-width=".5" opacity=".08" rx="8"/><text x="365" y="108" font-size="12" font-weight="600" text-anchor="middle">1월 초 — 마지노선</text><text x="365" y="124" font-size="11" opacity=".6" text-anchor="middle">+10~20% 상승 시작</text><rect width="184" height="44" x="490" y="88" stroke="#fff" stroke-opacity=".2" stroke-width=".5" opacity=".08" rx="8"/><text x="582" y="108" font-size="12" font-weight="600" text-anchor="middle">1월 말~2월</text><text x="582" y="124" font-size="11" opacity=".6" text-anchor="middle">+40~60%, 매진 다수</text></g></svg>