<svg xmlns="http://www.w3.org/2000/svg" fill="none" viewBox="0 0 800 340"><rect width="800" height="340" fill="#f7f6f2" rx="16"/><rect width="800" height="52" fill="#1a6363" rx="16"/><path fill="#1a6363" d="M0 28h800v24H0z"/><text x="400" y="35" fill="#fff" font-family="Georgia, serif" font-size="18" font-weight="600" text-anchor="middle">2026년 설날 연휴 — 최적 연차 배치</text><g fill="#78716c" font-family="system-ui, sans-serif" font-size="11" font-weight="600" text-anchor="middle"><text x="50" y="80">토</text><text x="134" y="80">일</text><text x="218" y="80">월</text><text x="302" y="80">화</text><text x="386" y="80">수</text><text x="470" y="80">목</text><text x="554" y="80">금</text><text x="644" y="80">토</text><text x="728" y="80">일</text></g><rect width="52" height="88" x="24" y="92" fill="#eeecea" rx="12"/><text x="50" y="128" fill="#78716c" font-family="Georgia, serif" font-size="22" font-weight="700" text-anchor="middle">14</text><text x="50" y="150" fill="#78716c" font-family="system-ui, sans-serif" font-size="10" text-anchor="middle">주말</text><rect width="52" height="88" x="82" y="92" fill="#eeecea" rx="12"/><text x="108" y="128" fill="#78716c" font-family="Georgia, serif" font-size="22" font-weight="700" text-anchor="middle">15</text><text x="108" y="150" fill="#78716c" font-family="system-ui, sans-serif" font-size="10" text-anchor="middle">주말</text><rect width="52" height="88" x="166" y="92" fill="#fef0ed" stroke="#d95740" stroke-width="1.5" rx="12"/><text x="192" y="124" fill="#d95740" font-family="Georgia, serif" font-size="22" font-weight="700" text-anchor="middle">16</text><text x="192" y="144" fill="#d95740" font-family="system-ui, sans-serif" font-size="10" font-weight="600" text-anchor="middle">설날</text><text x="192" y="156" fill="#d95740" font-family="system-ui, sans-serif" font-size="10" font-weight="600" text-anchor="middle">전날</text><rect width="52" height="88" x="224" y="92" fill="#fef0ed" stroke="#d95740" stroke-width="1.5" rx="12"/><text x="250" y="124" fill="#d95740" font-family="Georgia, serif" font-size="22" font-weight="700" text-anchor="middle">17</text><text x="250" y="148" fill="#d95740" font-family="system-ui, sans-serif" font-size="10" font-weight="600" text-anchor="middle">설날</text><rect width="52" height="88" x="282" y="92" fill="#fef0ed" stroke="#d95740" stroke-width="1.5" rx="12"/><text x="308" y="124" fill="#d95740" font-family="Georgia, serif" font-size="22" font-weight="700" text-anchor="middle">18</text><text x="308" y="144" fill="#d95740" font-family="system-ui, sans-serif" font-size="10" font-weight="600" text-anchor="middle">설날</text><text x="308" y="156" fill="#d95740" font-family="system-ui, sans-serif" font-size="10" font-weight="600" text-anchor="middle">다음날</text><rect width="52" height="88" x="366" y="92" fill="#e8f3f3" stroke="#1a6363" stroke-width="1.5" rx="12"/><text x="392" y="124" fill="#1a6363" font-family="Georgia, serif" font-size="22" font-weight="700" text-anchor="middle">19</text><text x="392" y="148" fill="#1a6363" font-family="system-ui, sans-serif" font-size="10" font-weight="700" text-anchor="middle">연차</text><rect width="52" height="88" x="424" y="92" fill="#e8f3f3" stroke="#1a6363" stroke-width="1.5" rx="12"/><text x="450" y="124" fill="#1a6363" font-family="Georgia, serif" font-size="22" font-weight="700" text-anchor="middle">20</text><text x="450" y="148" fill="#1a6363" font-family="system-ui, sans-serif" font-size="10" font-weight="700" text-anchor="middle">연차</text><rect width="52" height="88" x="508" y="92" fill="#eeecea" rx="12"/><text x="534" y="128" fill="#78716c" font-family="Georgia, serif" font-size="22" font-weight="700" text-anchor="middle">21</text><text x="534" y="150" fill="#78716c" font-family="system-ui, sans-serif" font-size="10" text-anchor="middle">주말</text><rect width="52" height="88" x="566" y="92" fill="#eeecea" rx="12"/><text x="592" y="128" fill="#78716c" font-family="Georgia, serif" font-size="22" font-weight="700" text-anchor="middle">22</text><text x="592" y="150" fill="#78716c" font-family="system-ui, sans-serif" font-size="10" text-anchor="middle">주말</text><path stroke="#1a6363" stroke-dasharray="4 3" stroke-width="2" d="M24 188h594" opacity=".4"/><text x="700" y="192" fill="#1a6363" font-family="system-ui, sans-serif" font-size="12" font-weight="700" text-anchor="middle">9일 연속</text><path fill="#e5e2da" d="M24 206h752v1H24z"/><g fill="#44403c" font-family="system-ui, sans-serif" font-size="12"><rect width="14" height="14" x="40" y="222" fill="#e8f3f3" stroke="#1a6363" rx="4"/><text x="62" y="234">연차 (2일)</text><rect width="14" height="14" x="180" y="222" fill="#fef0ed" stroke="#d95740" rx="4"/><text x="202" y="234">공휴일</text><rect width="14" height="14" x="290" y="222" fill="#eeecea" rx="4"/><text x="312" y="234">주말</text></g><rect width="752" height="56" x="24" y="256" fill="#1a6363" rx="12"/><text x="400" y="280" fill="#fff" font-family="system-ui, sans-serif" font-size="13" opacity=".75" text-anchor="middle">연차 단 2일로</text><text x="400" y="300" fill="#fff" font-family="Georgia, serif" font-size="17" font-weight="600" text-anchor="middle">2월 14일~22일, 9일 연속 휴가 — 4.5배 효율</text></svg>