<svg xmlns="http://www.w3.org/2000/svg" fill="none" viewBox="0 0 800 160"><rect width="800" height="160" fill="#f7f6f2" rx="16"/><rect width="752" height="32" x="24" y="16" fill="#1a6363" rx="8"/><text x="400" y="37" fill="#fff" font-family="Georgia, serif" font-size="14" font-weight="700" text-anchor="middle">2026년 대체공휴일 한눈에 보기</text><rect width="58" height="82" x="30" y="58" fill="#fff" stroke="#e5e2da" rx="8"/><text x="59" y="76" fill="#78716c" font-family="system-ui, sans-serif" font-size="12" font-weight="600" text-anchor="middle">1월</text><text x="59" y="95" fill="#78716c" font-family="system-ui, sans-serif" font-size="10" text-anchor="middle">-</text><rect width="58" height="82" x="92" y="58" fill="#fff" stroke="#e5e2da" rx="8"/><text x="121" y="76" fill="#78716c" font-family="system-ui, sans-serif" font-size="12" font-weight="600" text-anchor="middle">2월</text><text x="121" y="95" fill="#78716c" font-family="system-ui, sans-serif" font-size="10" text-anchor="middle">-</text><rect width="58" height="82" x="154" y="58" fill="#e8f3f3" stroke="#1a6363" stroke-width="1.5" rx="8"/><rect width="42" height="16" x="162" y="62" fill="#1a6363" rx="4"/><text x="183" y="74" fill="#fff" font-family="system-ui, sans-serif" font-size="10" font-weight="700" text-anchor="middle">3월</text><text x="183" y="96" fill="#1a6363" font-family="system-ui, sans-serif" font-size="10" font-weight="600" text-anchor="middle">삼일절</text><text x="183" y="110" fill="#1a6363" font-family="system-ui, sans-serif" font-size="10" text-anchor="middle">3/2 (월)</text><circle cx="183" cy="130" r="3" fill="#1a6363" opacity=".3"/><rect width="58" height="82" x="216" y="58" fill="#fff" stroke="#e5e2da" rx="8"/><text x="245" y="76" fill="#78716c" font-family="system-ui, sans-serif" font-size="12" font-weight="600" text-anchor="middle">4월</text><text x="245" y="95" fill="#78716c" font-family="system-ui, sans-serif" font-size="10" text-anchor="middle">-</text><rect width="58" height="82" x="278" y="58" fill="#eef6f1" stroke="#4a7c5e" stroke-width="1.5" rx="8"/><rect width="42" height="16" x="286" y="62" fill="#4a7c5e" rx="4"/><text x="307" y="74" fill="#fff" font-family="system-ui, sans-serif" font-size="10" font-weight="700" text-anchor="middle">5월</text><text x="307" y="96" fill="#4a7c5e" font-family="system-ui, sans-serif" font-size="10" font-weight="600" text-anchor="middle">석가탄신</text><text x="307" y="110" fill="#4a7c5e" font-family="system-ui, sans-serif" font-size="10" text-anchor="middle">5/25 (월)</text><circle cx="307" cy="130" r="3" fill="#4a7c5e" opacity=".3"/><rect width="58" height="82" x="340" y="58" fill="#fff" stroke="#e5e2da" rx="8"/><text x="369" y="76" fill="#78716c" font-family="system-ui, sans-serif" font-size="12" font-weight="600" text-anchor="middle">6월</text><text x="369" y="95" fill="#78716c" font-family="system-ui, sans-serif" font-size="10" text-anchor="middle">-</text><rect width="58" height="82" x="402" y="58" fill="#fff" stroke="#e5e2da" rx="8"/><text x="431" y="76" fill="#78716c" font-family="system-ui, sans-serif" font-size="12" font-weight="600" text-anchor="middle">7월</text><text x="431" y="95" fill="#78716c" font-family="system-ui, sans-serif" font-size="10" text-anchor="middle">-</text><rect width="58" height="82" x="464" y="58" fill="#fef0ed" stroke="#d95740" stroke-width="1.5" rx="8"/><rect width="42" height="16" x="472" y="62" fill="#d95740" rx="4"/><text x="493" y="74" fill="#fff" font-family="system-ui, sans-serif" font-size="10" font-weight="700" text-anchor="middle">8월</text><text x="493" y="96" fill="#d95740" font-family="system-ui, sans-serif" font-size="10" font-weight="600" text-anchor="middle">광복절</text><text x="493" y="110" fill="#d95740" font-family="system-ui, sans-serif" font-size="10" text-anchor="middle">8/17 (월)</text><circle cx="493" cy="130" r="3" fill="#d95740" opacity=".3"/><rect width="58" height="82" x="526" y="58" fill="#fdf4e7" stroke="#c4872a" stroke-width="1.5" rx="8"/><rect width="42" height="16" x="534" y="62" fill="#c4872a" rx="4"/><text x="555" y="74" fill="#fff" font-family="system-ui, sans-serif" font-size="10" font-weight="700" text-anchor="middle">9월</text><text x="555" y="96" fill="#c4872a" font-family="system-ui, sans-serif" font-size="10" font-weight="600" text-anchor="middle">추석</text><text x="555" y="110" fill="#c4872a" font-family="system-ui, sans-serif" font-size="10" text-anchor="middle">9/28 (월)</text><circle cx="555" cy="130" r="3" fill="#c4872a" opacity=".3"/><rect width="58" height="82" x="588" y="58" fill="#e8f3f3" stroke="#1a6363" stroke-width="1.5" rx="8"/><rect width="42" height="16" x="596" y="62" fill="#1a6363" rx="4"/><text x="617" y="74" fill="#fff" font-family="system-ui, sans-serif" font-size="10" font-weight="700" text-anchor="middle">10월</text><text x="617" y="96" fill="#1a6363" font-family="system-ui, sans-serif" font-size="10" font-weight="600" text-anchor="middle">개천절</text><text x="617" y="110" fill="#1a6363" font-family="system-ui, sans-serif" font-size="10" text-anchor="middle">10/5 (월)</text><circle cx="617" cy="130" r="3" fill="#1a6363" opacity=".3"/><rect width="58" height="82" x="650" y="58" fill="#fff" stroke="#e5e2da" rx="8"/><text x="679" y="76" fill="#78716c" font-family="system-ui, sans-serif" font-size="12" font-weight="600" text-anchor="middle">11월</text><text x="679" y="95" fill="#78716c" font-family="system-ui, sans-serif" font-size="10" text-anchor="middle">-</text><rect width="58" height="82" x="712" y="58" fill="#fff" stroke="#e5e2da" rx="8"/><text x="741" y="76" fill="#78716c" font-family="system-ui, sans-serif" font-size="12" font-weight="600" text-anchor="middle">12월</text><text x="741" y="95" fill="#78716c" font-family="system-ui, sans-serif" font-size="10" text-anchor="middle">-</text></svg>