<svg xmlns="http://www.w3.org/2000/svg" fill="none" viewBox="0 0 800 220"><rect width="800" height="220" fill="#f7f6f2" rx="16"/><rect width="140" height="172" x="24" y="24" fill="#fff" stroke="#e5e2da" rx="12"/><rect width="140" height="44" x="24" y="24" fill="#e8f3f3" rx="12"/><path fill="#fff" d="M24 56h140v12H24z"/><text x="94" y="52" fill="#1a6363" font-family="system-ui, sans-serif" font-size="12" font-weight="700" text-anchor="middle">3/2 (월)</text><text x="94" y="88" fill="#1c1917" font-family="Georgia, serif" font-size="14" font-weight="700" text-anchor="middle">삼일절</text><text x="94" y="108" fill="#78716c" font-family="system-ui, sans-serif" font-size="11" text-anchor="middle">원래: 3/1 (일)</text><rect width="116" height="26" x="36" y="124" fill="#1a6363" opacity=".07" rx="6"/><text x="94" y="141" fill="#1a6363" font-family="system-ui, sans-serif" font-size="11" font-weight="600" text-anchor="middle">3일 연휴</text><text x="94" y="178" fill="#78716c" font-family="system-ui, sans-serif" font-size="10" text-anchor="middle">토·일·월</text><rect width="140" height="172" x="176" y="24" fill="#fff" stroke="#e5e2da" rx="12"/><rect width="140" height="44" x="176" y="24" fill="#eef6f1" rx="12"/><path fill="#fff" d="M176 56h140v12H176z"/><text x="246" y="52" fill="#4a7c5e" font-family="system-ui, sans-serif" font-size="12" font-weight="700" text-anchor="middle">5/25 (월)</text><text x="246" y="88" fill="#1c1917" font-family="Georgia, serif" font-size="12" font-weight="700" text-anchor="middle">부처님오신날</text><text x="246" y="108" fill="#78716c" font-family="system-ui, sans-serif" font-size="11" text-anchor="middle">원래: 5/24 (일)</text><rect width="116" height="26" x="188" y="124" fill="#4a7c5e" opacity=".07" rx="6"/><text x="246" y="141" fill="#4a7c5e" font-family="system-ui, sans-serif" font-size="11" font-weight="600" text-anchor="middle">3일 연휴</text><text x="246" y="178" fill="#78716c" font-family="system-ui, sans-serif" font-size="10" text-anchor="middle">토·일·월</text><rect width="140" height="172" x="328" y="24" fill="#fff" stroke="#e5e2da" rx="12"/><rect width="140" height="44" x="328" y="24" fill="#fef0ed" rx="12"/><path fill="#fff" d="M328 56h140v12H328z"/><text x="398" y="52" fill="#d95740" font-family="system-ui, sans-serif" font-size="12" font-weight="700" text-anchor="middle">8/17 (월)</text><text x="398" y="88" fill="#1c1917" font-family="Georgia, serif" font-size="14" font-weight="700" text-anchor="middle">광복절</text><text x="398" y="108" fill="#78716c" font-family="system-ui, sans-serif" font-size="11" text-anchor="middle">원래: 8/15 (토)</text><rect width="116" height="26" x="340" y="124" fill="#d95740" opacity=".07" rx="6"/><text x="398" y="141" fill="#d95740" font-family="system-ui, sans-serif" font-size="11" font-weight="600" text-anchor="middle">3일 연휴</text><text x="398" y="178" fill="#78716c" font-family="system-ui, sans-serif" font-size="10" text-anchor="middle">토·일·월</text><rect width="140" height="172" x="480" y="24" fill="#fff" stroke="#e5e2da" rx="12"/><rect width="140" height="44" x="480" y="24" fill="#fdf4e7" rx="12"/><path fill="#fff" d="M480 56h140v12H480z"/><text x="550" y="52" fill="#c4872a" font-family="system-ui, sans-serif" font-size="12" font-weight="700" text-anchor="middle">9/28 (월)</text><text x="550" y="88" fill="#1c1917" font-family="Georgia, serif" font-size="14" font-weight="700" text-anchor="middle">추석</text><text x="550" y="108" fill="#78716c" font-family="system-ui, sans-serif" font-size="11" text-anchor="middle">원래: 9/26 (토)</text><rect width="116" height="26" x="492" y="124" fill="#c4872a" opacity=".07" rx="6"/><text x="550" y="141" fill="#c4872a" font-family="system-ui, sans-serif" font-size="11" font-weight="600" text-anchor="middle">5일 연휴</text><text x="550" y="178" fill="#78716c" font-family="system-ui, sans-serif" font-size="10" text-anchor="middle">목·금·토·일·월</text><rect width="140" height="172" x="632" y="24" fill="#fff" stroke="#e5e2da" rx="12"/><rect width="140" height="44" x="632" y="24" fill="#e8f3f3" rx="12"/><path fill="#fff" d="M632 56h140v12H632z"/><text x="702" y="52" fill="#1a6363" font-family="system-ui, sans-serif" font-size="12" font-weight="700" text-anchor="middle">10/5 (월)</text><text x="702" y="88" fill="#1c1917" font-family="Georgia, serif" font-size="14" font-weight="700" text-anchor="middle">개천절</text><text x="702" y="108" fill="#78716c" font-family="system-ui, sans-serif" font-size="11" text-anchor="middle">원래: 10/3 (토)</text><rect width="116" height="26" x="644" y="124" fill="#1a6363" opacity=".07" rx="6"/><text x="702" y="141" fill="#1a6363" font-family="system-ui, sans-serif" font-size="11" font-weight="600" text-anchor="middle">3일 연휴</text><text x="702" y="178" fill="#78716c" font-family="system-ui, sans-serif" font-size="10" text-anchor="middle">토·일·월</text></svg>