<svg xmlns="http://www.w3.org/2000/svg" viewBox="0 0 800 340" fill="none">
  <rect width="800" height="340" rx="16" fill="#F7F6F2"/>
  <rect y="0" width="800" height="52" rx="16" fill="#1A6363"/>
  <rect y="28" width="800" height="24" fill="#1A6363"/>
  <text x="400" y="35" text-anchor="middle" font-family="Georgia, serif" font-size="18" font-weight="600" fill="#FFF">2026년 설날 연휴 — 최적 연차 배치</text>

  <!-- Day headers -->
  <g font-family="system-ui, sans-serif" font-size="11" font-weight="600" fill="#78716C" text-anchor="middle">
    <text x="50" y="80">토</text>
    <text x="134" y="80">일</text>
    <text x="218" y="80">월</text>
    <text x="302" y="80">화</text>
    <text x="386" y="80">수</text>
    <text x="470" y="80">목</text>
    <text x="554" y="80">금</text>
    <text x="644" y="80">토</text>
    <text x="728" y="80">일</text>
  </g>

  <!-- 2/14 Sat — Weekend -->
  <rect x="24" y="92" width="52" height="88" rx="12" fill="#EEECEA"/>
  <text x="50" y="128" text-anchor="middle" font-family="Georgia, serif" font-size="22" font-weight="700" fill="#78716C">14</text>
  <text x="50" y="150" text-anchor="middle" font-family="system-ui, sans-serif" font-size="10" fill="#78716C">주말</text>

  <!-- 2/15 Sun — Weekend -->
  <rect x="82" y="92" width="52" height="88" rx="12" fill="#EEECEA"/>
  <text x="108" y="128" text-anchor="middle" font-family="Georgia, serif" font-size="22" font-weight="700" fill="#78716C">15</text>
  <text x="108" y="150" text-anchor="middle" font-family="system-ui, sans-serif" font-size="10" fill="#78716C">주말</text>

  <!-- padding between sections -->

  <!-- 2/16 Mon — Holiday (설 전날) -->
  <rect x="166" y="92" width="52" height="88" rx="12" fill="#FEF0ED" stroke="#D95740" stroke-width="1.5"/>
  <text x="192" y="124" text-anchor="middle" font-family="Georgia, serif" font-size="22" font-weight="700" fill="#D95740">16</text>
  <text x="192" y="144" text-anchor="middle" font-family="system-ui, sans-serif" font-size="10" font-weight="600" fill="#D95740">설날</text>
  <text x="192" y="156" text-anchor="middle" font-family="system-ui, sans-serif" font-size="10" font-weight="600" fill="#D95740">전날</text>

  <!-- 2/17 Tue — Holiday (설날) -->
  <rect x="224" y="92" width="52" height="88" rx="12" fill="#FEF0ED" stroke="#D95740" stroke-width="1.5"/>
  <text x="250" y="124" text-anchor="middle" font-family="Georgia, serif" font-size="22" font-weight="700" fill="#D95740">17</text>
  <text x="250" y="148" text-anchor="middle" font-family="system-ui, sans-serif" font-size="10" font-weight="600" fill="#D95740">설날</text>

  <!-- 2/18 Wed — Holiday (설 다음날) -->
  <rect x="282" y="92" width="52" height="88" rx="12" fill="#FEF0ED" stroke="#D95740" stroke-width="1.5"/>
  <text x="308" y="124" text-anchor="middle" font-family="Georgia, serif" font-size="22" font-weight="700" fill="#D95740">18</text>
  <text x="308" y="144" text-anchor="middle" font-family="system-ui, sans-serif" font-size="10" font-weight="600" fill="#D95740">설날</text>
  <text x="308" y="156" text-anchor="middle" font-family="system-ui, sans-serif" font-size="10" font-weight="600" fill="#D95740">다음날</text>

  <!-- padding between sections -->

  <!-- 2/19 Thu — PTO -->
  <rect x="366" y="92" width="52" height="88" rx="12" fill="#E8F3F3" stroke="#1A6363" stroke-width="1.5"/>
  <text x="392" y="124" text-anchor="middle" font-family="Georgia, serif" font-size="22" font-weight="700" fill="#1A6363">19</text>
  <text x="392" y="148" text-anchor="middle" font-family="system-ui, sans-serif" font-size="10" font-weight="700" fill="#1A6363">연차</text>

  <!-- 2/20 Fri — PTO -->
  <rect x="424" y="92" width="52" height="88" rx="12" fill="#E8F3F3" stroke="#1A6363" stroke-width="1.5"/>
  <text x="450" y="124" text-anchor="middle" font-family="Georgia, serif" font-size="22" font-weight="700" fill="#1A6363">20</text>
  <text x="450" y="148" text-anchor="middle" font-family="system-ui, sans-serif" font-size="10" font-weight="700" fill="#1A6363">연차</text>

  <!-- padding between sections -->

  <!-- 2/21 Sat — Weekend -->
  <rect x="508" y="92" width="52" height="88" rx="12" fill="#EEECEA"/>
  <text x="534" y="128" text-anchor="middle" font-family="Georgia, serif" font-size="22" font-weight="700" fill="#78716C">21</text>
  <text x="534" y="150" text-anchor="middle" font-family="system-ui, sans-serif" font-size="10" fill="#78716C">주말</text>

  <!-- 2/22 Sun — Weekend -->
  <rect x="566" y="92" width="52" height="88" rx="12" fill="#EEECEA"/>
  <text x="592" y="128" text-anchor="middle" font-family="Georgia, serif" font-size="22" font-weight="700" fill="#78716C">22</text>
  <text x="592" y="150" text-anchor="middle" font-family="system-ui, sans-serif" font-size="10" fill="#78716C">주말</text>

  <!-- Connecting bracket line -->
  <line x1="24" y1="188" x2="618" y2="188" stroke="#1A6363" stroke-width="2" stroke-dasharray="4 3" opacity="0.4"/>
  <text x="700" y="192" text-anchor="middle" font-family="system-ui, sans-serif" font-size="12" font-weight="700" fill="#1A6363">9일 연속</text>

  <!-- Divider -->
  <rect x="24" y="206" width="752" height="1" fill="#E5E2DA"/>

  <!-- Legend -->
  <g font-family="system-ui, sans-serif" font-size="12" fill="#44403C">
    <rect x="40" y="222" width="14" height="14" rx="4" fill="#E8F3F3" stroke="#1A6363" stroke-width="1"/>
    <text x="62" y="234">연차 (2일)</text>
    <rect x="180" y="222" width="14" height="14" rx="4" fill="#FEF0ED" stroke="#D95740" stroke-width="1"/>
    <text x="202" y="234">공휴일</text>
    <rect x="290" y="222" width="14" height="14" rx="4" fill="#EEECEA"/>
    <text x="312" y="234">주말</text>
  </g>

  <!-- Result callout -->
  <rect x="24" y="256" width="752" height="56" rx="12" fill="#1A6363"/>
  <text x="400" y="280" text-anchor="middle" font-family="system-ui, sans-serif" font-size="13" fill="white" opacity="0.75">연차 단 2일로</text>
  <text x="400" y="300" text-anchor="middle" font-family="Georgia, serif" font-size="17" font-weight="600" fill="#FFF">2월 14일~22일, 9일 연속 휴가 — 4.5배 효율</text>
</svg>