<svg xmlns="http://www.w3.org/2000/svg" fill="none" viewBox="0 0 800 160"><rect width="800" height="160" fill="#1a6363" rx="16"/><text x="400" y="32" fill="#fff" font-family="system-ui, sans-serif" font-size="11" font-weight="600" letter-spacing="1" opacity=".6" text-anchor="middle">항공권 예약 타임라인</text><rect width="704" height="4" x="48" y="62" fill="#fff" opacity=".12" rx="2"/><g fill="#fff" font-family="system-ui, sans-serif" font-size="10" opacity=".5" text-anchor="middle"><text x="48" y="52">10월</text><text x="224" y="52">11월</text><text x="400" y="52">12월</text><text x="576" y="52">1월</text></g><g fill="#fff" opacity=".3"><rect width="2" height="12" x="47" y="58" rx="1"/><rect width="2" height="12" x="223" y="58" rx="1"/><rect width="2" height="12" x="399" y="58" rx="1"/><rect width="2" height="12" x="575" y="58" rx="1"/></g><circle cx="80" cy="64" r="7" fill="#d95740"/><circle cx="80" cy="64" r="3" fill="#fff"/><text x="80" y="44" fill="#fff" font-family="system-ui, sans-serif" font-size="11" font-weight="700" text-anchor="middle">지금</text><rect width="200" height="10" x="60" y="59" fill="#fff" opacity=".18" rx="5"/><g fill="#fff" font-family="system-ui, sans-serif" font-size="10" opacity=".45"><text x="310" y="56">+20%</text><text x="440" y="56">+50%</text><text x="590" y="56">+80%</text></g><g fill="#fff" font-family="system-ui, sans-serif"><rect width="200" height="44" x="48" y="88" stroke="#fff" stroke-opacity=".2" stroke-width=".5" opacity=".08" rx="8"/><text x="148" y="108" font-size="12" font-weight="600" text-anchor="middle">11월 여행</text><text x="148" y="124" font-size="11" opacity=".6" text-anchor="middle">지금 예약 — 최저가</text><rect width="220" height="44" x="268" y="88" stroke="#fff" stroke-opacity=".2" stroke-width=".5" opacity=".08" rx="8"/><text x="378" y="108" font-size="12" font-weight="600" text-anchor="middle">12월 크리스마스 여행</text><text x="378" y="124" font-size="11" opacity=".6" text-anchor="middle">10월 중순까지 예약 필수</text><rect width="244" height="44" x="508" y="88" stroke="#fff" stroke-opacity=".2" stroke-width=".5" opacity=".08" rx="8"/><text x="630" y="108" font-size="12" font-weight="600" text-anchor="middle">1월 신정 여행</text><text x="630" y="124" font-size="11" opacity=".6" text-anchor="middle">11월까지 예약 권장</text></g></svg>