<svg xmlns="http://www.w3.org/2000/svg" fill="none" viewBox="0 0 800 200"><rect width="800" height="200" fill="#f7f6f2" rx="16"/><rect width="368" height="152" x="24" y="24" fill="#fff" stroke="#e5e2da" rx="12"/><rect width="368" height="40" x="24" y="24" fill="#fef0ed" rx="12"/><path fill="#fff" d="M24 52h368v12H24z"/><text x="208" y="50" fill="#d95740" font-family="Georgia, serif" font-size="14" font-weight="700" text-anchor="middle">Peak Summer (Jul-Aug)</text><text x="44" y="88" fill="#78716c" font-family="system-ui, sans-serif" font-size="11">NYC to Miami</text><text x="372" y="88" fill="#d95740" font-family="system-ui, sans-serif" font-size="12" font-weight="700" text-anchor="end">$380</text><path fill="#e5e2da" d="M44 96h328v1H44z"/><text x="44" y="114" fill="#78716c" font-family="system-ui, sans-serif" font-size="11">LAX to Maui</text><text x="372" y="114" fill="#d95740" font-family="system-ui, sans-serif" font-size="12" font-weight="700" text-anchor="end">$520</text><path fill="#e5e2da" d="M44 122h328v1H44z"/><text x="44" y="140" fill="#78716c" font-family="system-ui, sans-serif" font-size="11">JFK to Lisbon</text><text x="372" y="140" fill="#d95740" font-family="system-ui, sans-serif" font-size="12" font-weight="700" text-anchor="end">$680</text><rect width="328" height="22" x="44" y="150" fill="#d95740" opacity=".07" rx="6"/><text x="208" y="165" fill="#d95740" font-family="system-ui, sans-serif" font-size="10" font-weight="600" text-anchor="middle">Peak pricing, heavy crowds</text><rect width="368" height="152" x="408" y="24" fill="#fff" stroke="#e5e2da" rx="12"/><rect width="368" height="40" x="408" y="24" fill="#e8f3f3" rx="12"/><path fill="#fff" d="M408 52h368v12H408z"/><text x="592" y="50" fill="#1a6363" font-family="Georgia, serif" font-size="14" font-weight="700" text-anchor="middle">Post-Labor Day (Sep)</text><text x="428" y="88" fill="#78716c" font-family="system-ui, sans-serif" font-size="11">NYC to Miami</text><text x="756" y="88" fill="#1a6363" font-family="system-ui, sans-serif" font-size="12" font-weight="700" text-anchor="end">$220</text><text x="696" y="88" fill="#1a6363" font-family="system-ui, sans-serif" font-size="10" font-weight="600" text-anchor="end">-42%</text><path fill="#e5e2da" d="M428 96h328v1H428z"/><text x="428" y="114" fill="#78716c" font-family="system-ui, sans-serif" font-size="11">LAX to Maui</text><text x="756" y="114" fill="#1a6363" font-family="system-ui, sans-serif" font-size="12" font-weight="700" text-anchor="end">$340</text><text x="696" y="114" fill="#1a6363" font-family="system-ui, sans-serif" font-size="10" font-weight="600" text-anchor="end">-35%</text><path fill="#e5e2da" d="M428 122h328v1H428z"/><text x="428" y="140" fill="#78716c" font-family="system-ui, sans-serif" font-size="11">JFK to Lisbon</text><text x="756" y="140" fill="#1a6363" font-family="system-ui, sans-serif" font-size="12" font-weight="700" text-anchor="end">$480</text><text x="696" y="140" fill="#1a6363" font-family="system-ui, sans-serif" font-size="10" font-weight="600" text-anchor="end">-29%</text><rect width="328" height="22" x="428" y="150" fill="#1a6363" opacity=".07" rx="6"/><text x="592" y="165" fill="#1a6363" font-family="system-ui, sans-serif" font-size="10" font-weight="600" text-anchor="middle">Save $100-$200 per person</text></svg>