<svg xmlns="http://www.w3.org/2000/svg" fill="none" viewBox="0 0 800 220"><rect width="800" height="220" fill="#f7f6f2" rx="16"/><rect width="176" height="172" x="24" y="24" fill="#fff" stroke="#e5e2da" rx="12"/><rect width="176" height="56" x="24" y="24" fill="#e8f3f3" rx="12"/><path fill="#fff" d="M24 68h176v12H24z"/><g transform="translate(112 30)"><path fill="#1a6363" d="M-18 38c4-6 12-8 18-10 6 2 14 4 18 10" opacity=".3"/><path fill="#1a6363" d="M-18 38c8-2 14-3 18-4 4 1 10 2 18 4" opacity=".2"/><circle cx="-4" cy="18" r="5" fill="#1a6363" opacity=".35"/><path stroke="#1a6363" stroke-width="1.5" d="M-4 13V8" opacity=".35"/><path stroke="#1a6363" d="m-4 8 5 4" opacity=".35"/></g><text x="112" y="100" fill="#1c1917" font-family="Georgia, serif" font-size="15" font-weight="700" text-anchor="middle">Cape Cod</text><text x="112" y="118" fill="#78716c" font-family="system-ui, sans-serif" font-size="11" text-anchor="middle">Warmest water: 68-72F</text><text x="112" y="134" fill="#78716c" font-family="system-ui, sans-serif" font-size="11" text-anchor="middle">Tourists vanish post-Labor Day</text><rect width="112" height="26" x="56" y="152" fill="#1a6363" opacity=".07" rx="6"/><text x="112" y="169" fill="#1a6363" font-family="system-ui, sans-serif" font-size="11" font-weight="600" text-anchor="middle">Empty beaches</text><rect width="176" height="172" x="216" y="24" fill="#fff" stroke="#e5e2da" rx="12"/><rect width="176" height="56" x="216" y="24" fill="#eef6f1" rx="12"/><path fill="#fff" d="M216 68h176v12H216z"/><g fill="#4a7c5e" transform="translate(304 28)"><path d="m-16 42 10-26 6 8 6-8 10 26Z" opacity=".35"/><path d="M-12 42c4-6 8-8 12-9 4 1 8 3 12 9" opacity=".4"/><rect width="28" height="3" x="-14" y="40" opacity=".35" rx="1"/></g><text x="304" y="100" fill="#1c1917" font-family="Georgia, serif" font-size="15" font-weight="700" text-anchor="middle">Lake Tahoe</text><text x="304" y="118" fill="#78716c" font-family="system-ui, sans-serif" font-size="11" text-anchor="middle">Clearest days of the year</text><text x="304" y="134" fill="#78716c" font-family="system-ui, sans-serif" font-size="11" text-anchor="middle">Hike, kayak in near-solitude</text><rect width="112" height="26" x="248" y="152" fill="#4a7c5e" opacity=".07" rx="6"/><text x="304" y="169" fill="#4a7c5e" font-family="system-ui, sans-serif" font-size="11" font-weight="600" text-anchor="middle">Shoulder season</text><rect width="176" height="172" x="408" y="24" fill="#fff" stroke="#e5e2da" rx="12"/><rect width="176" height="56" x="408" y="24" fill="#fef0ed" rx="12"/><path fill="#fff" d="M408 68h176v12H408z"/><g transform="translate(496 30)"><circle cy="8" r="12" fill="#d95740" opacity=".3"/><path fill="#d95740" d="M-8 38c4-6 8-8 8-8s4 2 8 8" opacity=".25"/><rect width="12" height="16" x="-6" stroke="#d95740" stroke-width="1.5" opacity=".4" rx="2"/><path stroke="#d95740" d="M-6 6H6M0 0v16" opacity=".35"/></g><text x="496" y="100" fill="#1c1917" font-family="Georgia, serif" font-size="15" font-weight="700" text-anchor="middle">Greece</text><text x="496" y="118" fill="#78716c" font-family="system-ui, sans-serif" font-size="11" text-anchor="middle">Best month: warm, uncrowded</text><text x="496" y="134" fill="#78716c" font-family="system-ui, sans-serif" font-size="11" text-anchor="middle">Airfare drops post-Labor Day</text><rect width="112" height="26" x="440" y="152" fill="#d95740" opacity=".07" rx="6"/><text x="496" y="169" fill="#d95740" font-family="system-ui, sans-serif" font-size="11" font-weight="600" text-anchor="middle">Top pick</text><rect width="176" height="172" x="600" y="24" fill="#fff" stroke="#e5e2da" rx="12"/><rect width="176" height="56" x="600" y="24" fill="#fdf4e7" rx="12"/><path fill="#fff" d="M600 68h176v12H600z"/><g transform="translate(688 30)"><circle cy="8" r="11" fill="#c4872a" opacity=".3"/><path stroke="#c4872a" stroke-width="2" d="M-16 8h4M12 8h4M0-6v-4M-9-2l-3-3M9-2l3-3" opacity=".35"/></g><text x="688" y="100" fill="#1c1917" font-family="Georgia, serif" font-size="15" font-weight="700" text-anchor="middle">Portugal</text><text x="688" y="118" fill="#78716c" font-family="system-ui, sans-serif" font-size="11" text-anchor="middle">Algarve 80F and sunny</text><text x="688" y="134" fill="#78716c" font-family="system-ui, sans-serif" font-size="11" text-anchor="middle">Fraction of August crowds</text><rect width="112" height="26" x="632" y="152" fill="#c4872a" opacity=".07" rx="6"/><text x="688" y="169" fill="#c4872a" font-family="system-ui, sans-serif" font-size="11" font-weight="600" text-anchor="middle">Great value</text></svg>