<svg xmlns="http://www.w3.org/2000/svg" fill="none" viewBox="0 0 800 220"><rect width="800" height="220" fill="#f7f6f2" rx="16"/><rect width="240" height="172" x="24" y="24" fill="#fff" stroke="#e5e2da" rx="12"/><rect width="240" height="48" x="24" y="24" fill="#e8f3f3" rx="12"/><path fill="#fff" d="M24 60h240v12H24z"/><rect width="44" height="28" x="112" y="32" fill="#1a6363" rx="14"/><text x="134" y="51" fill="#fff" font-family="Georgia, serif" font-size="14" font-weight="700" text-anchor="middle">5</text><text x="144" y="88" fill="#1c1917" font-family="Georgia, serif" font-size="15" font-weight="700" text-anchor="middle">Starter</text><text x="144" y="108" fill="#78716c" font-family="system-ui, sans-serif" font-size="11" text-anchor="middle">2 long weekends</text><text x="144" y="124" fill="#78716c" font-family="system-ui, sans-serif" font-size="11" text-anchor="middle">Memorial Day + Thanksgiving</text><rect width="152" height="26" x="68" y="142" fill="#1a6363" opacity=".07" rx="6"/><text x="144" y="159" fill="#1a6363" font-family="system-ui, sans-serif" font-size="11" font-weight="600" text-anchor="middle">Up to 18 days off</text><rect width="240" height="172" x="280" y="24" fill="#fff" stroke="#e5e2da" rx="12"/><rect width="240" height="48" x="280" y="24" fill="#eef6f1" rx="12"/><path fill="#fff" d="M280 60h240v12H280z"/><rect width="52" height="28" x="364" y="32" fill="#4a7c5e" rx="14"/><text x="390" y="51" fill="#fff" font-family="Georgia, serif" font-size="14" font-weight="700" text-anchor="middle">10</text><text x="400" y="88" fill="#1c1917" font-family="Georgia, serif" font-size="15" font-weight="700" text-anchor="middle">Extended</text><text x="400" y="108" fill="#78716c" font-family="system-ui, sans-serif" font-size="11" text-anchor="middle">3 extended breaks</text><text x="400" y="124" fill="#78716c" font-family="system-ui, sans-serif" font-size="11" text-anchor="middle">Add Christmas + one more</text><rect width="152" height="26" x="324" y="142" fill="#4a7c5e" opacity=".07" rx="6"/><text x="400" y="159" fill="#4a7c5e" font-family="system-ui, sans-serif" font-size="11" font-weight="600" text-anchor="middle">Up to 27 days off</text><rect width="240" height="172" x="536" y="24" fill="#fff" stroke="#e5e2da" rx="12"/><rect width="240" height="48" x="536" y="24" fill="#fef0ed" rx="12"/><path fill="#fff" d="M536 60h240v12H536z"/><rect width="52" height="28" x="620" y="32" fill="#d95740" rx="14"/><text x="646" y="51" fill="#fff" font-family="Georgia, serif" font-size="14" font-weight="700" text-anchor="middle">15</text><text x="656" y="88" fill="#1c1917" font-family="Georgia, serif" font-size="15" font-weight="700" text-anchor="middle">Full Coverage</text><text x="656" y="108" fill="#78716c" font-family="system-ui, sans-serif" font-size="11" text-anchor="middle">Every major holiday covered</text><text x="656" y="124" fill="#78716c" font-family="system-ui, sans-serif" font-size="11" text-anchor="middle">+ summer escape window</text><rect width="152" height="26" x="580" y="142" fill="#d95740" opacity=".07" rx="6"/><text x="656" y="159" fill="#d95740" font-family="system-ui, sans-serif" font-size="11" font-weight="600" text-anchor="middle">35-40 days off</text></svg>