<svg xmlns="http://www.w3.org/2000/svg" fill="none" viewBox="0 0 800 260"><rect width="800" height="260" fill="#f7f6f2" rx="16"/><rect width="800" height="48" fill="#1a6363" rx="16"/><path fill="#1a6363" d="M0 24h800v24H0z"/><text x="400" y="33" fill="#fff" font-family="Georgia, serif" font-size="16" font-weight="600" text-anchor="middle">2026 Long Weekend Map — Holidays &amp; Efficiency</text><g fill="#44403c" font-family="system-ui, sans-serif" font-size="11" font-weight="600" text-anchor="middle"><text x="84" y="72">JAN</text><text x="208" y="72">FEB</text><text x="332" y="72">APR</text><text x="456" y="72">MAY</text><text x="580" y="72">JUL</text><text x="704" y="72">SEP</text></g><rect width="120" height="48" x="24" y="82" fill="#fef0ed" stroke="#d95740" rx="8"/><circle cx="54" cy="100" r="5" fill="#d95740"/><circle cx="78" cy="100" r="5" fill="#d95740"/><text x="106" y="104" fill="#d95740" font-family="system-ui, sans-serif" font-size="10" font-weight="700">4.0x</text><text x="54" y="122" fill="#78716c" font-family="system-ui, sans-serif" font-size="10" text-anchor="middle">NYD</text><text x="78" y="122" fill="#78716c" font-family="system-ui, sans-serif" font-size="10" text-anchor="middle">MLK</text><rect width="120" height="48" x="148" y="82" fill="#e8f3f3" stroke="#1a6363" rx="8"/><circle cx="196" cy="100" r="5" fill="#1a6363"/><text x="220" y="104" fill="#1a6363" font-family="system-ui, sans-serif" font-size="10" font-weight="700">2.5x</text><text x="196" y="122" fill="#78716c" font-family="system-ui, sans-serif" font-size="10" text-anchor="middle">Pres. Day</text><rect width="120" height="48" x="272" y="82" fill="#e8f3f3" stroke="#1a6363" rx="8"/><circle cx="320" cy="100" r="5" fill="#1a6363"/><text x="344" y="104" fill="#1a6363" font-family="system-ui, sans-serif" font-size="10" font-weight="700">2.5x</text><text x="320" y="122" fill="#78716c" font-family="system-ui, sans-serif" font-size="10" text-anchor="middle">Easter</text><rect width="120" height="48" x="396" y="82" fill="#eef6f1" stroke="#4a7c5e" rx="8"/><circle cx="444" cy="100" r="5" fill="#4a7c5e"/><text x="468" y="104" fill="#4a7c5e" font-family="system-ui, sans-serif" font-size="10" font-weight="700">2.3x</text><text x="444" y="122" fill="#78716c" font-family="system-ui, sans-serif" font-size="10" text-anchor="middle">Memorial</text><rect width="120" height="48" x="520" y="82" fill="#fef0ed" stroke="#d95740" rx="8"/><circle cx="568" cy="100" r="5" fill="#d95740"/><text x="592" y="104" fill="#d95740" font-family="system-ui, sans-serif" font-size="10" font-weight="700">2.3x</text><text x="568" y="122" fill="#78716c" font-family="system-ui, sans-serif" font-size="10" text-anchor="middle">Jul 4th</text><rect width="120" height="48" x="644" y="82" fill="#eef6f1" stroke="#4a7c5e" rx="8"/><circle cx="692" cy="100" r="5" fill="#4a7c5e"/><text x="716" y="104" fill="#4a7c5e" font-family="system-ui, sans-serif" font-size="10" font-weight="700">2.3x</text><text x="692" y="122" fill="#78716c" font-family="system-ui, sans-serif" font-size="10" text-anchor="middle">Labor</text><g fill="#44403c" font-family="system-ui, sans-serif" font-size="11" font-weight="600" text-anchor="middle"><text x="84" y="152">OCT</text><text x="246" y="152">NOV</text><text x="456" y="152">DEC</text></g><rect width="120" height="48" x="24" y="162" fill="#eef6f1" stroke="#4a7c5e" rx="8"/><circle cx="72" cy="180" r="5" fill="#4a7c5e"/><text x="96" y="184" fill="#4a7c5e" font-family="system-ui, sans-serif" font-size="10" font-weight="700">4.0x</text><text x="72" y="202" fill="#78716c" font-family="system-ui, sans-serif" font-size="10" text-anchor="middle">Columbus</text><rect width="196" height="48" x="148" y="162" fill="#fdf4e7" stroke="#c4872a" rx="8"/><circle cx="208" cy="180" r="5" fill="#c4872a"/><circle cx="284" cy="180" r="5" fill="#c4872a"/><text x="324" y="184" fill="#c4872a" font-family="system-ui, sans-serif" font-size="10" font-weight="700">3.0x</text><text x="208" y="202" fill="#78716c" font-family="system-ui, sans-serif" font-size="10" text-anchor="middle">Veterans</text><text x="284" y="202" fill="#78716c" font-family="system-ui, sans-serif" font-size="10" text-anchor="middle">Thxgiving</text><rect width="216" height="48" x="348" y="162" fill="#fdf4e7" stroke="#c4872a" rx="8"/><circle cx="416" cy="180" r="5" fill="#c4872a"/><circle cx="496" cy="180" r="5" fill="#c4872a"/><text x="540" y="184" fill="#c4872a" font-family="system-ui, sans-serif" font-size="10" font-weight="700">3.3x</text><text x="416" y="202" fill="#78716c" font-family="system-ui, sans-serif" font-size="10" text-anchor="middle">Christmas</text><text x="496" y="202" fill="#78716c" font-family="system-ui, sans-serif" font-size="10" text-anchor="middle">NYE</text><rect width="752" height="24" x="24" y="224" fill="#1a6363" rx="8"/><text x="400" y="240" fill="#fff" font-family="Georgia, serif" font-size="13" font-weight="600" text-anchor="middle">15 PTO days strategically placed = 35-40 total days off in 2026</text></svg>