<svg xmlns="http://www.w3.org/2000/svg" viewBox="0 0 800 220" fill="none">
  <rect width="800" height="220" rx="16" fill="#F7F6F2"/>

  <!-- Puerto Rico -->
  <rect x="24" y="24" width="176" height="172" rx="12" fill="#FFF" stroke="#E5E2DA" stroke-width="1"/>
  <rect x="24" y="24" width="176" height="56" rx="12" fill="#FDF4E7"/>
  <rect x="24" y="68" width="176" height="12" fill="#FFF"/>
  <g transform="translate(112,34)">
    <circle r="10" fill="#C4872A" opacity="0.4"/>
    <line x1="-14" y1="0" x2="-10" y2="0" stroke="#C4872A" stroke-width="1.5" opacity="0.4"/>
    <line x1="10" y1="0" x2="14" y2="0" stroke="#C4872A" stroke-width="1.5" opacity="0.4"/>
    <line x1="0" y1="-14" x2="0" y2="-10" stroke="#C4872A" stroke-width="1.5" opacity="0.4"/>
    <line x1="0" y1="10" x2="0" y2="14" stroke="#C4872A" stroke-width="1.5" opacity="0.4"/>
  </g>
  <text x="112" y="100" text-anchor="middle" font-family="Georgia, serif" font-size="14" font-weight="700" fill="#1C1917">Puerto Rico</text>
  <text x="112" y="118" text-anchor="middle" font-family="system-ui, sans-serif" font-size="11" fill="#78716C">Low 80s, no passport</text>
  <text x="112" y="134" text-anchor="middle" font-family="system-ui, sans-serif" font-size="11" fill="#78716C">Direct from East Coast</text>
  <rect x="56" y="152" width="112" height="26" rx="6" fill="#C4872A" opacity="0.07"/>
  <text x="112" y="169" text-anchor="middle" font-family="system-ui, sans-serif" font-size="11" font-weight="600" fill="#C4872A">No passport needed</text>

  <!-- Greece -->
  <rect x="216" y="24" width="176" height="172" rx="12" fill="#FFF" stroke="#E5E2DA" stroke-width="1"/>
  <rect x="216" y="24" width="176" height="56" rx="12" fill="#E8F3F3"/>
  <rect x="216" y="68" width="176" height="12" fill="#FFF"/>
  <g transform="translate(304,30)">
    <path d="M0 42L-10 42L-3 16L-7 16L0 0L7 16L3 16L10 42Z" fill="#1A6363" opacity="0.45"/>
    <rect x="-12" y="40" width="24" height="3" rx="1" fill="#1A6363" opacity="0.45"/>
  </g>
  <text x="304" y="100" text-anchor="middle" font-family="Georgia, serif" font-size="15" font-weight="700" fill="#1C1917">Greece</text>
  <text x="304" y="118" text-anchor="middle" font-family="system-ui, sans-serif" font-size="11" fill="#78716C">Warm, not yet overrun</text>
  <text x="304" y="134" text-anchor="middle" font-family="system-ui, sans-serif" font-size="11" fill="#78716C">Hotels 40% below July</text>
  <rect x="248" y="152" width="112" height="26" rx="6" fill="#1A6363" opacity="0.07"/>
  <text x="304" y="169" text-anchor="middle" font-family="system-ui, sans-serif" font-size="11" font-weight="600" fill="#1A6363">Shoulder season</text>

  <!-- Portugal -->
  <rect x="408" y="24" width="176" height="172" rx="12" fill="#FFF" stroke="#E5E2DA" stroke-width="1"/>
  <rect x="408" y="24" width="176" height="56" rx="12" fill="#EEF6F1"/>
  <rect x="408" y="68" width="176" height="12" fill="#FFF"/>
  <g transform="translate(496,28)">
    <rect x="-10" y="10" width="20" height="22" rx="2" fill="#4A7C5E" opacity="0.35"/>
    <rect x="-7" y="6" width="14" height="8" rx="1" fill="#4A7C5E" opacity="0.45"/>
    <rect x="-3" y="0" width="6" height="10" rx="1" fill="#4A7C5E" opacity="0.4"/>
    <circle cx="0" cy="-2" r="2" fill="#4A7C5E" opacity="0.5"/>
  </g>
  <text x="496" y="100" text-anchor="middle" font-family="Georgia, serif" font-size="15" font-weight="700" fill="#1C1917">Portugal</text>
  <text x="496" y="118" text-anchor="middle" font-family="system-ui, sans-serif" font-size="11" fill="#78716C">75F, dry, uncrowded</text>
  <text x="496" y="134" text-anchor="middle" font-family="system-ui, sans-serif" font-size="11" fill="#78716C">Lisbon + Algarve coast</text>
  <rect x="440" y="152" width="112" height="26" rx="6" fill="#4A7C5E" opacity="0.07"/>
  <text x="496" y="169" text-anchor="middle" font-family="system-ui, sans-serif" font-size="11" font-weight="600" fill="#4A7C5E">Best value</text>

  <!-- San Diego -->
  <rect x="600" y="24" width="176" height="172" rx="12" fill="#FFF" stroke="#E5E2DA" stroke-width="1"/>
  <rect x="600" y="24" width="176" height="56" rx="12" fill="#FEF0ED"/>
  <rect x="600" y="68" width="176" height="12" fill="#FFF"/>
  <g transform="translate(688,34)">
    <path d="M-14 10C-14 2-8-4 0-4C8-4 14 2 14 10" fill="none" stroke="#D95740" stroke-width="2" opacity="0.45"/>
    <path d="M-16 12C-12 8-8 12-4 8C0 4 4 8 8 4C12 0 16 4 16 4" stroke="#D95740" stroke-width="1.5" opacity="0.35" fill="none"/>
    <path d="M-16 18C-12 14-8 18-4 14C0 10 4 14 8 10C12 6 16 10 16 10" stroke="#D95740" stroke-width="1.5" opacity="0.35" fill="none"/>
  </g>
  <text x="688" y="100" text-anchor="middle" font-family="Georgia, serif" font-size="14" font-weight="700" fill="#1C1917">San Diego</text>
  <text x="688" y="118" text-anchor="middle" font-family="system-ui, sans-serif" font-size="11" fill="#78716C">70s, "May gray" = deals</text>
  <text x="688" y="134" text-anchor="middle" font-family="system-ui, sans-serif" font-size="11" fill="#78716C">20-30% below July rates</text>
  <rect x="632" y="152" width="112" height="26" rx="6" fill="#D95740" opacity="0.07"/>
  <text x="688" y="169" text-anchor="middle" font-family="system-ui, sans-serif" font-size="11" font-weight="600" fill="#D95740">Budget friendly</text>
</svg>