<svg xmlns="http://www.w3.org/2000/svg" fill="none" viewBox="0 0 800 340"><rect width="800" height="340" fill="#f7f6f2" rx="16"/><rect width="800" height="52" fill="#1a6363" rx="16"/><path fill="#1a6363" d="M0 28h800v24H0z"/><text x="400" y="35" fill="#fff" font-family="Georgia, serif" font-size="18" font-weight="600" text-anchor="middle">May 2026 — Your 9-Day Window</text><g fill="#78716c" font-family="system-ui, sans-serif" font-size="11" font-weight="600" text-anchor="middle"><text x="62" y="80">SAT-SUN</text><text x="156" y="80">TUE</text><text x="238" y="80">WED</text><text x="320" y="80">THU</text><text x="402" y="80">FRI</text><text x="496" y="80">SAT-SUN</text><text x="614" y="80">MON</text></g><rect width="76" height="88" x="24" y="92" fill="#eeecea" rx="12"/><text x="62" y="124" fill="#78716c" font-family="Georgia, serif" font-size="22" font-weight="700" text-anchor="middle">16-17</text><text x="62" y="150" fill="#78716c" font-family="system-ui, sans-serif" font-size="10" text-anchor="middle">Weekend</text><rect width="76" height="88" x="118" y="92" fill="#e8f3f3" stroke="#1a6363" stroke-width="1.5" rx="12"/><text x="156" y="124" fill="#1a6363" font-family="Georgia, serif" font-size="26" font-weight="700" text-anchor="middle">19</text><text x="156" y="150" fill="#1a6363" font-family="system-ui, sans-serif" font-size="11" font-weight="700" text-anchor="middle">PTO 1</text><rect width="76" height="88" x="200" y="92" fill="#e8f3f3" stroke="#1a6363" stroke-width="1.5" rx="12"/><text x="238" y="124" fill="#1a6363" font-family="Georgia, serif" font-size="26" font-weight="700" text-anchor="middle">20</text><text x="238" y="150" fill="#1a6363" font-family="system-ui, sans-serif" font-size="11" font-weight="700" text-anchor="middle">PTO 2</text><rect width="76" height="88" x="282" y="92" fill="#e8f3f3" stroke="#1a6363" stroke-width="1.5" rx="12"/><text x="320" y="124" fill="#1a6363" font-family="Georgia, serif" font-size="26" font-weight="700" text-anchor="middle">21</text><text x="320" y="150" fill="#1a6363" font-family="system-ui, sans-serif" font-size="11" font-weight="700" text-anchor="middle">PTO 3</text><rect width="76" height="88" x="364" y="92" fill="#e8f3f3" stroke="#1a6363" stroke-width="1.5" rx="12"/><text x="402" y="124" fill="#1a6363" font-family="Georgia, serif" font-size="26" font-weight="700" text-anchor="middle">22</text><text x="402" y="150" fill="#1a6363" font-family="system-ui, sans-serif" font-size="11" font-weight="700" text-anchor="middle">PTO 4</text><rect width="96" height="88" x="446" y="92" fill="#eeecea" rx="12"/><text x="494" y="124" fill="#78716c" font-family="Georgia, serif" font-size="22" font-weight="700" text-anchor="middle">23-24</text><text x="494" y="150" fill="#78716c" font-family="system-ui, sans-serif" font-size="10" text-anchor="middle">Weekend</text><rect width="120" height="88" x="552" y="92" fill="#fef0ed" stroke="#d95740" stroke-width="1.5" rx="12"/><text x="612" y="124" fill="#d95740" font-family="Georgia, serif" font-size="26" font-weight="700" text-anchor="middle">25</text><text x="612" y="146" fill="#d95740" font-family="system-ui, sans-serif" font-size="10" font-weight="600" text-anchor="middle">Memorial</text><text x="612" y="158" fill="#d95740" font-family="system-ui, sans-serif" font-size="10" font-weight="600" text-anchor="middle">Day</text><path fill="#e5e2da" d="M24 200h752v1H24z"/><g fill="#44403c" font-family="system-ui, sans-serif" font-size="12"><rect width="14" height="14" x="40" y="220" fill="#e8f3f3" stroke="#1a6363" rx="4"/><text x="62" y="232">PTO days (4 total)</text><rect width="14" height="14" x="212" y="220" fill="#fef0ed" stroke="#d95740" rx="4"/><text x="234" y="232">Holiday</text><rect width="14" height="14" x="340" y="220" fill="#eeecea" rx="4"/><text x="362" y="232">Weekends</text></g><rect width="752" height="56" x="24" y="256" fill="#1a6363" rx="12"/><text x="400" y="282" fill="#fff" font-family="system-ui, sans-serif" font-size="13" opacity=".75" text-anchor="middle">Use just</text><text x="400" y="300" fill="#fff" font-family="Georgia, serif" font-size="17" font-weight="600" text-anchor="middle">4 PTO days to get 9 consecutive days off — a 2.3x return</text></svg>