<svg xmlns="http://www.w3.org/2000/svg" fill="none" viewBox="0 0 800 160"><rect width="800" height="160" fill="#1a6363" rx="16"/><text x="400" y="32" fill="#fff" font-family="system-ui, sans-serif" font-size="11" font-weight="600" letter-spacing="1" opacity=".6" text-anchor="middle">BOOKING TIMELINE</text><rect width="704" height="4" x="48" y="62" fill="#fff" opacity=".12" rx="2"/><text x="48" y="54" fill="#fff" font-family="system-ui, sans-serif" font-size="10" opacity=".5">March</text><text x="224" y="54" fill="#fff" font-family="system-ui, sans-serif" font-size="10" opacity=".5" text-anchor="middle">April</text><text x="460" y="54" fill="#fff" font-family="system-ui, sans-serif" font-size="10" opacity=".5" text-anchor="middle">Early May</text><text x="635" y="54" fill="#fff" font-family="system-ui, sans-serif" font-size="10" opacity=".5" text-anchor="middle">Mid May</text><path fill="#fff" d="M224 60h1v8h-1zM460 60h1v8h-1zM635 60h1v8h-1z" opacity=".2"/><circle cx="100" cy="64" r="7" fill="#d95740"/><circle cx="100" cy="64" r="3" fill="#fff"/><text x="100" y="52" fill="#fff" font-family="system-ui, sans-serif" font-size="11" font-weight="700" text-anchor="middle">NOW</text><rect width="350" height="10" x="80" y="59" fill="#fff" opacity=".18" rx="5"/><circle cx="720" cy="64" r="5" fill="#fff" opacity=".4"/><text x="720" y="52" fill="#fff" font-family="system-ui, sans-serif" font-size="10" font-weight="600" opacity=".6" text-anchor="middle">MAY 25</text><g fill="#fff" font-family="system-ui, sans-serif"><rect width="170" height="44" x="70" y="88" stroke="#fff" stroke-opacity=".2" stroke-width=".5" opacity=".08" rx="8"/><text x="155" y="108" font-size="12" font-weight="600" text-anchor="middle">Domestic flights</text><text x="155" y="124" font-size="11" opacity=".6" text-anchor="middle">Book now — best rates</text><rect width="210" height="44" x="258" y="88" stroke="#fff" stroke-opacity=".2" stroke-width=".5" opacity=".08" rx="8"/><text x="363" y="108" font-size="12" font-weight="600" text-anchor="middle">International flights</text><text x="363" y="124" font-size="11" opacity=".6" text-anchor="middle">6-8 weeks out — sweet spot</text><rect width="190" height="44" x="486" y="88" stroke="#fff" stroke-opacity=".2" stroke-width=".5" opacity=".08" rx="8"/><text x="581" y="108" font-size="12" font-weight="600" text-anchor="middle">Hotels</text><text x="581" y="124" font-size="11" opacity=".6" text-anchor="middle">Book refundable now</text></g></svg>