<svg xmlns="http://www.w3.org/2000/svg" fill="none" viewBox="0 0 800 420"><rect width="800" height="420" fill="#f7f6f2" rx="16"/><text x="400" y="28" fill="#1c1917" font-family="Georgia, serif" font-size="17" font-weight="700" text-anchor="middle">Best Time to Visit — Monthly Heatmap</text><text x="400" y="48" fill="#78716c" font-family="system-ui, sans-serif" font-size="12" text-anchor="middle">Avoiding Korean holiday surges + local peak seasons</text><g fill="#57534e" font-family="system-ui, sans-serif" font-size="11" text-anchor="middle"><text x="120" y="72">Jan</text><text x="173" y="72">Feb</text><text x="226" y="72">Mar</text><text x="279" y="72">Apr</text><text x="332" y="72">May</text><text x="385" y="72">Jun</text><text x="438" y="72">Jul</text><text x="491" y="72">Aug</text><text x="544" y="72">Sep</text><text x="597" y="72">Oct</text><text x="650" y="72">Nov</text><text x="703" y="72">Dec</text></g><g fill="#1c1917" font-family="system-ui, sans-serif" font-size="13" font-weight="600" text-anchor="end"><text x="88" y="106">Japan</text><text x="88" y="151">Thailand</text><text x="88" y="196">Vietnam</text><text x="88" y="241">Bali</text><text x="88" y="286">Taiwan</text><text x="88" y="331">Europe</text></g><g><rect x="96" y="80" width="48" height="40" fill="#8ec4a6" rx="4"/><rect x="149" y="80" width="48" height="40" fill="#8ec4a6" rx="4"/><rect x="202" y="80" width="48" height="40" fill="#8ec4a6" rx="4"/><rect x="255" y="80" width="48" height="40" fill="#e5e2da" rx="4"/><rect x="308" y="80" width="48" height="40" fill="#e5e2da" rx="4"/><rect x="361" y="80" width="48" height="40" fill="#2a9d8f" rx="4"/><rect x="414" y="80" width="48" height="40" fill="#e5e2da" rx="4"/><rect x="467" y="80" width="48" height="40" fill="#e76f51" rx="4"/><rect x="520" y="80" width="48" height="40" fill="#e5e2da" rx="4"/><rect x="573" y="80" width="48" height="40" fill="#8ec4a6" rx="4"/><rect x="626" y="80" width="48" height="40" fill="#2a9d8f" rx="4"/><rect x="679" y="80" width="48" height="40" fill="#e76f51" rx="4"/></g><g><rect x="96" y="125" width="48" height="40" fill="#8ec4a6" rx="4"/><rect x="149" y="125" width="48" height="40" fill="#e5e2da" rx="4"/><rect x="202" y="125" width="48" height="40" fill="#2a9d8f" rx="4"/><rect x="255" y="125" width="48" height="40" fill="#e76f51" rx="4"/><rect x="308" y="125" width="48" height="40" fill="#e5e2da" rx="4"/><rect x="361" y="125" width="48" height="40" fill="#8ec4a6" rx="4"/><rect x="414" y="125" width="48" height="40" fill="#e76f51" rx="4"/><rect x="467" y="125" width="48" height="40" fill="#e76f51" rx="4"/><rect x="520" y="125" width="48" height="40" fill="#8ec4a6" rx="4"/><rect x="573" y="125" width="48" height="40" fill="#8ec4a6" rx="4"/><rect x="626" y="125" width="48" height="40" fill="#2a9d8f" rx="4"/><rect x="679" y="125" width="48" height="40" fill="#8ec4a6" rx="4"/></g><g><rect x="96" y="170" width="48" height="40" fill="#e5e2da" rx="4"/><rect x="149" y="170" width="48" height="40" fill="#e76f51" rx="4"/><rect x="202" y="170" width="48" height="40" fill="#2a9d8f" rx="4"/><rect x="255" y="170" width="48" height="40" fill="#8ec4a6" rx="4"/><rect x="308" y="170" width="48" height="40" fill="#e5e2da" rx="4"/><rect x="361" y="170" width="48" height="40" fill="#8ec4a6" rx="4"/><rect x="414" y="170" width="48" height="40" fill="#e5e2da" rx="4"/><rect x="467" y="170" width="48" height="40" fill="#e76f51" rx="4"/><rect x="520" y="170" width="48" height="40" fill="#8ec4a6" rx="4"/><rect x="573" y="170" width="48" height="40" fill="#8ec4a6" rx="4"/><rect x="626" y="170" width="48" height="40" fill="#2a9d8f" rx="4"/><rect x="679" y="170" width="48" height="40" fill="#8ec4a6" rx="4"/></g><g><rect x="96" y="215" width="48" height="40" fill="#e5e2da" rx="4"/><rect x="149" y="215" width="48" height="40" fill="#e5e2da" rx="4"/><rect x="202" y="215" width="48" height="40" fill="#e5e2da" rx="4"/><rect x="255" y="215" width="48" height="40" fill="#2a9d8f" rx="4"/><rect x="308" y="215" width="48" height="40" fill="#2a9d8f" rx="4"/><rect x="361" y="215" width="48" height="40" fill="#2a9d8f" rx="4"/><rect x="414" y="215" width="48" height="40" fill="#e76f51" rx="4"/><rect x="467" y="215" width="48" height="40" fill="#e76f51" rx="4"/><rect x="520" y="215" width="48" height="40" fill="#2a9d8f" rx="4"/><rect x="573" y="215" width="48" height="40" fill="#8ec4a6" rx="4"/><rect x="626" y="215" width="48" height="40" fill="#8ec4a6" rx="4"/><rect x="679" y="215" width="48" height="40" fill="#e76f51" rx="4"/></g><g><rect x="96" y="260" width="48" height="40" fill="#e76f51" rx="4"/><rect x="149" y="260" width="48" height="40" fill="#e76f51" rx="4"/><rect x="202" y="260" width="48" height="40" fill="#2a9d8f" rx="4"/><rect x="255" y="260" width="48" height="40" fill="#8ec4a6" rx="4"/><rect x="308" y="260" width="48" height="40" fill="#e5e2da" rx="4"/><rect x="361" y="260" width="48" height="40" fill="#e5e2da" rx="4"/><rect x="414" y="260" width="48" height="40" fill="#e76f51" rx="4"/><rect x="467" y="260" width="48" height="40" fill="#e76f51" rx="4"/><rect x="520" y="260" width="48" height="40" fill="#e5e2da" rx="4"/><rect x="573" y="260" width="48" height="40" fill="#2a9d8f" rx="4"/><rect x="626" y="260" width="48" height="40" fill="#2a9d8f" rx="4"/><rect x="679" y="260" width="48" height="40" fill="#e5e2da" rx="4"/></g><g><rect x="96" y="305" width="48" height="40" fill="#e5e2da" rx="4"/><rect x="149" y="305" width="48" height="40" fill="#e5e2da" rx="4"/><rect x="202" y="305" width="48" height="40" fill="#8ec4a6" rx="4"/><rect x="255" y="305" width="48" height="40" fill="#8ec4a6" rx="4"/><rect x="308" y="305" width="48" height="40" fill="#2a9d8f" rx="4"/><rect x="361" y="305" width="48" height="40" fill="#8ec4a6" rx="4"/><rect x="414" y="305" width="48" height="40" fill="#e76f51" rx="4"/><rect x="467" y="305" width="48" height="40" fill="#e76f51" rx="4"/><rect x="520" y="305" width="48" height="40" fill="#2a9d8f" rx="4"/><rect x="573" y="305" width="48" height="40" fill="#2a9d8f" rx="4"/><rect x="626" y="305" width="48" height="40" fill="#8ec4a6" rx="4"/><rect x="679" y="305" width="48" height="40" fill="#e76f51" rx="4"/></g><g transform="translate(160 370)"><rect width="16" height="16" fill="#2a9d8f" rx="3"/><text x="22" y="13" fill="#1c1917" font-family="system-ui, sans-serif" font-size="11">Sweet Spot</text></g><g transform="translate(300 370)"><rect width="16" height="16" fill="#8ec4a6" rx="3"/><text x="22" y="13" fill="#1c1917" font-family="system-ui, sans-serif" font-size="11">Good</text></g><g transform="translate(410 370)"><rect width="16" height="16" fill="#e5e2da" rx="3"/><text x="22" y="13" fill="#1c1917" font-family="system-ui, sans-serif" font-size="11">Neutral</text></g><g transform="translate(520 370)"><rect width="16" height="16" fill="#e76f51" rx="3"/><text x="22" y="13" fill="#1c1917" font-family="system-ui, sans-serif" font-size="11">Avoid</text></g><text x="400" y="405" fill="#a8a29e" font-family="system-ui, sans-serif" font-size="10" text-anchor="middle">Composite score: weather + Korean travel peaks + local holidays</text></svg>