<svg xmlns="http://www.w3.org/2000/svg" fill="none" viewBox="0 0 800 220"><rect width="800" height="220" fill="#f7f6f2" rx="16"/><rect width="176" height="172" x="24" y="24" fill="#fff" stroke="#e5e2da" rx="12"/><rect width="176" height="56" x="24" y="24" fill="#e8f3f3" rx="12"/><path fill="#fff" d="M24 68h176v12H24z"/><g fill="#1a6363" transform="translate(112 30)"><path d="M0 42h-14l10-24h-4L0 0l8 18H4l10 24Z" opacity=".45"/><path d="M-6 42h-6l8-18 4 8 4-8 8 18H6l-6-8Z" opacity=".35"/><rect width="30" height="3" x="-15" y="40" opacity=".45" rx="1"/></g><text x="112" y="100" fill="#1c1917" font-family="Georgia, serif" font-size="15" font-weight="700" text-anchor="middle">Park City</text><text x="112" y="118" fill="#78716c" font-family="system-ui, sans-serif" font-size="11" text-anchor="middle">2 resorts, 35 min from SLC</text><text x="112" y="134" fill="#78716c" font-family="system-ui, sans-serif" font-size="11" text-anchor="middle">Consistent February snow</text><rect width="112" height="26" x="56" y="152" fill="#1a6363" opacity=".07" rx="6"/><text x="112" y="169" fill="#1a6363" font-family="system-ui, sans-serif" font-size="11" font-weight="600" text-anchor="middle">Best access</text><rect width="176" height="172" x="216" y="24" fill="#fff" stroke="#e5e2da" rx="12"/><rect width="176" height="56" x="216" y="24" fill="#eef6f1" rx="12"/><path fill="#fff" d="M216 68h176v12H216z"/><g transform="translate(304 28)"><path fill="#4a7c5e" d="M0 44h-16l11-28h-4L0 0l9 16H5l11 28Z" opacity=".4"/><circle cy="6" r="3" fill="#fff" opacity=".5"/><circle cx="-5" cy="18" r="2" fill="#fff" opacity=".4"/><circle cx="6" cy="14" r="2.5" fill="#fff" opacity=".4"/></g><text x="304" y="100" fill="#1c1917" font-family="Georgia, serif" font-size="15" font-weight="700" text-anchor="middle">Breckenridge</text><text x="304" y="118" fill="#78716c" font-family="system-ui, sans-serif" font-size="11" text-anchor="middle">10+ inches Feb snowfall</text><text x="304" y="134" fill="#78716c" font-family="system-ui, sans-serif" font-size="11" text-anchor="middle">Great town for apres-ski</text><rect width="112" height="26" x="248" y="152" fill="#4a7c5e" opacity=".07" rx="6"/><text x="304" y="169" fill="#4a7c5e" font-family="system-ui, sans-serif" font-size="11" font-weight="600" text-anchor="middle">Peak powder</text><rect width="176" height="172" x="408" y="24" fill="#fff" stroke="#e5e2da" rx="12"/><rect width="176" height="56" x="408" y="24" fill="#fef0ed" rx="12"/><path fill="#fff" d="M408 68h176v12H408z"/><g fill="#d95740" transform="translate(496 30)"><path d="M-18 38-6 8l6 10L6 8l12 30Z" opacity=".4"/><path d="M-10 38 0 14l10 24Z" opacity=".3"/><rect width="40" height="3" x="-20" y="36" opacity=".35" rx="1"/></g><text x="496" y="100" fill="#1c1917" font-family="Georgia, serif" font-size="15" font-weight="700" text-anchor="middle">Jackson Hole</text><text x="496" y="118" fill="#78716c" font-family="system-ui, sans-serif" font-size="11" text-anchor="middle">Expert terrain, deep powder</text><text x="496" y="134" fill="#78716c" font-family="system-ui, sans-serif" font-size="11" text-anchor="middle">Less crowded than CO</text><rect width="112" height="26" x="440" y="152" fill="#d95740" opacity=".07" rx="6"/><text x="496" y="169" fill="#d95740" font-family="system-ui, sans-serif" font-size="11" font-weight="600" text-anchor="middle">Advanced skiers</text><rect width="176" height="172" x="600" y="24" fill="#fff" stroke="#e5e2da" rx="12"/><rect width="176" height="56" x="600" y="24" fill="#fdf4e7" rx="12"/><path fill="#fff" d="M600 68h176v12H600z"/><g transform="translate(688 30)"><circle cy="8" r="12" fill="#c4872a" opacity=".35"/><path stroke="#c4872a" stroke-width="2" d="M-18 8h5M13 8h5M0-7v-5M-10-4l-3-4M10-4l3-4" opacity=".4"/></g><text x="688" y="100" fill="#1c1917" font-family="Georgia, serif" font-size="15" font-weight="700" text-anchor="middle">Palm Springs</text><text x="688" y="118" fill="#78716c" font-family="system-ui, sans-serif" font-size="11" text-anchor="middle">75F, desert hiking, hot springs</text><text x="688" y="134" fill="#78716c" font-family="system-ui, sans-serif" font-size="11" text-anchor="middle">The anti-ski escape</text><rect width="112" height="26" x="632" y="152" fill="#c4872a" opacity=".07" rx="6"/><text x="688" y="169" fill="#c4872a" font-family="system-ui, sans-serif" font-size="11" font-weight="600" text-anchor="middle">Warm alternative</text></svg>