<svg xmlns="http://www.w3.org/2000/svg" fill="none" viewBox="0 0 800 340"><rect width="800" height="340" fill="#f7f6f2" rx="16"/><rect width="800" height="52" fill="#1a6363" rx="16"/><path fill="#1a6363" d="M0 28h800v24H0z"/><text x="400" y="35" fill="#fff" font-family="Georgia, serif" font-size="18" font-weight="600" text-anchor="middle">February 2026 — Your 5-Day Window</text><g fill="#78716c" font-family="system-ui, sans-serif" font-size="11" font-weight="600" text-anchor="middle"><text x="104" y="80">THU</text><text x="248" y="80">FRI</text><text x="392" y="80">SAT-SUN</text><text x="560" y="80">MON</text></g><rect width="128" height="88" x="40" y="92" fill="#e8f3f3" stroke="#1a6363" stroke-width="1.5" rx="12"/><text x="104" y="124" fill="#1a6363" font-family="Georgia, serif" font-size="26" font-weight="700" text-anchor="middle">12</text><text x="104" y="150" fill="#1a6363" font-family="system-ui, sans-serif" font-size="11" font-weight="700" text-anchor="middle">PTO 1</text><rect width="128" height="88" x="184" y="92" fill="#e8f3f3" stroke="#1a6363" stroke-width="1.5" rx="12"/><text x="248" y="124" fill="#1a6363" font-family="Georgia, serif" font-size="26" font-weight="700" text-anchor="middle">13</text><text x="248" y="150" fill="#1a6363" font-family="system-ui, sans-serif" font-size="11" font-weight="700" text-anchor="middle">PTO 2</text><rect width="128" height="88" x="328" y="92" fill="#eeecea" rx="12"/><text x="392" y="120" fill="#78716c" font-family="Georgia, serif" font-size="24" font-weight="700" text-anchor="middle">14-15</text><text x="392" y="142" fill="#78716c" font-family="system-ui, sans-serif" font-size="10" text-anchor="middle">Weekend</text><text x="392" y="154" fill="#78716c" font-family="system-ui, sans-serif" font-size="10" text-anchor="middle">(Valentine&apos;s Day)</text><rect width="176" height="88" x="472" y="92" fill="#fef0ed" stroke="#d95740" stroke-width="1.5" rx="12"/><text x="560" y="124" fill="#d95740" font-family="Georgia, serif" font-size="26" font-weight="700" text-anchor="middle">16</text><text x="560" y="146" fill="#d95740" font-family="system-ui, sans-serif" font-size="10" font-weight="600" text-anchor="middle">Presidents&apos;</text><text x="560" y="158" fill="#d95740" font-family="system-ui, sans-serif" font-size="10" font-weight="600" text-anchor="middle">Day</text><path fill="#e5e2da" d="M24 200h752v1H24z"/><g fill="#44403c" font-family="system-ui, sans-serif" font-size="12"><rect width="14" height="14" x="100" y="220" fill="#e8f3f3" stroke="#1a6363" rx="4"/><text x="122" y="232">PTO days (2 total)</text><rect width="14" height="14" x="312" y="220" fill="#fef0ed" stroke="#d95740" rx="4"/><text x="334" y="232">Holiday</text><rect width="14" height="14" x="440" y="220" fill="#eeecea" rx="4"/><text x="462" y="232">Weekends</text></g><rect width="752" height="56" x="24" y="256" fill="#1a6363" rx="12"/><text x="400" y="282" fill="#fff" font-family="system-ui, sans-serif" font-size="13" opacity=".75" text-anchor="middle">Use just</text><text x="400" y="300" fill="#fff" font-family="Georgia, serif" font-size="17" font-weight="600" text-anchor="middle">2 PTO days to get 5 consecutive days off — a 2.5x return</text></svg>