<svg xmlns="http://www.w3.org/2000/svg" fill="none" viewBox="0 0 800 220"><rect width="800" height="220" fill="#f7f6f2" rx="16"/><rect width="176" height="172" x="24" y="24" fill="#fff" stroke="#e5e2da" rx="12"/><rect width="176" height="50" x="24" y="24" fill="#e8f3f3" rx="12"/><path fill="#fff" d="M24 62h176v12H24z"/><text x="112" y="44" fill="#1a6363" font-family="Georgia, serif" font-size="22" font-weight="700" text-anchor="middle">2</text><text x="112" y="60" fill="#1a6363" font-family="system-ui, sans-serif" font-size="10" font-weight="600" text-anchor="middle">DAYS LEFT</text><text x="112" y="94" fill="#1c1917" font-family="Georgia, serif" font-size="13" font-weight="700" text-anchor="middle">Thanksgiving</text><text x="112" y="112" fill="#78716c" font-family="system-ui, sans-serif" font-size="11" text-anchor="middle">Tue + Wed before</text><text x="112" y="128" fill="#78716c" font-family="system-ui, sans-serif" font-size="11" text-anchor="middle">Nov 24-25</text><rect width="128" height="38" x="48" y="144" fill="#e8f3f3" rx="8"/><text x="112" y="162" fill="#1a6363" font-family="system-ui, sans-serif" font-size="11" font-weight="600" text-anchor="middle">2 PTO = 6 days off</text><text x="112" y="176" fill="#1a6363" font-family="system-ui, sans-serif" font-size="10" text-anchor="middle">3.0x return</text><rect width="176" height="172" x="216" y="24" fill="#fff" stroke="#e5e2da" rx="12"/><rect width="176" height="50" x="216" y="24" fill="#fef0ed" rx="12"/><path fill="#fff" d="M216 62h176v12H216z"/><text x="304" y="44" fill="#d95740" font-family="Georgia, serif" font-size="22" font-weight="700" text-anchor="middle">3</text><text x="304" y="60" fill="#d95740" font-family="system-ui, sans-serif" font-size="10" font-weight="600" text-anchor="middle">DAYS LEFT</text><text x="304" y="94" fill="#1c1917" font-family="Georgia, serif" font-size="13" font-weight="700" text-anchor="middle">Xmas to NYE</text><text x="304" y="112" fill="#78716c" font-family="system-ui, sans-serif" font-size="11" text-anchor="middle">Mon-Wed Dec 29-31</text><text x="304" y="128" fill="#78716c" font-family="system-ui, sans-serif" font-size="11" text-anchor="middle">Best window of 2026</text><rect width="128" height="38" x="240" y="144" fill="#fef0ed" rx="8"/><text x="304" y="162" fill="#d95740" font-family="system-ui, sans-serif" font-size="11" font-weight="600" text-anchor="middle">3 PTO = 11 days off</text><text x="304" y="176" fill="#d95740" font-family="system-ui, sans-serif" font-size="10" text-anchor="middle">3.7x return</text><rect width="176" height="172" x="408" y="24" fill="#fff" stroke="#e5e2da" rx="12"/><rect width="176" height="50" x="408" y="24" fill="#eef6f1" rx="12"/><path fill="#fff" d="M408 62h176v12H408z"/><text x="496" y="44" fill="#4a7c5e" font-family="Georgia, serif" font-size="22" font-weight="700" text-anchor="middle">5</text><text x="496" y="60" fill="#4a7c5e" font-family="system-ui, sans-serif" font-size="10" font-weight="600" text-anchor="middle">DAYS LEFT</text><text x="496" y="94" fill="#1c1917" font-family="Georgia, serif" font-size="13" font-weight="700" text-anchor="middle">Thx + Xmas</text><text x="496" y="112" fill="#78716c" font-family="system-ui, sans-serif" font-size="11" text-anchor="middle">Split 2 + 3 across both</text><text x="496" y="128" fill="#78716c" font-family="system-ui, sans-serif" font-size="11" text-anchor="middle">holiday windows</text><rect width="128" height="38" x="432" y="144" fill="#eef6f1" rx="8"/><text x="496" y="162" fill="#4a7c5e" font-family="system-ui, sans-serif" font-size="11" font-weight="600" text-anchor="middle">5 PTO = 17 days off</text><text x="496" y="176" fill="#4a7c5e" font-family="system-ui, sans-serif" font-size="10" text-anchor="middle">3.4x return</text><rect width="176" height="172" x="600" y="24" fill="#fff" stroke="#e5e2da" rx="12"/><rect width="176" height="50" x="600" y="24" fill="#fdf4e7" rx="12"/><path fill="#fff" d="M600 62h176v12H600z"/><text x="688" y="44" fill="#c4872a" font-family="Georgia, serif" font-size="22" font-weight="700" text-anchor="middle">8+</text><text x="688" y="60" fill="#c4872a" font-family="system-ui, sans-serif" font-size="10" font-weight="600" text-anchor="middle">DAYS LEFT</text><text x="688" y="94" fill="#1c1917" font-family="Georgia, serif" font-size="13" font-weight="700" text-anchor="middle">Full Q4 Plan</text><text x="688" y="112" fill="#78716c" font-family="system-ui, sans-serif" font-size="11" text-anchor="middle">Oct + Nov escape</text><text x="688" y="128" fill="#78716c" font-family="system-ui, sans-serif" font-size="11" text-anchor="middle">+ Thx + Xmas</text><rect width="128" height="38" x="624" y="144" fill="#fdf4e7" rx="8"/><text x="688" y="162" fill="#c4872a" font-family="system-ui, sans-serif" font-size="11" font-weight="600" text-anchor="middle">8 PTO = 30+ days off</text><text x="688" y="176" fill="#c4872a" font-family="system-ui, sans-serif" font-size="10" text-anchor="middle">3.8x return</text></svg>