<svg xmlns="http://www.w3.org/2000/svg" fill="none" viewBox="0 0 800 160"><rect width="800" height="160" fill="#1a6363" rx="16"/><text x="400" y="32" fill="#fff" font-family="system-ui, sans-serif" font-size="11" font-weight="600" letter-spacing="1" opacity=".6" text-anchor="middle">Q4 BOOKING TIMELINE</text><rect width="704" height="4" x="48" y="62" fill="#fff" opacity=".12" rx="2"/><rect width="584" height="8" x="120" y="60" fill="#d95740" opacity=".25" rx="4"/><rect width="200" height="8" x="120" y="60" fill="#fff" opacity=".15" rx="4"/><circle cx="120" cy="64" r="7" fill="#d95740"/><circle cx="120" cy="64" r="3" fill="#fff"/><text x="120" y="52" fill="#fff" font-family="system-ui, sans-serif" font-size="11" font-weight="700" text-anchor="middle">NOW</text><circle cx="120" cy="64" r="2" fill="#fff"/><text x="120" y="82" fill="#fff" font-family="system-ui, sans-serif" font-size="10" opacity=".5" text-anchor="middle">OCT</text><circle cx="400" cy="64" r="4" fill="#fff" opacity=".4"/><text x="400" y="52" fill="#fff" font-family="system-ui, sans-serif" font-size="10" font-weight="600" opacity=".6" text-anchor="middle">NOV</text><circle cx="680" cy="64" r="4" fill="#fff" opacity=".4"/><text x="680" y="52" fill="#fff" font-family="system-ui, sans-serif" font-size="10" font-weight="600" opacity=".6" text-anchor="middle">DEC</text><g fill="#fff" font-family="system-ui, sans-serif"><rect width="180" height="44" x="80" y="92" stroke="#fff" stroke-opacity=".2" stroke-width=".5" opacity=".08" rx="8"/><text x="170" y="112" font-size="12" font-weight="600" text-anchor="middle">Best prices</text><text x="170" y="128" font-size="11" opacity=".6" text-anchor="middle">Book now for Nov travel</text><rect width="220" height="44" x="280" y="92" stroke="#fff" stroke-opacity=".2" stroke-width=".5" opacity=".08" rx="8"/><text x="390" y="112" font-size="12" font-weight="600" text-anchor="middle">+15-25% premium</text><text x="390" y="128" font-size="11" opacity=".6" text-anchor="middle">Nov bookings for Dec travel</text><rect width="200" height="44" x="520" y="92" stroke="#fff" stroke-opacity=".2" stroke-width=".5" opacity=".08" rx="8"/><text x="620" y="112" font-size="12" font-weight="600" text-anchor="middle">+30-50% surge</text><text x="620" y="128" font-size="11" opacity=".6" text-anchor="middle">Last minute, low availability</text></g></svg>