<svg xmlns="http://www.w3.org/2000/svg" fill="none" viewBox="0 0 800 220"><rect width="800" height="220" fill="#f7f6f2" rx="16"/><rect width="176" height="172" x="24" y="24" fill="#fff" stroke="#e5e2da" rx="12"/><rect width="176" height="56" x="24" y="24" fill="#fef0ed" rx="12"/><path fill="#fff" d="M24 68h176v12H24z"/><g fill="#d95740" transform="translate(112 34)"><circle r="14" opacity=".15"/><path d="M-6 4 0-8 6 4Z" opacity=".5"/><rect width="14" height="3" x="-7" y="4" opacity=".4" rx="1"/></g><text x="112" y="100" fill="#1c1917" font-family="Georgia, serif" font-size="15" font-weight="700" text-anchor="middle">Mexico City</text><text x="112" y="118" fill="#78716c" font-family="system-ui, sans-serif" font-size="11" text-anchor="middle">65-75F, cheap flights</text><text x="112" y="134" fill="#78716c" font-family="system-ui, sans-serif" font-size="11" text-anchor="middle">World-class food scene</text><rect width="112" height="26" x="56" y="152" fill="#d95740" opacity=".07" rx="6"/><text x="112" y="169" fill="#d95740" font-family="system-ui, sans-serif" font-size="11" font-weight="600" text-anchor="middle">4-day trip ideal</text><rect width="176" height="172" x="216" y="24" fill="#fff" stroke="#e5e2da" rx="12"/><rect width="176" height="56" x="216" y="24" fill="#fdf4e7" rx="12"/><path fill="#fff" d="M216 68h176v12H216z"/><g fill="#c4872a"><path d="m286 66 15-28 3 6 3-6 15 28Z" opacity=".4"/><path d="m294 66 10-20 10 20Z" opacity=".3"/></g><text x="304" y="100" fill="#1c1917" font-family="Georgia, serif" font-size="15" font-weight="700" text-anchor="middle">Sedona, AZ</text><text x="304" y="118" fill="#78716c" font-family="system-ui, sans-serif" font-size="11" text-anchor="middle">Fall colors, 60s temps</text><text x="304" y="134" fill="#78716c" font-family="system-ui, sans-serif" font-size="11" text-anchor="middle">No summer crowds</text><rect width="112" height="26" x="248" y="152" fill="#c4872a" opacity=".07" rx="6"/><text x="304" y="169" fill="#c4872a" font-family="system-ui, sans-serif" font-size="11" font-weight="600" text-anchor="middle">Peak hiking</text><rect width="176" height="172" x="408" y="24" fill="#fff" stroke="#e5e2da" rx="12"/><rect width="176" height="56" x="408" y="24" fill="#eef6f1" rx="12"/><path fill="#fff" d="M408 68h176v12H408z"/><g fill="#4a7c5e" transform="translate(496 30)"><rect width="24" height="16" x="-12" y="18" opacity=".35" rx="3"/><rect width="16" height="14" x="-8" y="8" opacity=".25" rx="2"/><path d="m-3 8 3-6 3 6Z" opacity=".4"/></g><text x="496" y="100" fill="#1c1917" font-family="Georgia, serif" font-size="15" font-weight="700" text-anchor="middle">Savannah, GA</text><text x="496" y="118" fill="#78716c" font-family="system-ui, sans-serif" font-size="11" text-anchor="middle">Mild temps, historic charm</text><text x="496" y="134" fill="#78716c" font-family="system-ui, sans-serif" font-size="11" text-anchor="middle">Budget-friendly getaway</text><rect width="112" height="26" x="440" y="152" fill="#4a7c5e" opacity=".07" rx="6"/><text x="496" y="169" fill="#4a7c5e" font-family="system-ui, sans-serif" font-size="11" font-weight="600" text-anchor="middle">Great value</text><rect width="176" height="172" x="600" y="24" fill="#fff" stroke="#e5e2da" rx="12"/><rect width="176" height="56" x="600" y="24" fill="#e8f3f3" rx="12"/><path fill="#fff" d="M600 68h176v12H600z"/><g transform="translate(688 28)"><circle cy="22" r="16" fill="#1a6363" opacity=".12"/><path stroke="#1a6363" stroke-width="1.5" d="M-10 28c4-10 16-10 20 0" opacity=".4"/><circle cy="14" r="5" fill="#1a6363" opacity=".2"/><path fill="#1a6363" d="m0 14-3-6h6Z" opacity=".3"/></g><text x="688" y="100" fill="#1c1917" font-family="Georgia, serif" font-size="15" font-weight="700" text-anchor="middle">Puerto Rico</text><text x="688" y="118" fill="#78716c" font-family="system-ui, sans-serif" font-size="11" text-anchor="middle">Warm, no passport needed</text><text x="688" y="134" fill="#78716c" font-family="system-ui, sans-serif" font-size="11" text-anchor="middle">Shoulder season pricing</text><rect width="112" height="26" x="632" y="152" fill="#1a6363" opacity=".07" rx="6"/><text x="688" y="169" fill="#1a6363" font-family="system-ui, sans-serif" font-size="11" font-weight="600" text-anchor="middle">No passport</text></svg>