<svg xmlns="http://www.w3.org/2000/svg" viewBox="0 0 800 220" fill="none">
  <rect width="800" height="220" rx="16" fill="#F7F6F2"/>

  <!-- Mexico City -->
  <rect x="24" y="24" width="176" height="172" rx="12" fill="#FFF" stroke="#E5E2DA" stroke-width="1"/>
  <rect x="24" y="24" width="176" height="56" rx="12" fill="#FEF0ED"/>
  <rect x="24" y="68" width="176" height="12" fill="#FFF"/>
  <g transform="translate(112,34)">
    <circle r="14" fill="#D95740" opacity="0.15"/>
    <path d="M-6 4L0-8L6 4Z" fill="#D95740" opacity="0.5"/>
    <rect x="-7" y="4" width="14" height="3" rx="1" fill="#D95740" opacity="0.4"/>
  </g>
  <text x="112" y="100" text-anchor="middle" font-family="Georgia, serif" font-size="15" font-weight="700" fill="#1C1917">Mexico City</text>
  <text x="112" y="118" text-anchor="middle" font-family="system-ui, sans-serif" font-size="11" fill="#78716C">65-75F, cheap flights</text>
  <text x="112" y="134" text-anchor="middle" font-family="system-ui, sans-serif" font-size="11" fill="#78716C">World-class food scene</text>
  <rect x="56" y="152" width="112" height="26" rx="6" fill="#D95740" opacity="0.07"/>
  <text x="112" y="169" text-anchor="middle" font-family="system-ui, sans-serif" font-size="11" font-weight="600" fill="#D95740">4-day trip ideal</text>

  <!-- Sedona -->
  <rect x="216" y="24" width="176" height="172" rx="12" fill="#FFF" stroke="#E5E2DA" stroke-width="1"/>
  <rect x="216" y="24" width="176" height="56" rx="12" fill="#FDF4E7"/>
  <rect x="216" y="68" width="176" height="12" fill="#FFF"/>
  <g transform="translate(304,28)">
    <path d="M-18 38L-3 10L0 16L3 10L18 38Z" fill="#C4872A" opacity="0.4"/>
    <path d="M-10 38L0 18L10 38Z" fill="#C4872A" opacity="0.3"/>
  </g>
  <text x="304" y="100" text-anchor="middle" font-family="Georgia, serif" font-size="15" font-weight="700" fill="#1C1917">Sedona, AZ</text>
  <text x="304" y="118" text-anchor="middle" font-family="system-ui, sans-serif" font-size="11" fill="#78716C">Fall colors, 60s temps</text>
  <text x="304" y="134" text-anchor="middle" font-family="system-ui, sans-serif" font-size="11" fill="#78716C">No summer crowds</text>
  <rect x="248" y="152" width="112" height="26" rx="6" fill="#C4872A" opacity="0.07"/>
  <text x="304" y="169" text-anchor="middle" font-family="system-ui, sans-serif" font-size="11" font-weight="600" fill="#C4872A">Peak hiking</text>

  <!-- Savannah -->
  <rect x="408" y="24" width="176" height="172" rx="12" fill="#FFF" stroke="#E5E2DA" stroke-width="1"/>
  <rect x="408" y="24" width="176" height="56" rx="12" fill="#EEF6F1"/>
  <rect x="408" y="68" width="176" height="12" fill="#FFF"/>
  <g transform="translate(496,30)">
    <rect x="-12" y="18" width="24" height="16" rx="3" fill="#4A7C5E" opacity="0.35"/>
    <rect x="-8" y="8" width="16" height="14" rx="2" fill="#4A7C5E" opacity="0.25"/>
    <path d="M-3 8L0 2L3 8Z" fill="#4A7C5E" opacity="0.4"/>
  </g>
  <text x="496" y="100" text-anchor="middle" font-family="Georgia, serif" font-size="15" font-weight="700" fill="#1C1917">Savannah, GA</text>
  <text x="496" y="118" text-anchor="middle" font-family="system-ui, sans-serif" font-size="11" fill="#78716C">Mild temps, historic charm</text>
  <text x="496" y="134" text-anchor="middle" font-family="system-ui, sans-serif" font-size="11" fill="#78716C">Budget-friendly getaway</text>
  <rect x="440" y="152" width="112" height="26" rx="6" fill="#4A7C5E" opacity="0.07"/>
  <text x="496" y="169" text-anchor="middle" font-family="system-ui, sans-serif" font-size="11" font-weight="600" fill="#4A7C5E">Great value</text>

  <!-- Puerto Rico -->
  <rect x="600" y="24" width="176" height="172" rx="12" fill="#FFF" stroke="#E5E2DA" stroke-width="1"/>
  <rect x="600" y="24" width="176" height="56" rx="12" fill="#E8F3F3"/>
  <rect x="600" y="68" width="176" height="12" fill="#FFF"/>
  <g transform="translate(688,28)">
    <circle cy="22" r="16" fill="#1A6363" opacity="0.12"/>
    <path d="M-10 28C-6 18 6 18 10 28" fill="none" stroke="#1A6363" stroke-width="1.5" opacity="0.4"/>
    <circle cy="14" r="5" fill="#1A6363" opacity="0.2"/>
    <path d="M0 14L-3 8L3 8Z" fill="#1A6363" opacity="0.3"/>
  </g>
  <text x="688" y="100" text-anchor="middle" font-family="Georgia, serif" font-size="15" font-weight="700" fill="#1C1917">Puerto Rico</text>
  <text x="688" y="118" text-anchor="middle" font-family="system-ui, sans-serif" font-size="11" fill="#78716C">Warm, no passport needed</text>
  <text x="688" y="134" text-anchor="middle" font-family="system-ui, sans-serif" font-size="11" fill="#78716C">Shoulder season pricing</text>
  <rect x="632" y="152" width="112" height="26" rx="6" fill="#1A6363" opacity="0.07"/>
  <text x="688" y="169" text-anchor="middle" font-family="system-ui, sans-serif" font-size="11" font-weight="600" fill="#1A6363">No passport</text>
</svg>