<svg xmlns="http://www.w3.org/2000/svg" fill="none" viewBox="0 0 800 220"><rect width="800" height="220" fill="#f7f6f2" rx="16"/><text x="400" y="20" fill="#1c1917" font-family="Georgia, serif" font-size="13" font-weight="700" letter-spacing=".5" text-anchor="middle">2026 REMOTE WORKER PTO CALENDAR</text><rect width="58" height="72" x="24" y="36" fill="#fff" stroke="#e5e2da" rx="10"/><text x="53" y="54" fill="#1c1917" font-family="system-ui, sans-serif" font-size="11" font-weight="600" text-anchor="middle">Jan</text><rect width="38" height="18" x="34" y="62" fill="#1a6363" opacity=".12" rx="4"/><text x="53" y="75" fill="#1a6363" font-family="system-ui, sans-serif" font-size="10" font-weight="600" text-anchor="middle">1 day</text><text x="53" y="100" fill="#78716c" font-family="system-ui, sans-serif" font-size="10" text-anchor="middle">Jan 2</text><rect width="58" height="72" x="88" y="36" fill="#fff" stroke="#e5e2da" rx="10"/><text x="117" y="54" fill="#1c1917" font-family="system-ui, sans-serif" font-size="11" font-weight="600" text-anchor="middle">Feb</text><text x="117" y="78" fill="#a8a29e" font-family="system-ui, sans-serif" font-size="10" text-anchor="middle">--</text><rect width="58" height="72" x="152" y="36" fill="#fff" stroke="#e5e2da" rx="10"/><text x="181" y="54" fill="#1c1917" font-family="system-ui, sans-serif" font-size="11" font-weight="600" text-anchor="middle">Mar</text><text x="181" y="78" fill="#a8a29e" font-family="system-ui, sans-serif" font-size="10" text-anchor="middle">--</text><rect width="58" height="72" x="216" y="36" fill="#fff" stroke="#e5e2da" rx="10"/><text x="245" y="54" fill="#1c1917" font-family="system-ui, sans-serif" font-size="11" font-weight="600" text-anchor="middle">Apr</text><rect width="38" height="18" x="226" y="62" fill="#4a7c5e" opacity=".12" rx="4"/><text x="245" y="75" fill="#4a7c5e" font-family="system-ui, sans-serif" font-size="10" font-weight="600" text-anchor="middle">1 day</text><text x="245" y="100" fill="#78716c" font-family="system-ui, sans-serif" font-size="10" text-anchor="middle">Apr 3</text><rect width="58" height="72" x="280" y="36" fill="#fff" stroke="#e5e2da" rx="10"/><text x="309" y="54" fill="#1c1917" font-family="system-ui, sans-serif" font-size="11" font-weight="600" text-anchor="middle">May</text><rect width="38" height="18" x="290" y="62" fill="#4a7c5e" opacity=".12" rx="4"/><text x="309" y="75" fill="#4a7c5e" font-family="system-ui, sans-serif" font-size="10" font-weight="600" text-anchor="middle">1 day</text><text x="309" y="100" fill="#78716c" font-family="system-ui, sans-serif" font-size="10" text-anchor="middle">May 22</text><rect width="58" height="72" x="344" y="36" fill="#fff" stroke="#e5e2da" rx="10"/><text x="373" y="54" fill="#1c1917" font-family="system-ui, sans-serif" font-size="11" font-weight="600" text-anchor="middle">Jun</text><text x="373" y="78" fill="#a8a29e" font-family="system-ui, sans-serif" font-size="10" text-anchor="middle">--</text><rect width="58" height="72" x="408" y="36" fill="#fff" stroke="#e5e2da" rx="10"/><text x="437" y="54" fill="#1c1917" font-family="system-ui, sans-serif" font-size="11" font-weight="600" text-anchor="middle">Jul</text><rect width="38" height="18" x="418" y="62" fill="#d95740" opacity=".12" rx="4"/><text x="437" y="75" fill="#d95740" font-family="system-ui, sans-serif" font-size="10" font-weight="600" text-anchor="middle">1 day</text><text x="437" y="100" fill="#78716c" font-family="system-ui, sans-serif" font-size="10" text-anchor="middle">Jul 2</text><rect width="58" height="72" x="472" y="36" fill="#fff" stroke="#e5e2da" rx="10"/><text x="501" y="54" fill="#1c1917" font-family="system-ui, sans-serif" font-size="11" font-weight="600" text-anchor="middle">Aug</text><text x="501" y="78" fill="#a8a29e" font-family="system-ui, sans-serif" font-size="10" text-anchor="middle">--</text><rect width="58" height="72" x="536" y="36" fill="#fff" stroke="#e5e2da" rx="10"/><text x="565" y="54" fill="#1c1917" font-family="system-ui, sans-serif" font-size="11" font-weight="600" text-anchor="middle">Sep</text><rect width="44" height="18" x="543" y="62" fill="#d95740" opacity=".12" rx="4"/><text x="565" y="75" fill="#d95740" font-family="system-ui, sans-serif" font-size="10" font-weight="600" text-anchor="middle">4 days</text><text x="565" y="100" fill="#78716c" font-family="system-ui, sans-serif" font-size="10" text-anchor="middle">Sep 8-11</text><rect width="58" height="72" x="600" y="36" fill="#fff" stroke="#e5e2da" rx="10"/><text x="629" y="54" fill="#1c1917" font-family="system-ui, sans-serif" font-size="11" font-weight="600" text-anchor="middle">Oct</text><text x="629" y="78" fill="#a8a29e" font-family="system-ui, sans-serif" font-size="10" text-anchor="middle">--</text><rect width="58" height="72" x="664" y="36" fill="#fff" stroke="#e5e2da" rx="10"/><text x="693" y="54" fill="#1c1917" font-family="system-ui, sans-serif" font-size="11" font-weight="600" text-anchor="middle">Nov</text><rect width="38" height="18" x="674" y="62" fill="#c4872a" opacity=".12" rx="4"/><text x="693" y="75" fill="#c4872a" font-family="system-ui, sans-serif" font-size="10" font-weight="600" text-anchor="middle">1 day</text><text x="693" y="100" fill="#78716c" font-family="system-ui, sans-serif" font-size="10" text-anchor="middle">Nov 25</text><rect width="58" height="72" x="728" y="36" fill="#fff" stroke="#e5e2da" rx="10"/><text x="757" y="54" fill="#1c1917" font-family="system-ui, sans-serif" font-size="11" font-weight="600" text-anchor="middle">Dec</text><rect width="44" height="18" x="735" y="62" fill="#c4872a" opacity=".12" rx="4"/><text x="757" y="75" fill="#c4872a" font-family="system-ui, sans-serif" font-size="10" font-weight="600" text-anchor="middle">3 days</text><text x="757" y="100" fill="#78716c" font-family="system-ui, sans-serif" font-size="10" text-anchor="middle">Dec 29-31</text><rect width="752" height="76" x="24" y="120" fill="#fff" stroke="#e5e2da" rx="12"/><text x="150" y="148" fill="#78716c" font-family="system-ui, sans-serif" font-size="10" text-anchor="middle">PTO days used</text><text x="150" y="174" fill="#1a6363" font-family="Georgia, serif" font-size="24" font-weight="700" text-anchor="middle">12</text><path stroke="#e5e2da" d="M300 136v50"/><text x="400" y="148" fill="#78716c" font-family="system-ui, sans-serif" font-size="10" text-anchor="middle">Total days off</text><text x="400" y="174" fill="#4a7c5e" font-family="Georgia, serif" font-size="24" font-weight="700" text-anchor="middle">49</text><path stroke="#e5e2da" d="M500 136v50"/><text x="650" y="148" fill="#78716c" font-family="system-ui, sans-serif" font-size="10" text-anchor="middle">Remaining for spontaneous trips</text><text x="650" y="174" fill="#c4872a" font-family="Georgia, serif" font-size="24" font-weight="700" text-anchor="middle">3 days</text></svg>