<svg xmlns="http://www.w3.org/2000/svg" fill="none" viewBox="0 0 800 340"><rect width="800" height="340" fill="#f7f6f2" rx="16"/><rect width="800" height="52" fill="#1a6363" rx="16"/><path fill="#1a6363" d="M0 28h800v24H0z"/><text x="400" y="35" fill="#fff" font-family="Georgia, serif" font-size="18" font-weight="600" text-anchor="middle">November 2026 — Your 9-Day Thanksgiving Window</text><g fill="#78716c" font-family="system-ui, sans-serif" font-size="11" font-weight="600" text-anchor="middle"><text x="62" y="80">SAT-SUN</text><text x="156" y="80">MON</text><text x="242" y="80">TUE</text><text x="328" y="80">WED</text><text x="414" y="80">THU</text><text x="500" y="80">FRI</text><text x="606" y="80">SAT-SUN</text></g><rect width="76" height="88" x="24" y="92" fill="#eeecea" rx="12"/><text x="62" y="124" fill="#78716c" font-family="Georgia, serif" font-size="22" font-weight="700" text-anchor="middle">21-22</text><text x="62" y="150" fill="#78716c" font-family="system-ui, sans-serif" font-size="10" text-anchor="middle">Weekend</text><rect width="84" height="88" x="114" y="92" fill="#e8f3f3" stroke="#1a6363" stroke-width="1.5" rx="12"/><text x="156" y="124" fill="#1a6363" font-family="Georgia, serif" font-size="26" font-weight="700" text-anchor="middle">23</text><text x="156" y="150" fill="#1a6363" font-family="system-ui, sans-serif" font-size="11" font-weight="700" text-anchor="middle">PTO 1</text><rect width="84" height="88" x="200" y="92" fill="#e8f3f3" stroke="#1a6363" stroke-width="1.5" rx="12"/><text x="242" y="124" fill="#1a6363" font-family="Georgia, serif" font-size="26" font-weight="700" text-anchor="middle">24</text><text x="242" y="150" fill="#1a6363" font-family="system-ui, sans-serif" font-size="11" font-weight="700" text-anchor="middle">PTO 2</text><rect width="84" height="88" x="286" y="92" fill="#e8f3f3" stroke="#1a6363" stroke-width="1.5" rx="12"/><text x="328" y="124" fill="#1a6363" font-family="Georgia, serif" font-size="26" font-weight="700" text-anchor="middle">25</text><text x="328" y="150" fill="#1a6363" font-family="system-ui, sans-serif" font-size="11" font-weight="700" text-anchor="middle">PTO 3</text><rect width="84" height="88" x="372" y="92" fill="#fef0ed" stroke="#d95740" stroke-width="1.5" rx="12"/><text x="414" y="120" fill="#d95740" font-family="Georgia, serif" font-size="26" font-weight="700" text-anchor="middle">26</text><text x="414" y="142" fill="#d95740" font-family="system-ui, sans-serif" font-size="10" font-weight="600" text-anchor="middle">Thanks-</text><text x="414" y="153" fill="#d95740" font-family="system-ui, sans-serif" font-size="10" font-weight="600" text-anchor="middle">giving</text><rect width="84" height="88" x="458" y="92" fill="#fef0ed" stroke="#d95740" stroke-width="1.5" rx="12"/><text x="500" y="124" fill="#d95740" font-family="Georgia, serif" font-size="26" font-weight="700" text-anchor="middle">27</text><text x="500" y="146" fill="#d95740" font-family="system-ui, sans-serif" font-size="10" font-weight="600" text-anchor="middle">Day After</text><text x="500" y="157" fill="#d95740" font-family="system-ui, sans-serif" font-size="10" font-weight="600" text-anchor="middle">Thanksgiving</text><rect width="220" height="88" x="556" y="92" fill="#eeecea" rx="12"/><text x="666" y="124" fill="#78716c" font-family="Georgia, serif" font-size="22" font-weight="700" text-anchor="middle">28-29</text><text x="666" y="150" fill="#78716c" font-family="system-ui, sans-serif" font-size="10" text-anchor="middle">Weekend</text><path fill="#e5e2da" d="M24 200h752v1H24z"/><g fill="#44403c" font-family="system-ui, sans-serif" font-size="12"><rect width="14" height="14" x="80" y="220" fill="#e8f3f3" stroke="#1a6363" rx="4"/><text x="102" y="232">PTO days (3 total)</text><rect width="14" height="14" x="300" y="220" fill="#fef0ed" stroke="#d95740" rx="4"/><text x="322" y="232">Holidays</text><rect width="14" height="14" x="440" y="220" fill="#eeecea" rx="4"/><text x="462" y="232">Weekends</text></g><rect width="752" height="56" x="24" y="256" fill="#1a6363" rx="12"/><text x="400" y="282" fill="#fff" font-family="system-ui, sans-serif" font-size="13" opacity=".75" text-anchor="middle">Use just</text><text x="400" y="300" fill="#fff" font-family="Georgia, serif" font-size="17" font-weight="600" text-anchor="middle">3 PTO days to get 9 consecutive days off — a 3.0x return</text></svg>