<svg xmlns="http://www.w3.org/2000/svg" fill="none" viewBox="0 0 800 220"><rect width="800" height="220" fill="#f7f6f2" rx="16"/><rect width="176" height="172" x="24" y="24" fill="#fff" stroke="#e5e2da" rx="12"/><rect width="176" height="56" x="24" y="24" fill="#fdf4e7" rx="12"/><path fill="#fff" d="M24 68h176v12H24z"/><g transform="translate(112 34)"><circle r="10" fill="#c4872a" opacity=".4"/><path stroke="#c4872a" stroke-width="1.5" d="M-14 0h4M10 0h4M0-14v4M0 10v4" opacity=".4"/></g><text x="112" y="100" fill="#1c1917" font-family="Georgia, serif" font-size="15" font-weight="700" text-anchor="middle">Mexico</text><text x="112" y="118" fill="#78716c" font-family="system-ui, sans-serif" font-size="11" text-anchor="middle">Peak weather, pre-holiday</text><text x="112" y="134" fill="#78716c" font-family="system-ui, sans-serif" font-size="11" text-anchor="middle">Oaxaca, Tulum, P. Escondido</text><rect width="112" height="26" x="56" y="152" fill="#c4872a" opacity=".07" rx="6"/><text x="112" y="169" fill="#c4872a" font-family="system-ui, sans-serif" font-size="11" font-weight="600" text-anchor="middle">Warm escape</text><rect width="176" height="172" x="216" y="24" fill="#fff" stroke="#e5e2da" rx="12"/><rect width="176" height="56" x="216" y="24" fill="#eef6f1" rx="12"/><path fill="#fff" d="M216 68h176v12H216z"/><g fill="#4a7c5e" transform="translate(304 28)"><rect width="3" height="28" x="-1" y="18" opacity=".5" rx="1"/><path d="M0 20c-7-9-19-7-15-2 3-4 10-4 15 2M0 20c7-9 19-7 15-2-3-4-10-4-15 2" opacity=".4"/><path d="M0 18C-3 8-14 6-12 12c3-3 9-2 12 6M0 18C3 8 14 6 12 12c-3-3-9-2-12 6" opacity=".35"/></g><text x="304" y="100" fill="#1c1917" font-family="Georgia, serif" font-size="15" font-weight="700" text-anchor="middle">Costa Rica</text><text x="304" y="118" fill="#78716c" font-family="system-ui, sans-serif" font-size="11" text-anchor="middle">Dry season starts Nov</text><text x="304" y="134" fill="#78716c" font-family="system-ui, sans-serif" font-size="11" text-anchor="middle">Beach + cloud forests</text><rect width="112" height="26" x="248" y="152" fill="#4a7c5e" opacity=".07" rx="6"/><text x="304" y="169" fill="#4a7c5e" font-family="system-ui, sans-serif" font-size="11" font-weight="600" text-anchor="middle">Best weather</text><rect width="176" height="172" x="408" y="24" fill="#fff" stroke="#e5e2da" rx="12"/><rect width="176" height="56" x="408" y="24" fill="#e8f3f3" rx="12"/><path fill="#fff" d="M408 68h176v12H408z"/><g fill="#1a6363" transform="translate(496 30)"><path d="M0 42h-10l7-26h-4L0 0l7 16H3l7 26Z" opacity=".45"/><rect width="24" height="3" x="-12" y="40" opacity=".45" rx="1"/></g><text x="496" y="100" fill="#1c1917" font-family="Georgia, serif" font-size="15" font-weight="700" text-anchor="middle">Europe</text><text x="496" y="118" fill="#78716c" font-family="system-ui, sans-serif" font-size="11" text-anchor="middle">60F, Xmas markets open</text><text x="496" y="134" fill="#78716c" font-family="system-ui, sans-serif" font-size="11" text-anchor="middle">Portugal, Spain, Germany</text><rect width="112" height="26" x="440" y="152" fill="#1a6363" opacity=".07" rx="6"/><text x="496" y="169" fill="#1a6363" font-family="system-ui, sans-serif" font-size="11" font-weight="600" text-anchor="middle">Shoulder season</text><rect width="176" height="172" x="600" y="24" fill="#fff" stroke="#e5e2da" rx="12"/><rect width="176" height="56" x="600" y="24" fill="#fef0ed" rx="12"/><path fill="#fff" d="M600 68h176v12H600z"/><g stroke="#d95740"><path stroke-width="2" d="M674 44c0-8 6-14 14-14s14 6 14 14" opacity=".45"/><path stroke-width="1.5" d="M672 46c4-4 8 0 12-4s8 0 12-4 8 0 8 0M672 52c4-4 8 0 12-4s8 0 12-4 8 0 8 0" opacity=".35"/></g><text x="688" y="100" fill="#1c1917" font-family="Georgia, serif" font-size="15" font-weight="700" text-anchor="middle">Hawaii</text><text x="688" y="118" fill="#78716c" font-family="system-ui, sans-serif" font-size="11" text-anchor="middle">75-80F, whale season</text><text x="688" y="134" fill="#78716c" font-family="system-ui, sans-serif" font-size="11" text-anchor="middle">Maui whales late Nov</text><rect width="112" height="26" x="632" y="152" fill="#d95740" opacity=".07" rx="6"/><text x="688" y="169" fill="#d95740" font-family="system-ui, sans-serif" font-size="11" font-weight="600" text-anchor="middle">Peak season</text></svg>