<svg xmlns="http://www.w3.org/2000/svg" fill="none" viewBox="0 0 800 220"><rect width="800" height="220" fill="#f7f6f2" rx="16"/><rect width="236" height="172" x="24" y="24" fill="#fff" stroke="#e5e2da" rx="12"/><rect width="236" height="44" x="24" y="24" fill="#e8f3f3" rx="12"/><path fill="#fff" d="M24 56h236v12H24z"/><text x="142" y="52" fill="#1a6363" font-family="Georgia, serif" font-size="14" font-weight="700" text-anchor="middle">Mini-Break</text><text x="142" y="88" fill="#78716c" font-family="system-ui, sans-serif" font-size="11" text-anchor="middle">Veterans Day window</text><text x="142" y="106" fill="#78716c" font-family="system-ui, sans-serif" font-size="11" text-anchor="middle">Nov 11 - Nov 15</text><rect width="112" height="28" x="56" y="118" fill="#1a6363" opacity=".08" rx="6"/><text x="112" y="130" fill="#1a6363" font-family="system-ui, sans-serif" font-size="18" font-weight="700" text-anchor="middle">2 PTO</text><text x="112" y="142" fill="#1a6363" font-family="system-ui, sans-serif" font-size="10" text-anchor="middle">days used</text><rect width="112" height="28" x="56" y="152" fill="#1a6363" opacity=".07" rx="6"/><text x="112" y="164" fill="#1a6363" font-family="system-ui, sans-serif" font-size="18" font-weight="700" text-anchor="middle">5 days</text><text x="112" y="176" fill="#1a6363" font-family="system-ui, sans-serif" font-size="10" text-anchor="middle">off total</text><rect width="236" height="172" x="276" y="24" fill="#fff" stroke="#e5e2da" rx="12"/><rect width="236" height="44" x="276" y="24" fill="#eef6f1" rx="12"/><path fill="#fff" d="M276 56h236v12H276z"/><text x="394" y="52" fill="#4a7c5e" font-family="Georgia, serif" font-size="14" font-weight="700" text-anchor="middle">Extended</text><text x="394" y="88" fill="#78716c" font-family="system-ui, sans-serif" font-size="11" text-anchor="middle">Thanksgiving window</text><text x="394" y="106" fill="#78716c" font-family="system-ui, sans-serif" font-size="11" text-anchor="middle">Nov 21 - Nov 29</text><rect width="112" height="28" x="308" y="118" fill="#4a7c5e" opacity=".08" rx="6"/><text x="364" y="130" fill="#4a7c5e" font-family="system-ui, sans-serif" font-size="18" font-weight="700" text-anchor="middle">3 PTO</text><text x="364" y="142" fill="#4a7c5e" font-family="system-ui, sans-serif" font-size="10" text-anchor="middle">days used</text><rect width="112" height="28" x="308" y="152" fill="#4a7c5e" opacity=".07" rx="6"/><text x="364" y="164" fill="#4a7c5e" font-family="system-ui, sans-serif" font-size="18" font-weight="700" text-anchor="middle">9 days</text><text x="364" y="176" fill="#4a7c5e" font-family="system-ui, sans-serif" font-size="10" text-anchor="middle">off total</text><rect width="248" height="172" x="528" y="24" fill="#fff" stroke="#e5e2da" rx="12"/><rect width="248" height="44" x="528" y="24" fill="#fef0ed" rx="12"/><path fill="#fff" d="M528 56h248v12H528z"/><text x="652" y="52" fill="#d95740" font-family="Georgia, serif" font-size="14" font-weight="700" text-anchor="middle">Mega-Break</text><text x="652" y="88" fill="#78716c" font-family="system-ui, sans-serif" font-size="11" text-anchor="middle">Both holidays combined</text><text x="652" y="106" fill="#78716c" font-family="system-ui, sans-serif" font-size="11" text-anchor="middle">Nov 11 - Nov 29</text><rect width="112" height="28" x="586" y="118" fill="#d95740" opacity=".08" rx="6"/><text x="642" y="130" fill="#d95740" font-family="system-ui, sans-serif" font-size="18" font-weight="700" text-anchor="middle">7 PTO</text><text x="642" y="142" fill="#d95740" font-family="system-ui, sans-serif" font-size="10" text-anchor="middle">days used</text><rect width="112" height="28" x="586" y="152" fill="#d95740" opacity=".07" rx="6"/><text x="642" y="164" fill="#d95740" font-family="system-ui, sans-serif" font-size="18" font-weight="700" text-anchor="middle">16 days</text><text x="642" y="176" fill="#d95740" font-family="system-ui, sans-serif" font-size="10" text-anchor="middle">off total</text></svg>