<svg xmlns="http://www.w3.org/2000/svg" viewBox="0 0 800 220" fill="none">
  <rect width="800" height="220" rx="16" fill="#F7F6F2"/>

  <!-- Southwest Desert -->
  <rect x="24" y="24" width="176" height="172" rx="12" fill="#FFF" stroke="#E5E2DA" stroke-width="1"/>
  <rect x="24" y="24" width="176" height="56" rx="12" fill="#FDF4E7"/>
  <rect x="24" y="68" width="176" height="12" fill="#FFF"/>
  <g transform="translate(112,28)">
    <rect x="-2" y="10" width="4" height="28" rx="2" fill="#C4872A" opacity="0.45"/>
    <rect x="-10" y="18" width="4" height="12" rx="2" fill="#C4872A" opacity="0.4"/>
    <rect x="6" y="14" width="4" height="16" rx="2" fill="#C4872A" opacity="0.4"/>
    <path d="M-8 18C-8 14-4 12-2 16" stroke="#C4872A" stroke-width="1.5" fill="none" opacity="0.4"/>
    <path d="M8 14C8 10 4 8 2 12" stroke="#C4872A" stroke-width="1.5" fill="none" opacity="0.4"/>
  </g>
  <text x="112" y="100" text-anchor="middle" font-family="Georgia, serif" font-size="15" font-weight="700" fill="#1C1917">SW Desert</text>
  <text x="112" y="118" text-anchor="middle" font-family="system-ui, sans-serif" font-size="11" fill="#78716C">Sedona, Joshua Tree, Big Bend</text>
  <text x="112" y="134" text-anchor="middle" font-family="system-ui, sans-serif" font-size="11" fill="#78716C">60-70F, zero crowds</text>
  <rect x="56" y="152" width="112" height="26" rx="6" fill="#C4872A" opacity="0.07"/>
  <text x="112" y="169" text-anchor="middle" font-family="system-ui, sans-serif" font-size="11" font-weight="600" fill="#C4872A">Perfect weather</text>

  <!-- Southeast Asia -->
  <rect x="216" y="24" width="176" height="172" rx="12" fill="#FFF" stroke="#E5E2DA" stroke-width="1"/>
  <rect x="216" y="24" width="176" height="56" rx="12" fill="#EEF6F1"/>
  <rect x="216" y="68" width="176" height="12" fill="#FFF"/>
  <g transform="translate(304,28)">
    <rect x="-1" y="16" width="3" height="26" rx="1" fill="#4A7C5E" opacity="0.5"/>
    <path d="M0 18C-7 9-19 11-15 16C-12 12-5 12 0 18Z" fill="#4A7C5E" opacity="0.4"/>
    <path d="M0 18C7 9 19 11 15 16C12 12 5 12 0 18Z" fill="#4A7C5E" opacity="0.4"/>
    <path d="M0 16C-3 6-14 4-12 10C-9 7-3 8 0 16Z" fill="#4A7C5E" opacity="0.35"/>
    <path d="M0 16C3 6 14 4 12 10C9 7 3 8 0 16Z" fill="#4A7C5E" opacity="0.35"/>
  </g>
  <text x="304" y="100" text-anchor="middle" font-family="Georgia, serif" font-size="15" font-weight="700" fill="#1C1917">SE Asia</text>
  <text x="304" y="118" text-anchor="middle" font-family="system-ui, sans-serif" font-size="11" fill="#78716C">Dry season starts November</text>
  <text x="304" y="134" text-anchor="middle" font-family="system-ui, sans-serif" font-size="11" fill="#78716C">Thailand, Vietnam, Cambodia</text>
  <rect x="248" y="152" width="112" height="26" rx="6" fill="#4A7C5E" opacity="0.07"/>
  <text x="304" y="169" text-anchor="middle" font-family="system-ui, sans-serif" font-size="11" font-weight="600" fill="#4A7C5E">Peak season</text>

  <!-- Morocco -->
  <rect x="408" y="24" width="176" height="172" rx="12" fill="#FFF" stroke="#E5E2DA" stroke-width="1"/>
  <rect x="408" y="24" width="176" height="56" rx="12" fill="#FEF0ED"/>
  <rect x="408" y="68" width="176" height="12" fill="#FFF"/>
  <g transform="translate(496,30)">
    <path d="M0 0L4 12L16 12L6 20L10 32L0 24L-10 32L-6 20L-16 12L-4 12Z" fill="#D95740" opacity="0.4"/>
    <circle r="5" cy="16" fill="#D95740" opacity="0.25"/>
  </g>
  <text x="496" y="100" text-anchor="middle" font-family="Georgia, serif" font-size="15" font-weight="700" fill="#1C1917">Morocco</text>
  <text x="496" y="118" text-anchor="middle" font-family="system-ui, sans-serif" font-size="11" fill="#78716C">70F, dry, pre-tourist season</text>
  <text x="496" y="134" text-anchor="middle" font-family="system-ui, sans-serif" font-size="11" fill="#78716C">Ideal November weather</text>
  <rect x="440" y="152" width="112" height="26" rx="6" fill="#D95740" opacity="0.07"/>
  <text x="496" y="169" text-anchor="middle" font-family="system-ui, sans-serif" font-size="11" font-weight="600" fill="#D95740">Hidden gem</text>

  <!-- Hawaii -->
  <rect x="600" y="24" width="176" height="172" rx="12" fill="#FFF" stroke="#E5E2DA" stroke-width="1"/>
  <rect x="600" y="24" width="176" height="56" rx="12" fill="#E8F3F3"/>
  <rect x="600" y="68" width="176" height="12" fill="#FFF"/>
  <g transform="translate(688,30)">
    <path d="M-16 36C-12 28-6 26 0 24C6 26 12 28 16 36" fill="#1A6363" opacity="0.3"/>
    <path d="M-16 36C-8 34-2 33 0 32C2 33 8 34 16 36" fill="#1A6363" opacity="0.2"/>
    <circle cx="0" cy="14" r="6" fill="#1A6363" opacity="0.35"/>
    <line x1="-10" y1="14" x2="-7" y2="14" stroke="#1A6363" stroke-width="1.5" opacity="0.35"/>
    <line x1="7" y1="14" x2="10" y2="14" stroke="#1A6363" stroke-width="1.5" opacity="0.35"/>
    <line x1="0" y1="5" x2="0" y2="2" stroke="#1A6363" stroke-width="1.5" opacity="0.35"/>
  </g>
  <text x="688" y="100" text-anchor="middle" font-family="Georgia, serif" font-size="15" font-weight="700" fill="#1C1917">Hawaii</text>
  <text x="688" y="118" text-anchor="middle" font-family="system-ui, sans-serif" font-size="11" fill="#78716C">Winter rates, summer weather</text>
  <text x="688" y="134" text-anchor="middle" font-family="system-ui, sans-serif" font-size="11" fill="#78716C">Nearly identical to peak season</text>
  <rect x="632" y="152" width="112" height="26" rx="6" fill="#1A6363" opacity="0.07"/>
  <text x="688" y="169" text-anchor="middle" font-family="system-ui, sans-serif" font-size="11" font-weight="600" fill="#1A6363">Best value</text>
</svg>