<svg xmlns="http://www.w3.org/2000/svg" fill="none" viewBox="0 0 800 340"><rect width="800" height="340" fill="#f7f6f2" rx="16"/><rect width="800" height="52" fill="#1a6363" rx="16"/><path fill="#1a6363" d="M0 28h800v24H0z"/><text x="400" y="35" fill="#fff" font-family="Georgia, serif" font-size="17" font-weight="600" text-anchor="middle">November 2026 — Veterans Day + Thanksgiving Double Window</text><text x="172" y="77" fill="#1a6363" font-family="system-ui, sans-serif" font-size="10" font-weight="700" text-anchor="middle">VETERANS DAY WINDOW</text><g fill="#78716c" font-family="system-ui, sans-serif" font-size="10" font-weight="600" text-anchor="middle"><text x="56" y="97">WED</text><text x="134" y="97">THU</text><text x="212" y="97">FRI</text><text x="296" y="97">SAT-SUN</text></g><rect width="64" height="76" x="24" y="106" fill="#fef0ed" stroke="#d95740" stroke-width="1.5" rx="12"/><text x="56" y="133" fill="#d95740" font-family="Georgia, serif" font-size="22" font-weight="700" text-anchor="middle">11</text><text x="56" y="152" fill="#d95740" font-family="system-ui, sans-serif" font-size="10" font-weight="600" text-anchor="middle">Veterans</text><text x="56" y="162" fill="#d95740" font-family="system-ui, sans-serif" font-size="10" font-weight="600" text-anchor="middle">Day</text><rect width="76" height="76" x="96" y="106" fill="#e8f3f3" stroke="#1a6363" stroke-width="1.5" rx="12"/><text x="134" y="133" fill="#1a6363" font-family="Georgia, serif" font-size="22" font-weight="700" text-anchor="middle">12</text><text x="134" y="155" fill="#1a6363" font-family="system-ui, sans-serif" font-size="10" font-weight="700" text-anchor="middle">PTO 1</text><rect width="68" height="76" x="178" y="106" fill="#e8f3f3" stroke="#1a6363" stroke-width="1.5" rx="12"/><text x="212" y="133" fill="#1a6363" font-family="Georgia, serif" font-size="22" font-weight="700" text-anchor="middle">13</text><text x="212" y="155" fill="#1a6363" font-family="system-ui, sans-serif" font-size="10" font-weight="700" text-anchor="middle">PTO 2</text><rect width="88" height="76" x="252" y="106" fill="#eeecea" rx="12"/><text x="296" y="133" fill="#78716c" font-family="Georgia, serif" font-size="19" font-weight="700" text-anchor="middle">14-15</text><text x="296" y="153" fill="#78716c" font-family="system-ui, sans-serif" font-size="10" text-anchor="middle">Weekend</text><text x="365" y="148" fill="#78716c" font-family="Georgia, serif" font-size="20" text-anchor="middle">...</text><text x="590" y="77" fill="#1a6363" font-family="system-ui, sans-serif" font-size="10" font-weight="700" text-anchor="middle">THANKSGIVING WINDOW</text><g fill="#78716c" font-family="system-ui, sans-serif" font-size="10" font-weight="600" text-anchor="middle"><text x="416" y="97">MON</text><text x="474" y="97">TUE</text><text x="532" y="97">WED</text><text x="598" y="97">THU-FRI</text><text x="712" y="97">SAT-SUN</text></g><rect width="52" height="76" x="390" y="106" fill="#e8f3f3" stroke="#1a6363" stroke-width="1.5" rx="12"/><text x="416" y="133" fill="#1a6363" font-family="Georgia, serif" font-size="22" font-weight="700" text-anchor="middle">23</text><text x="416" y="155" fill="#1a6363" font-family="system-ui, sans-serif" font-size="10" font-weight="700" text-anchor="middle">PTO 3</text><rect width="52" height="76" x="448" y="106" fill="#e8f3f3" stroke="#1a6363" stroke-width="1.5" rx="12"/><text x="474" y="133" fill="#1a6363" font-family="Georgia, serif" font-size="22" font-weight="700" text-anchor="middle">24</text><text x="474" y="155" fill="#1a6363" font-family="system-ui, sans-serif" font-size="10" font-weight="700" text-anchor="middle">PTO 4</text><rect width="52" height="76" x="506" y="106" fill="#e8f3f3" stroke="#1a6363" stroke-width="1.5" rx="12"/><text x="532" y="133" fill="#1a6363" font-family="Georgia, serif" font-size="22" font-weight="700" text-anchor="middle">25</text><text x="532" y="155" fill="#1a6363" font-family="system-ui, sans-serif" font-size="10" font-weight="700" text-anchor="middle">PTO 5</text><rect width="76" height="76" x="564" y="106" fill="#fef0ed" stroke="#d95740" stroke-width="1.5" rx="12"/><text x="602" y="131" fill="#d95740" font-family="Georgia, serif" font-size="18" font-weight="700" text-anchor="middle">26-27</text><text x="602" y="149" fill="#d95740" font-family="system-ui, sans-serif" font-size="10" font-weight="600" text-anchor="middle">Thanksgiving</text><text x="602" y="159" fill="#d95740" font-family="system-ui, sans-serif" font-size="10" font-weight="600" text-anchor="middle">+ Day After</text><rect width="100" height="76" x="676" y="106" fill="#eeecea" rx="12"/><text x="726" y="133" fill="#78716c" font-family="Georgia, serif" font-size="19" font-weight="700" text-anchor="middle">28-29</text><text x="726" y="153" fill="#78716c" font-family="system-ui, sans-serif" font-size="10" text-anchor="middle">Weekend</text><path fill="#e5e2da" d="M24 200h752v1H24z"/><g fill="#44403c" font-family="system-ui, sans-serif" font-size="12"><rect width="14" height="14" x="60" y="220" fill="#e8f3f3" stroke="#1a6363" rx="4"/><text x="82" y="232">PTO days (5 total)</text><rect width="14" height="14" x="260" y="220" fill="#fef0ed" stroke="#d95740" rx="4"/><text x="282" y="232">Holidays</text><rect width="14" height="14" x="400" y="220" fill="#eeecea" rx="4"/><text x="422" y="232">Weekends</text></g><rect width="752" height="56" x="24" y="256" fill="#1a6363" rx="12"/><text x="400" y="282" fill="#fff" font-family="system-ui, sans-serif" font-size="13" opacity=".75" text-anchor="middle">Bridge both holidays with just</text><text x="400" y="300" fill="#fff" font-family="Georgia, serif" font-size="17" font-weight="600" text-anchor="middle">5 PTO days for a 5-day + 9-day break in November</text></svg>